<?xml version="1.0" encoding="iso-8859-1"?>
<!-- Generator: Adobe Illustrator 19.0.0, SVG Export Plug-In . SVG Version: 6.00 Build 0)  -->
<svg version="1.1" id="Layer_1" xmlns="http://www.w3.org/2000/svg" xmlns:xlink="http://www.w3.org/1999/xlink" x="0px" y="0px"
	 viewBox="0 0 512 512" style="enable-background:new 0 0 512 512;" xml:space="preserve">
<path style="fill:#D84F48;" d="M473.671,266.723c0-94.773-97.458-171.603-217.663-171.603
	c-120.222,0-217.679,76.828-217.679,171.603c0,120.772,136.712,162.72,161.289,183.066C225.148,470.819,239.984,491.382,256,512
	c16.017-20.618,30.852-41.18,56.381-62.211C336.958,429.443,473.671,378.25,473.671,266.723z"/>
<g>
	<path style="fill:#FFFFFF;" d="M465.596,220.278c-4.162-11.698-9.865-22.886-16.912-33.43l-18.767,11.377l-35.219-21.349
		l-35.21,21.348l-35.215-21.348l-35.21,21.348l-35.212-21.348l-35.207,21.348l-35.205-21.348l-35.213,21.349l-35.211-21.349
		l-35.208,21.348l-15.72-9.533c-6.908,10.646-12.432,21.942-16.418,33.73l32.139,19.486l35.209-21.348l35.211,21.347l35.211-21.347
		l35.207,21.348l35.208-21.348l35.211,21.347l35.211-21.348l35.215,21.348l35.211-21.348l35.217,21.347L465.596,220.278z"/>
	<path style="fill:#FFFFFF;" d="M448.684,338.935l-18.767,11.377l-35.219-21.349l-35.21,21.348l-35.215-21.348l-35.21,21.348
		l-35.212-21.348l-35.207,21.348l-35.205-21.348l-35.213,21.349l-35.211-21.349L77.807,350.31l-15.72-9.532
		c-0.627,0.966-1.229,1.941-1.832,2.917c9.576,15.33,21.579,28.547,34.537,40.001l18.224-11.05l35.211,21.347l35.211-21.347
		l35.207,21.348l35.208-21.348l35.211,21.347l35.211-21.348l35.215,21.348l35.211-21.348l18.186,11.024
		c14.036-12.161,27.158-26.08,37.599-41.954C449.891,340.786,449.3,339.854,448.684,338.935z"/>
</g>
<path style="fill:#00B494;" d="M256,512c16.017-20.618,30.852-41.18,56.381-62.211H199.619C225.148,470.819,239.984,491.382,256,512
	z"/>
<path style="fill:#007F67;" d="M291.374,469.223h-70.748c5.213,5.408,9.952,10.797,14.425,16.173h41.899
	C281.423,480.02,286.161,474.631,291.374,469.223z"/>
<g>
	<polygon style="fill:#FFFFFF;" points="121.94,304.6 101.828,284.759 121.94,264.915 142.05,284.759 	"/>
	<polygon style="fill:#FFFFFF;" points="256,304.6 235.89,284.759 256,264.915 276.11,284.759 	"/>
	<polygon style="fill:#FFFFFF;" points="390.06,304.6 369.95,284.759 390.06,264.915 410.172,284.759 	"/>
</g>
<path style="opacity:0.1;fill:#414042;enable-background:new    ;" d="M233.152,449.789
	c-24.577-20.346-161.289-62.294-161.289-183.066c0-90.325,88.525-164.351,200.911-171.101c-5.533-0.332-11.124-0.502-16.765-0.502
	c-120.222,0-217.679,76.828-217.679,171.603c0,120.772,136.712,162.72,161.289,183.066C225.148,470.819,239.984,491.382,256,512
	c5.565-7.164,10.989-14.321,16.766-21.495C261.916,477.036,249.811,463.512,233.152,449.789z"/>
<path style="fill:#636052;" d="M207.021,66.844h17.011c-2.186-4.608-3.414-9.757-3.414-15.191c0-19.565,15.87-35.483,35.376-35.483
	c19.511,0,35.385,15.917,35.385,35.483c0,5.432-1.228,10.582-3.414,15.191h17.014c0.098,0,0.193,0.006,0.292,0.007
	c1.48-4.807,2.281-9.91,2.281-15.197C307.552,23.172,284.424,0,255.996,0c-28.424,0-51.548,23.172-51.548,51.655
	c0,5.287,0.8,10.39,2.28,15.197C206.826,66.85,206.923,66.844,207.021,66.844z"/>
<path style="fill:#F1F2F2;" d="M329.472,105.788V80.784c0-13.809-10.959-25.002-24.491-25.002h-97.959
	c-13.53,0-24.493,11.193-24.493,25.002v25.003C182.528,105.788,329.472,105.788,329.472,105.788z"/>
<path style="opacity:0.1;fill:#414042;enable-background:new    ;" d="M240.603,55.782h-33.581
	c-13.53,0-24.493,11.193-24.493,25.002v25.003h33.581V80.784C216.109,66.975,227.072,55.782,240.603,55.782z"/>
<g>
</g>
<g>
</g>
<g>
</g>
<g>
</g>
<g>
</g>
<g>
</g>
<g>
</g>
<g>
</g>
<g>
</g>
<g>
</g>
<g>
</g>
<g>
</g>
<g>
</g>
<g>
</g>
<g>
</g>
</svg>
