<?xml version="1.0" encoding="iso-8859-1"?>
<!-- Generator: Adobe Illustrator 19.0.0, SVG Export Plug-In . SVG Version: 6.00 Build 0)  -->
<svg version="1.1" id="Layer_1" xmlns="http://www.w3.org/2000/svg" xmlns:xlink="http://www.w3.org/1999/xlink" x="0px" y="0px"
	 viewBox="0 0 512 512" style="enable-background:new 0 0 512 512;" xml:space="preserve">
<path style="fill:#ED5D51;" d="M462.615,305.387C462.615,419.492,370.107,512,256.008,512
	c-114.116,0-206.623-92.508-206.623-206.613c0-114.112,92.507-206.617,206.623-206.617
	C370.107,98.769,462.615,191.275,462.615,305.387z"/>
<g style="opacity:0.1;">
	<path style="fill:#414042;" d="M300.27,467.433c-114.116,0-206.623-92.508-206.623-206.614c0-45.472,14.7-87.503,39.594-121.627
		c-50.869,37.637-83.855,98.062-83.855,166.196C49.386,419.492,141.892,512,256.009,512c68.631,0,129.439-33.479,167.012-84.988
		C388.698,452.408,346.239,467.433,300.27,467.433z"/>
</g>
<g>
	<polygon style="fill:#FFFFFF;" points="95.864,306.024 114.783,294.86 133.673,306.024 133.673,328.364 114.783,339.534 
		95.864,328.364 	"/>
	<path style="fill:#FFFFFF;" d="M171.515,318.63c0,5.872-4.647,10.629-10.389,10.629c-5.743,0-10.387-4.756-10.387-10.629
		c0-5.862,4.645-10.622,10.387-10.622C166.869,308.007,171.515,312.767,171.515,318.63z"/>
	<polygon style="fill:#FFFFFF;" points="190.025,306.024 208.933,294.86 227.839,306.024 227.839,328.364 208.933,339.534 
		190.025,328.364 	"/>
	<path style="fill:#FFFFFF;" d="M265.677,318.63c0,5.872-4.646,10.629-10.402,10.629c-5.711,0-10.369-4.756-10.369-10.629
		c0-5.862,4.657-10.622,10.369-10.622C261.031,308.007,265.677,312.767,265.677,318.63z"/>
	<polygon style="fill:#FFFFFF;" points="284.174,306.024 303.096,294.86 321.988,306.024 321.988,328.364 303.096,339.534 
		284.174,328.364 	"/>
	<path style="fill:#FFFFFF;" d="M359.827,318.63c0,5.872-4.645,10.629-10.372,10.629c-5.753,0-10.388-4.756-10.388-10.629
		c0-5.862,4.635-10.622,10.388-10.622C355.182,308.007,359.827,312.767,359.827,318.63z"/>
	<polygon style="fill:#FFFFFF;" points="378.328,306.024 397.231,294.86 416.137,306.024 416.137,328.364 397.231,339.534 
		378.328,328.364 	"/>
	<path style="fill:#FFFFFF;" d="M88.776,257.29h-6.368c-2.051,0-3.715-1.662-3.715-3.714c0-2.052,1.663-3.715,3.715-3.715h6.368
		c2.05,0,3.714,1.662,3.714,3.715C92.49,255.629,90.826,257.29,88.776,257.29z"/>
	<path style="fill:#FFFFFF;" d="M401.507,257.29h-13.03c-2.05,0-3.714-1.662-3.714-3.714c0-2.052,1.664-3.715,3.714-3.715h13.03
		c2.051,0,3.715,1.662,3.715,3.715C405.221,255.629,403.558,257.29,401.507,257.29z M366.759,257.29h-13.03
		c-2.051,0-3.715-1.662-3.715-3.714c0-2.052,1.663-3.715,3.715-3.715h13.03c2.051,0,3.715,1.662,3.715,3.715
		C370.473,255.629,368.81,257.29,366.759,257.29z M332.011,257.29h-13.03c-2.051,0-3.715-1.662-3.715-3.714
		c0-2.052,1.664-3.715,3.715-3.715h13.03c2.051,0,3.715,1.662,3.715,3.715C335.725,255.629,334.062,257.29,332.011,257.29z
		 M297.264,257.29h-13.03c-2.051,0-3.715-1.662-3.715-3.714c0-2.052,1.663-3.715,3.715-3.715h13.031
		c2.051,0,3.715,1.662,3.715,3.715C300.978,255.629,299.315,257.29,297.264,257.29z M262.515,257.29h-13.032
		c-2.051,0-3.715-1.662-3.715-3.714c0-2.052,1.663-3.715,3.715-3.715h13.032c2.05,0,3.714,1.662,3.714,3.715
		C266.229,255.629,264.566,257.29,262.515,257.29z M227.767,257.29h-13.03c-2.051,0-3.715-1.662-3.715-3.714
		c0-2.052,1.663-3.715,3.715-3.715h13.031c2.05,0,3.714,1.662,3.714,3.715C231.481,255.629,229.817,257.29,227.767,257.29z
		 M193.019,257.29h-13.03c-2.051,0-3.715-1.662-3.715-3.714c0-2.052,1.663-3.715,3.715-3.715h13.03c2.051,0,3.715,1.662,3.715,3.715
		C196.733,255.629,195.07,257.29,193.019,257.29z M158.271,257.29h-13.03c-2.051,0-3.715-1.662-3.715-3.714
		c0-2.052,1.663-3.715,3.715-3.715h13.03c2.051,0,3.715,1.662,3.715,3.715C161.985,255.629,160.322,257.29,158.271,257.29z
		 M123.523,257.29h-13.031c-2.05,0-3.714-1.662-3.714-3.714c0-2.052,1.663-3.715,3.714-3.715h13.031
		c2.051,0,3.715,1.662,3.715,3.715C127.238,255.629,125.574,257.29,123.523,257.29z"/>
	<path style="fill:#FFFFFF;" d="M429.593,257.29h-6.368c-2.051,0-3.714-1.662-3.714-3.714c0-2.052,1.662-3.715,3.714-3.715h6.368
		c2.051,0,3.715,1.662,3.715,3.715C433.307,255.629,431.644,257.29,429.593,257.29z"/>
	<path style="fill:#FFFFFF;" d="M413.527,386.875h-12.734c-2.051,0-3.715-1.663-3.715-3.715c0-2.051,1.663-3.714,3.715-3.714h12.734
		c2.051,0,3.715,1.662,3.715,3.714S415.578,386.875,413.527,386.875z M379.57,386.875h-12.733c-2.051,0-3.715-1.663-3.715-3.715
		c0-2.051,1.663-3.714,3.715-3.714h12.733c2.051,0,3.715,1.662,3.715,3.714S381.621,386.875,379.57,386.875z M345.614,386.875
		h-12.733c-2.051,0-3.715-1.663-3.715-3.715c0-2.051,1.663-3.714,3.715-3.714h12.733c2.051,0,3.715,1.662,3.715,3.714
		C349.328,385.211,347.665,386.875,345.614,386.875z M311.658,386.875h-12.733c-2.051,0-3.715-1.663-3.715-3.715
		c0-2.051,1.663-3.714,3.715-3.714h12.733c2.051,0,3.715,1.662,3.715,3.714C315.372,385.211,313.708,386.875,311.658,386.875z
		 M277.701,386.875h-12.733c-2.051,0-3.715-1.663-3.715-3.715c0-2.051,1.663-3.714,3.715-3.714h12.733
		c2.051,0,3.715,1.662,3.715,3.714C281.414,385.211,279.751,386.875,277.701,386.875z M243.744,386.875h-12.733
		c-2.051,0-3.715-1.663-3.715-3.715c0-2.051,1.663-3.714,3.715-3.714h12.733c2.051,0,3.715,1.662,3.715,3.714
		S245.795,386.875,243.744,386.875z M209.788,386.875h-12.734c-2.051,0-3.715-1.663-3.715-3.715c0-2.051,1.663-3.714,3.715-3.714
		h12.734c2.051,0,3.715,1.662,3.715,3.714C213.502,385.211,211.839,386.875,209.788,386.875z M175.831,386.875h-12.732
		c-2.051,0-3.715-1.663-3.715-3.715c0-2.051,1.663-3.714,3.715-3.714h12.733c2.051,0,3.715,1.662,3.715,3.714
		C179.545,385.211,177.882,386.875,175.831,386.875z M141.875,386.875h-12.734c-2.051,0-3.715-1.663-3.715-3.715
		c0-2.051,1.663-3.714,3.715-3.714h12.734c2.051,0,3.715,1.662,3.715,3.714S143.926,386.875,141.875,386.875z M107.919,386.875
		H95.185c-2.051,0-3.715-1.663-3.715-3.715c0-2.051,1.663-3.714,3.715-3.714h12.734c2.051,0,3.715,1.662,3.715,3.714
		C111.633,385.211,109.97,386.875,107.919,386.875z"/>
	<path style="fill:#FFFFFF;" d="M173.088,205.74l-9.009-6.017l9.009-6.018c1.345-0.895,1.72-2.75,0.83-4.123
		c-0.866-1.392-2.672-1.772-4.024-0.875l-8.217,5.5v-14.267c0-1.644-1.307-2.975-2.925-2.975c-1.604,0-2.905,1.33-2.905,2.975
		v14.282l-8.241-5.514c-1.345-0.892-3.142-0.517-4.025,0.875c-0.886,1.373-0.502,3.228,0.85,4.123l8.989,6.018l-8.997,6.017
		c-1.343,0.904-1.726,2.76-0.85,4.139c0.563,0.868,1.496,1.345,2.447,1.345c0.546,0,1.097-0.15,1.586-0.493l8.241-5.499v14.274
		c0,1.651,1.301,2.982,2.905,2.982c1.618,0,2.925-1.33,2.925-2.982v-14.274l8.217,5.499c0.506,0.343,1.045,0.493,1.602,0.493
		c0.938,0,1.877-0.476,2.436-1.345C174.809,208.5,174.434,206.645,173.088,205.74z"/>
	<path style="fill:#FFFFFF;" d="M270.332,205.74l-9.005-6.017l9.005-6.018c1.345-0.895,1.726-2.75,0.836-4.123
		c-0.869-1.392-2.674-1.772-4.024-0.875l-8.223,5.5v-14.267c0-1.644-1.304-2.975-2.918-2.975c-1.606,0-2.908,1.33-2.908,2.975
		v14.282l-8.238-5.514c-1.347-0.892-3.144-0.517-4.03,0.875c-0.883,1.373-0.503,3.228,0.846,4.123l8.997,6.018l-9.003,6.017
		c-1.343,0.904-1.722,2.76-0.844,4.139c0.558,0.868,1.497,1.345,2.446,1.345c0.551,0,1.094-0.15,1.588-0.493l8.238-5.499v14.274
		c0,1.651,1.302,2.982,2.908,2.982c1.614,0,2.918-1.33,2.918-2.982v-14.274l8.223,5.499c0.503,0.343,1.045,0.493,1.598,0.493
		c0.943,0,1.876-0.476,2.442-1.345C272.059,208.5,271.677,206.645,270.332,205.74z"/>
	<path style="fill:#FFFFFF;" d="M367.58,205.74l-9.008-6.017l9.008-6.018c1.345-0.895,1.722-2.75,0.833-4.123
		c-0.87-1.392-2.675-1.772-4.025-0.875l-8.216,5.5v-14.267c0-1.644-1.309-2.975-2.926-2.975c-1.607,0-2.906,1.33-2.906,2.975v14.282
		l-8.242-5.514c-1.344-0.892-3.139-0.517-4.023,0.875c-0.885,1.373-0.504,3.228,0.849,4.123l8.989,6.018l-8.997,6.017
		c-1.345,0.904-1.726,2.76-0.847,4.139c0.562,0.868,1.497,1.345,2.448,1.345c0.545,0,1.096-0.15,1.582-0.493l8.242-5.499v14.274
		c0,1.651,1.299,2.982,2.906,2.982c1.616,0,2.926-1.33,2.926-2.982v-14.274l8.216,5.499c0.506,0.343,1.045,0.493,1.6,0.493
		c0.94,0,1.878-0.476,2.437-1.345C369.303,208.5,368.925,206.645,367.58,205.74z"/>
</g>
<path id="SVGCleanerId_0" style="fill:#F1F2F2;" d="M255.996,95.421c-25.811,0-46.81-21.402-46.81-47.709
	C209.186,21.403,230.185,0,255.996,0c25.815,0,46.819,21.403,46.819,47.712C302.815,74.02,281.812,95.421,255.996,95.421z
	 M255.996,15.917c-17.035,0-30.893,14.263-30.893,31.795c0,17.53,13.86,31.793,30.893,31.793c17.039,0,30.902-14.262,30.902-31.793
	S273.035,15.917,255.996,15.917z"/>
<g>
	<path id="SVGCleanerId_0_1_" style="fill:#F1F2F2;" d="M255.996,95.421c-25.811,0-46.81-21.402-46.81-47.709
		C209.186,21.403,230.185,0,255.996,0c25.815,0,46.819,21.403,46.819,47.712C302.815,74.02,281.812,95.421,255.996,95.421z
		 M255.996,15.917c-17.035,0-30.893,14.263-30.893,31.795c0,17.53,13.86,31.793,30.893,31.793c17.039,0,30.902-14.262,30.902-31.793
		S273.035,15.917,255.996,15.917z"/>
</g>
<path style="fill:#E4E6E6;" d="M209.186,47.712c0,26.307,20.999,47.709,46.81,47.709c0.001,0,0.003,0,0.003,0l0.001-15.916
	c0,0-0.003,0-0.004,0c-17.035,0-30.893-14.262-30.893-31.793s13.86-31.795,30.893-31.795c0.001,0,0.003,0,0.003,0L256.001,0
	c0,0-0.003,0-0.004,0C230.185,0,209.186,21.403,209.186,47.712z"/>
<path style="fill:#F1F2F2;" d="M323.325,109.449v-22.96c0-12.681-10.041-22.958-22.442-22.958H211.12
	c-12.398,0-22.443,10.278-22.443,22.958v22.96H323.325z"/>
<path style="fill:#E4E6E6;" d="M244.487,63.532h-33.368c-12.398,0-22.443,10.278-22.443,22.958v22.96h33.368V86.489
	C222.044,73.81,232.089,63.532,244.487,63.532z"/>
<g>
</g>
<g>
</g>
<g>
</g>
<g>
</g>
<g>
</g>
<g>
</g>
<g>
</g>
<g>
</g>
<g>
</g>
<g>
</g>
<g>
</g>
<g>
</g>
<g>
</g>
<g>
</g>
<g>
</g>
</svg>
