<?xml version="1.0" encoding="iso-8859-1"?>
<!-- Generator: Adobe Illustrator 19.0.0, SVG Export Plug-In . SVG Version: 6.00 Build 0)  -->
<svg version="1.1" id="Layer_1" xmlns="http://www.w3.org/2000/svg" xmlns:xlink="http://www.w3.org/1999/xlink" x="0px" y="0px"
	 viewBox="0 0 512 512" style="enable-background:new 0 0 512 512;" xml:space="preserve">
<g>
	<ellipse style="fill:#A67C52;" cx="423.854" cy="194.759" rx="54.112" ry="53.891"/>
	<ellipse style="fill:#A67C52;" cx="88.15" cy="194.759" rx="54.112" ry="53.891"/>
</g>
<path style="opacity:0.1;fill:#414042;enable-background:new    ;" d="M68.013,194.756c0-23.851,15.564-44.069,37.122-51.167
	c-5.344-1.76-11.053-2.725-16.99-2.725c-29.885,0-54.112,24.128-54.112,53.892s24.227,53.891,54.112,53.891
	c5.937,0,11.646-0.967,16.99-2.724C83.576,238.825,68.013,218.606,68.013,194.756z"/>
<ellipse style="fill:#C69C6D;" cx="256.002" cy="313.595" rx="198.541" ry="197.726"/>
<path style="opacity:0.1;fill:#414042;enable-background:new    ;" d="M89.863,313.591c0-103.772,80.267-188.862,182.339-197.074
	c-5.344-0.429-10.745-0.658-16.2-0.658c-109.651,0-198.54,88.528-198.54,197.731s88.889,197.732,198.54,197.732
	c5.455,0,10.857-0.229,16.2-0.658C170.13,502.452,89.863,417.363,89.863,313.591z"/>
<ellipse style="fill:#A67C52;" cx="256.002" cy="413.989" rx="98.408" ry="98.011"/>
<path style="fill:#D84F48;" d="M357.918,140.8C357.918,63.039,278.039,0,256.003,0c-19.283,0-101.915,63.039-101.915,140.8H357.918z
	"/>
<g>
	<ellipse style="fill:#636052;" cx="156.131" cy="290.816" rx="21.66" ry="21.573"/>
	<ellipse style="fill:#636052;" cx="355.873" cy="290.816" rx="21.66" ry="21.573"/>
</g>
<path style="fill:#896749;" d="M256.002,479.86c-4.465,0-8.083-3.62-8.083-8.084V371.111c0-4.465,3.618-8.083,8.083-8.083
	s8.083,3.618,8.083,8.083v100.664C264.085,476.24,260.467,479.86,256.002,479.86z"/>
<ellipse style="fill:#D84F48;" cx="256.002" cy="345.945" rx="37.898" ry="32.357"/>
<g>
	<path style="fill:#FFFFFF;" d="M335.112,67.661l-6.576,3.976l-19.192-11.6c-3.685-2.23-8.309-2.23-11.995,0l-19.186,11.6
		l-19.192-11.6c-3.687-2.231-8.312-2.229-11.996,0l-19.182,11.6l-19.186-11.6c-3.69-2.23-8.312-2.23-11.999,0l-19.184,11.6
		l-1.723-1.042c-4.004,6.526-7.626,13.385-10.72,20.518l6.444,3.894c3.685,2.23,8.311,2.23,11.998,0l19.185-11.6l19.187,11.6
		c3.688,2.23,8.311,2.228,11.999,0l19.181-11.6l19.19,11.6c3.686,2.23,8.312,2.23,11.999,0l19.186-11.6l19.192,11.6
		c3.687,2.23,8.309,2.23,11.996,0l11.489-6.945C342.846,80.957,339.16,74.136,335.112,67.661z"/>
	<path style="fill:#FFFFFF;" d="M252.973,28.452l19.19,11.598c3.686,2.23,8.312,2.23,11.999,0l19.055-11.174
		C284.08,10.766,265.106,0,256.003,0c-8.287,0-28.27,11.646-48.367,31.094l14.156,8.955c3.688,2.23,8.311,2.228,11.999,0
		L252.973,28.452z"/>
</g>
<path style="fill:#F1F2F2;" d="M385.955,141.025c0,13.899-11.314,25.166-25.27,25.166H151.318c-13.955,0-25.27-11.267-25.27-25.166
	l0,0c0-13.897,11.314-25.165,25.27-25.165h209.367C374.641,115.859,385.955,127.128,385.955,141.025L385.955,141.025z"/>
<path style="opacity:0.1;fill:#414042;enable-background:new    ;" d="M158.827,141.025c0-13.897,11.314-25.165,25.27-25.165h5.548
	c11.586-52.441,56.683-94.821,83.25-109.917C265.908,2.077,260.002,0,256.003,0c-17.173,0-84.586,49.995-99.137,115.859h-5.547
	c-13.955,0-25.27,11.268-25.27,25.165c0,13.899,11.314,25.166,25.27,25.166h32.777C170.141,166.191,158.827,154.924,158.827,141.025
	z"/>
<g>
</g>
<g>
</g>
<g>
</g>
<g>
</g>
<g>
</g>
<g>
</g>
<g>
</g>
<g>
</g>
<g>
</g>
<g>
</g>
<g>
</g>
<g>
</g>
<g>
</g>
<g>
</g>
<g>
</g>
</svg>
