<?xml version="1.0" encoding="iso-8859-1"?>
<!-- Generator: Adobe Illustrator 19.0.0, SVG Export Plug-In . SVG Version: 6.00 Build 0)  -->
<svg version="1.1" id="Layer_1" xmlns="http://www.w3.org/2000/svg" xmlns:xlink="http://www.w3.org/1999/xlink" x="0px" y="0px"
	 viewBox="0 0 512 512" style="enable-background:new 0 0 512 512;" xml:space="preserve">
<path style="fill:#F0D355;" d="M435.828,382.384V230.677c0-100.56-80.529-182.06-179.832-182.06
	c-99.323,0-179.825,81.501-179.825,182.06v151.707L435.828,382.384L435.828,382.384z"/>
<g style="opacity:0.1;">
	<path style="fill:#414042;" d="M277.857,49.959c-7.166-0.88-14.46-1.342-21.861-1.342c-99.323,0-179.825,81.501-179.825,182.06
		v151.707h43.726V230.677C119.897,137.612,188.849,60.881,277.857,49.959z"/>
</g>
<g>
	<path style="fill:#FFFFFF;" d="M404.486,303.593c-7.212,0-13.058-5.846-13.058-13.058v-48.448c0-32.837-10.41-63.963-30.106-90.009
		c-4.35-5.752-3.212-13.942,2.541-18.292c5.752-4.349,13.941-3.213,18.292,2.541c23.153,30.62,35.39,67.19,35.39,105.76v48.448
		C417.544,297.748,411.699,303.593,404.486,303.593z"/>
	<path style="fill:#FFFFFF;" d="M342.694,127.675c-2.823,0-5.666-0.911-8.057-2.79c-9.175-7.207-19.176-13.292-29.722-18.084
		c-6.567-2.982-9.471-10.724-6.488-17.29c2.982-6.567,10.724-9.471,17.29-6.488c12.446,5.654,24.239,12.828,35.054,21.324
		c5.671,4.455,6.658,12.663,2.202,18.336C350.396,125.962,346.564,127.675,342.694,127.675z"/>
	<path style="fill:#FFFFFF;" d="M261.558,48.711c-0.463-0.015-0.924-0.03-1.388-0.041C260.633,48.681,261.095,48.696,261.558,48.711
		z"/>
	<path style="fill:#FFFFFF;" d="M265.962,48.899c-0.543-0.028-1.085-0.055-1.63-0.079C264.875,48.844,265.419,48.87,265.962,48.899z
		"/>
	<path style="fill:#FFFFFF;" d="M270.168,49.178c-0.535-0.043-1.073-0.075-1.609-0.112
		C269.094,49.103,269.632,49.135,270.168,49.178z"/>
	<path style="fill:#FFFFFF;" d="M276.061,49.751c-0.749-0.084-1.498-0.171-2.25-0.247C274.563,49.58,275.311,49.668,276.061,49.751z
		"/>
	<path style="fill:#FFFFFF;" d="M280.13,50.253c-0.801-0.109-1.605-0.212-2.409-0.31C278.527,50.041,279.329,50.145,280.13,50.253z"
		/>
</g>
<g>
	<path style="fill:#ED5D51;" d="M147.466,93.509c-4.439,0-8.827-1.586-12.467-4.636c-5.191-4.352-8.247-11.166-8.247-18.393V23.038
		c0-7.235,3.057-14.039,8.247-18.397c3.64-3.037,8.028-4.64,12.467-4.64c1.921,0,3.839,0.298,5.712,0.902l74.37,23.717
		c8.875,2.834,14.997,11.864,14.997,22.143c0,10.263-6.122,19.302-14.997,22.137l-74.37,23.727
		C151.305,93.22,149.38,93.509,147.466,93.509z"/>
	<path style="fill:#ED5D51;" d="M364.532,93.509c4.448,0,8.83-1.586,12.467-4.636c5.191-4.352,8.249-11.166,8.249-18.393V23.038
		c0-7.235-3.058-14.039-8.249-18.397C373.362,1.604,368.98,0,364.532,0c-1.91,0-3.83,0.298-5.712,0.902l-74.37,23.717
		c-8.874,2.834-14.996,11.864-14.996,22.143c0,10.263,6.122,19.302,14.996,22.137l74.37,23.727
		C360.702,93.22,362.627,93.509,364.532,93.509z"/>
</g>
<path style="fill:#F0D355;" d="M310.335,456.552c0,30.618-24.322,55.448-54.334,55.448l0,0c-30.005,0-54.337-24.831-54.337-55.448
	l0,0c0-30.611,24.332-55.432,54.337-55.432l0,0C286.014,401.121,310.335,425.941,310.335,456.552L310.335,456.552z"/>
<g style="opacity:0.1;">
	<path style="fill:#414042;" d="M245.525,456.552c0-22.648,13.326-42.114,32.407-50.715c-6.709-3.025-14.125-4.718-21.932-4.718
		c-30.005,0-54.337,24.821-54.337,55.432C201.663,487.17,225.995,512,256,512c7.808,0,15.223-1.693,21.932-4.72
		C258.852,498.677,245.525,479.204,245.525,456.552z"/>
</g>
<path style="fill:#DAC04E;" d="M0.061,469.76h511.878v-49.034c-20.135-30.207-54.367-50.104-93.236-50.104H93.296
	c-38.869,0-73.1,19.897-93.235,50.104C0.061,420.726,0.061,469.76,0.061,469.76z"/>
<g style="opacity:0.1;">
	<path style="fill:#414042;" d="M136.127,370.621H93.296c-38.869,0-73.1,19.897-93.235,50.104v49.034h42.831v-49.034
		C63.026,390.519,97.257,370.621,136.127,370.621z"/>
</g>
<path style="fill:#D84F48;" d="M282.98,15.731c15.078,15.078,15.229,39.378,0.328,54.279c-14.894,14.895-39.204,14.751-54.282-0.325
	c-15.086-15.09-15.234-39.405-0.342-54.298C243.586,0.486,267.893,0.645,282.98,15.731z"/>
<g>
</g>
<g>
</g>
<g>
</g>
<g>
</g>
<g>
</g>
<g>
</g>
<g>
</g>
<g>
</g>
<g>
</g>
<g>
</g>
<g>
</g>
<g>
</g>
<g>
</g>
<g>
</g>
<g>
</g>
</svg>
