<?xml version="1.0" encoding="iso-8859-1"?>
<!-- Generator: Adobe Illustrator 19.0.0, SVG Export Plug-In . SVG Version: 6.00 Build 0)  -->
<svg version="1.1" id="Layer_1" xmlns="http://www.w3.org/2000/svg" xmlns:xlink="http://www.w3.org/1999/xlink" x="0px" y="0px"
	 viewBox="0 0 512 512" style="enable-background:new 0 0 512 512;" xml:space="preserve">
<polygon style="fill:#ED5D51;" points="316.741,210.235 195.261,210.235 17.695,402.038 88.36,415.738 101.041,492.066 256,324.686 
	410.958,492.066 423.639,415.738 494.305,402.038 "/>
<g style="opacity:0.2;">
	<polygon style="fill:#414042;" points="61.979,406.905 243.855,210.235 195.261,210.235 17.695,402.038 	"/>
</g>
<path style="fill:#00B494;" d="M497.501,24.482c-4.873-3.023-10.399-4.548-15.939-4.548c-4.701,0-9.413,1.098-13.744,3.309
	L256,131.395L44.18,23.243c-4.331-2.211-9.04-3.309-13.742-3.309c-5.539,0-11.067,1.526-15.94,4.548C5.489,30.068,0,39.973,0,50.643
	v238.496c0,10.669,5.489,20.575,14.498,26.162c4.874,3.023,10.4,4.548,15.94,4.548c4.7,0,9.411-1.098,13.742-3.31L256,208.387
	l211.819,108.151c4.331,2.211,9.042,3.31,13.744,3.31c5.539,0,11.065-1.526,15.939-4.548C506.51,309.713,512,299.808,512,289.138
	V50.643C512,39.973,506.51,30.068,497.501,24.482z"/>
<g style="opacity:0.2;">
	<path style="fill:#414042;" d="M43.655,289.138V50.643c0-8.693,3.645-16.875,9.866-22.631l-9.339-4.769
		c-4.331-2.211-9.04-3.309-13.742-3.309c-5.539,0-11.067,1.526-15.94,4.548C5.489,30.068,0,39.973,0,50.643v238.496
		c0,10.669,5.489,20.575,14.498,26.162c4.874,3.023,10.4,4.548,15.94,4.548c4.7,0,9.411-1.098,13.742-3.31l9.339-4.769
		C47.299,306.014,43.655,297.83,43.655,289.138z"/>
</g>
<path style="fill:#007F67;" d="M416.641,181.155H95.359c-4.328,0-7.837-3.509-7.837-7.837c0-4.328,3.509-7.837,7.837-7.837h321.282
	c4.329,0,7.837,3.509,7.837,7.837C424.477,177.646,420.97,181.155,416.641,181.155z"/>
<path style="fill:#D84F48;" d="M336.199,236.41c0,22.621-18.258,40.96-40.778,40.96H216.58c-22.522,0-40.779-18.339-40.779-40.96
	V105.336c0-22.621,18.257-40.96,40.779-40.96h78.841c22.522,0,40.778,18.339,40.778,40.96V236.41z"/>
<path style="opacity:0.2;fill:#414042;enable-background:new    ;" d="M220.638,236.41V105.336c0-22.621,18.259-40.96,40.778-40.96
	h-44.837c-22.522,0-40.779,18.339-40.779,40.96V236.41c0,22.621,18.257,40.96,40.779,40.96h44.837
	C238.896,277.37,220.638,259.031,220.638,236.41z"/>
<g>
</g>
<g>
</g>
<g>
</g>
<g>
</g>
<g>
</g>
<g>
</g>
<g>
</g>
<g>
</g>
<g>
</g>
<g>
</g>
<g>
</g>
<g>
</g>
<g>
</g>
<g>
</g>
<g>
</g>
</svg>
