<?xml version="1.0" encoding="iso-8859-1"?>
<!-- Generator: Adobe Illustrator 19.0.0, SVG Export Plug-In . SVG Version: 6.00 Build 0)  -->
<svg version="1.1" id="Layer_1" xmlns="http://www.w3.org/2000/svg" xmlns:xlink="http://www.w3.org/1999/xlink" x="0px" y="0px"
	 viewBox="0 0 512 512" style="enable-background:new 0 0 512 512;" xml:space="preserve">
<path style="fill:#FFE2C5;" d="M70.104,178.636v154.137C70.104,431.756,150.908,512,250.586,512h10.826
	c99.679,0,180.485-80.244,180.485-179.227V178.636H70.104z"/>
<path style="opacity:0.1;fill:#414042;enable-background:new    ;" d="M114.875,332.773V178.636H70.104v154.137
	C70.104,431.756,150.908,512,250.586,512h10.826c5.725,0,11.383-0.277,16.973-0.795
	C186.668,502.708,114.875,426.071,114.875,332.773z"/>
<path style="fill:#00997C;" d="M461.183,233.468v-29.765C446.44,95.967,369.32,0,255.999,0S67.001,93.101,50.816,203.703v29.764
	h410.367V233.468z"/>
<path style="fill:#FFFFFF;" d="M383.25,49.41l-10.414,6.432L340.964,36.16c-4.336-2.682-9.821-2.68-14.159,0l-31.871,19.683
	L263.064,36.16c-4.338-2.68-9.822-2.68-14.161,0l-31.867,19.683L185.172,36.16c-4.341-2.68-9.822-2.68-14.161,0l-31.871,19.683
	l-10.738-6.634c-6.781,6.149-13.175,12.778-19.172,19.832l22.831,14.102c4.338,2.68,9.82,2.68,14.159,0l31.871-19.683l31.861,19.683
	c4.341,2.68,9.822,2.68,14.161,0l31.869-19.683l31.869,19.683c2.169,1.341,4.625,2.011,7.081,2.011c2.453,0,4.91-0.671,7.079-2.011
	l31.871-19.683l31.869,19.683c4.34,2.68,9.822,2.68,14.161,0l22.588-13.95C396.483,62.166,390.057,55.557,383.25,49.41z"/>
<g>
	<path style="fill:#008269;" d="M212.968,119.651h-12.817l9.063-8.942c2.433-2.4,2.433-6.294,0-8.695
		c-2.435-2.402-6.379-2.402-8.813,0l-9.063,8.941V98.309c0-3.396-2.79-6.149-6.231-6.149c-3.441,0-6.233,2.753-6.233,6.149v12.646
		l-9.061-8.941c-2.435-2.402-6.379-2.402-8.815,0c-2.433,2.4-2.433,6.294,0,8.697l9.061,8.94h-12.815
		c-3.443,0-6.231,2.751-6.231,6.147c0,3.396,2.788,6.147,6.231,6.147h12.817l-9.063,8.942c-2.433,2.402-2.433,6.297,0,8.697
		c1.218,1.197,2.81,1.8,4.408,1.8c1.593,0,3.19-0.602,4.406-1.8l9.061-8.941v12.641c0,3.396,2.792,6.15,6.233,6.15
		c3.441,0,6.231-2.754,6.231-6.15v-12.641l9.063,8.941c1.214,1.197,2.81,1.8,4.406,1.8c1.593,0,3.19-0.602,4.406-1.8
		c2.433-2.4,2.433-6.294,0-8.697l-9.063-8.942h12.817c3.443,0,6.233-2.751,6.233-6.147
		C219.201,122.402,216.411,119.651,212.968,119.651z"/>
	<path style="fill:#008269;" d="M354.749,119.651h-12.815l9.063-8.942c2.435-2.4,2.435-6.294,0-8.695
		c-2.43-2.402-6.379-2.402-8.813,0l-9.063,8.942V98.309c0-3.396-2.788-6.149-6.231-6.149s-6.231,2.753-6.231,6.149v12.646
		l-9.061-8.941c-2.435-2.402-6.381-2.402-8.817,0c-2.433,2.4-2.433,6.294,0,8.697l9.061,8.94h-12.815
		c-3.443,0-6.231,2.751-6.231,6.147c0,3.396,2.788,6.147,6.231,6.147h12.817l-9.063,8.942c-2.433,2.402-2.433,6.297,0,8.697
		c1.218,1.197,2.812,1.8,4.408,1.8c1.593,0,3.19-0.602,4.408-1.8l9.061-8.942v12.642c0,3.396,2.788,6.15,6.231,6.15
		s6.231-2.754,6.231-6.15v-12.642l9.063,8.942c1.216,1.197,2.811,1.8,4.408,1.8c1.593,0,3.19-0.602,4.404-1.8
		c2.435-2.4,2.435-6.294,0-8.697l-9.063-8.942h12.815c3.445,0,6.233-2.751,6.233-6.147
		C360.981,122.402,358.194,119.651,354.749,119.651z"/>
</g>
<g>
	<polygon style="fill:#FFFFFF;" points="115.987,151.027 98.295,133.572 115.987,116.116 133.68,133.572 	"/>
	<polygon style="fill:#FFFFFF;" points="255.999,151.027 238.307,133.572 255.999,116.116 273.692,133.572 	"/>
	<polygon style="fill:#FFFFFF;" points="396.012,151.027 378.32,133.572 396.012,116.116 413.706,133.572 	"/>
</g>
<g>
	<path style="fill:#ED5D51;" d="M84.557,356.584c0,18.8-15.353,34.04-34.289,34.04l0,0c-18.937,0-34.287-15.24-34.287-34.04v-65.463
		c0-18.8,15.351-34.043,34.287-34.043l0,0c18.937,0,34.289,15.243,34.289,34.043V356.584z"/>
	<path style="fill:#ED5D51;" d="M496.02,356.584c0,18.8-15.351,34.04-34.287,34.04l0,0c-18.937,0-34.288-15.24-34.288-34.04v-65.463
		c0-18.8,15.351-34.043,34.288-34.043l0,0c18.937,0,34.287,15.243,34.287,34.043V356.584z"/>
</g>
<g>
	<path style="fill:#636052;" d="M196.34,327.392c0,12.063-9.82,21.841-21.935,21.841l0,0c-12.115,0-21.932-9.778-21.932-21.842l0,0
		c0-12.061,9.818-21.843,21.932-21.843l0,0C186.52,305.549,196.34,315.33,196.34,327.392L196.34,327.392z"/>
	<path style="fill:#636052;" d="M355.65,326.345c0,12.063-9.818,21.843-21.932,21.843l0,0c-12.11,0-21.935-9.779-21.935-21.843l0,0
		c0-12.061,9.824-21.839,21.935-21.839l0,0C345.832,304.505,355.65,314.283,355.65,326.345L355.65,326.345z"/>
	<path style="fill:#636052;" d="M255.999,436.786c-29.366,0-53.257-23.707-53.257-52.843c0-4.465,3.621-8.083,8.085-8.083
		c4.465,0,8.083,3.618,8.083,8.083c0,20.222,16.637,36.674,37.088,36.674s37.088-16.451,37.088-36.674
		c0-4.465,3.621-8.083,8.085-8.083c4.465,0,8.083,3.618,8.083,8.083C309.257,413.079,285.366,436.786,255.999,436.786z"/>
</g>
<g>
	<path style="fill:#FFC197;" d="M166.202,380.295c0,14.987-12.265,27.139-27.392,27.139c-15.129,0-27.392-12.152-27.392-27.139
		c0-14.992,12.263-27.139,27.392-27.139C153.936,353.156,166.202,365.303,166.202,380.295z"/>
	<path style="fill:#FFC197;" d="M400.581,380.295c0,14.987-12.263,27.139-27.392,27.139c-15.127,0-27.39-12.152-27.39-27.139
		c0-14.992,12.263-27.139,27.39-27.139C388.318,353.156,400.581,365.303,400.581,380.295z"/>
</g>
<path style="fill:#00B494;" d="M86.875,268.42c-30.972,0-56.17-25.017-56.17-55.766c0-13.389,10.933-24.245,24.422-24.245h401.742
	c13.49,0,24.424,10.855,24.424,24.245c0,30.749-25.198,55.766-56.174,55.766H86.875z"/>
<g>
	<path style="opacity:0.1;fill:#414042;enable-background:new    ;" d="M81.473,213.979c0-12.434,9.729-22.606,22.043-23.44
		c18.57-93.37,81.56-170.78,174.269-181.437c-7.098-0.825-14.36-1.265-21.786-1.265c-104.769,0-176.345,82.093-196.355,182.702
		c-12.314,0.834-22.043,11.005-22.043,23.44c0,29.808,24.427,54.059,54.451,54.059h43.871
		C105.9,268.039,81.473,243.788,81.473,213.979z"/>
	<path style="opacity:0.1;fill:#414042;enable-background:new    ;" d="M55.775,353.505v-63.46c0-12.374,6.864-23.151,17.014-28.801
		c-4.8-2.671-10.331-4.201-16.224-4.201c-18.357,0-33.239,14.776-33.239,33v63.46c0,18.224,14.881,32.998,33.239,32.998
		c5.894,0,11.425-1.53,16.224-4.201C62.639,376.654,55.775,365.877,55.775,353.505z"/>
</g>
<g>
</g>
<g>
</g>
<g>
</g>
<g>
</g>
<g>
</g>
<g>
</g>
<g>
</g>
<g>
</g>
<g>
</g>
<g>
</g>
<g>
</g>
<g>
</g>
<g>
</g>
<g>
</g>
<g>
</g>
</svg>
