<?xml version="1.0" encoding="iso-8859-1"?>
<!-- Generator: Adobe Illustrator 19.0.0, SVG Export Plug-In . SVG Version: 6.00 Build 0)  -->
<svg version="1.1" id="Layer_1" xmlns="http://www.w3.org/2000/svg" xmlns:xlink="http://www.w3.org/1999/xlink" x="0px" y="0px"
	 viewBox="0 0 512 512" style="enable-background:new 0 0 512 512;" xml:space="preserve">
<path style="fill:#F47973;" d="M454.983,469.116c9.284-9.883,14.987-23.211,14.987-37.889V252.934
	c0-30.463-24.52-55.156-54.766-55.156H96.796c-30.247,0-54.766,24.693-54.766,55.156v178.293c0,14.678,5.703,28.006,14.987,37.889
	L454.983,469.116L454.983,469.116z"/>
<path style="fill:#ED5D51;" d="M304.636,123.708c1.902-7.223,2.947-14.991,2.947-23.088c0-38.255-33.114-69.268-50.945-69.268
	c-19.105,0-52.219,31.014-52.219,69.268c0,8.097,1.045,15.865,2.947,23.088H304.636z"/>
<path style="fill:#E4E6E5;" d="M340.038,162.442c1.91-4.398,2.976-9.254,2.976-14.364c0-19.835-15.966-35.915-35.661-35.915
	c-10.087,0-19.19,4.226-25.675,11.004c-6.488-6.778-15.589-11.004-25.677-11.004s-19.19,4.226-25.677,11.004
	c-6.487-6.778-15.588-11.004-25.675-11.004c-19.696,0-35.661,16.08-35.661,35.915c0,5.111,1.066,9.966,2.976,14.364H340.038z"/>
<path style="fill:#00B494;" d="M512,461.408c0,10.626-8.554,19.241-19.105,19.241H19.104C8.554,480.649,0,472.034,0,461.408l0,0
	c0-10.628,8.554-19.24,19.104-19.24h473.791C503.446,442.168,512,450.78,512,461.408L512,461.408z"/>
<g>
	<path style="fill:#D84F48;" d="M227.98,85.225c0,5.313-4.277,9.62-9.552,9.62l0,0c-5.276,0-9.552-4.307-9.552-9.62l0,0
		c0-5.314,4.277-9.619,9.552-9.619l0,0C223.703,75.606,227.98,79.912,227.98,85.225L227.98,85.225z"/>
	<path style="fill:#D84F48;" d="M265.552,85.225c0,5.313-4.277,9.62-9.552,9.62l0,0c-5.276,0-9.552-4.307-9.552-9.62l0,0
		c0-5.314,4.277-9.619,9.552-9.619l0,0C261.276,75.606,265.552,79.912,265.552,85.225L265.552,85.225z"/>
	<path style="fill:#D84F48;" d="M303.124,85.225c0,5.313-4.277,9.62-9.552,9.62l0,0c-5.275,0-9.552-4.307-9.552-9.62l0,0
		c0-5.314,4.277-9.619,9.552-9.619l0,0C298.847,75.606,303.124,79.912,303.124,85.225L303.124,85.225z"/>
	<path style="fill:#D84F48;" d="M250.905,58.93c0,5.313-4.276,9.62-9.552,9.62l0,0c-5.275,0-9.552-4.307-9.552-9.62l0,0
		c0-5.314,4.277-9.621,9.552-9.621l0,0C246.629,49.309,250.905,53.617,250.905,58.93L250.905,58.93z"/>
	<path style="fill:#D84F48;" d="M280.199,58.93c0,5.313-4.277,9.62-9.552,9.62l0,0c-5.276,0-9.552-4.307-9.552-9.62l0,0
		c0-5.314,4.276-9.621,9.552-9.621l0,0C275.922,49.309,280.199,53.617,280.199,58.93L280.199,58.93z"/>
</g>
<rect x="42.026" y="305.831" style="fill:#F1F2F2;" width="427.938" height="97.489"/>
<g>
	<path style="fill:#ED5D51;" d="M168.69,354.575c0,8.632-6.997,15.63-15.629,15.63H87.31c-8.632,0-15.63-6.998-15.63-15.63l0,0
		c0-8.632,6.998-15.63,15.63-15.63h65.751C161.694,338.945,168.69,345.943,168.69,354.575L168.69,354.575z"/>
	<path style="fill:#ED5D51;" d="M304.505,354.575c0,8.632-6.998,15.63-15.629,15.63h-65.752c-8.632,0-15.63-6.998-15.63-15.63l0,0
		c0-8.632,6.997-15.63,15.63-15.63h65.752C297.508,338.945,304.505,345.943,304.505,354.575L304.505,354.575z"/>
	<path style="fill:#ED5D51;" d="M440.32,354.575c0,8.632-6.998,15.63-15.63,15.63h-65.751c-8.632,0-15.63-6.998-15.63-15.63l0,0
		c0-8.632,6.997-15.63,15.63-15.63h65.751C433.322,338.945,440.32,345.943,440.32,354.575L440.32,354.575z"/>
</g>
<path style="fill:#F1F2F2;" d="M484.9,202.022c-4.568-31.246-31.468-55.24-63.981-55.24H91.083
	c-32.513,0-59.413,23.994-63.981,55.24c-0.45,2.338-0.693,4.753-0.693,7.224v26.313c0,20.826,16.718,37.711,37.343,37.711
	c13.61,0,25.515-7.356,32.042-18.343c6.526,10.987,18.431,18.343,32.041,18.343c13.61,0,25.515-7.356,32.042-18.343
	c6.526,10.987,18.432,18.343,32.041,18.343c13.61,0,25.515-7.356,32.042-18.343c6.526,10.987,18.432,18.343,32.042,18.343
	c13.61,0,25.515-7.356,32.042-18.343c6.526,10.987,18.432,18.343,32.042,18.343c13.61,0,25.515-7.356,32.042-18.343
	c6.526,10.987,18.432,18.343,32.042,18.343s25.514-7.356,32.041-18.343c6.526,10.987,18.432,18.343,32.042,18.343
	c20.623,0,37.343-16.886,37.343-37.711v-26.313C485.591,206.775,485.349,204.36,484.9,202.022z"/>
<path style="opacity:0.1;fill:#414042;enable-background:new    ;" d="M43.655,461.408c0-10.628,8.555-19.24,19.105-19.24H86.77
	c-0.708-3.537-1.085-7.194-1.085-10.941V266.223c-9.454-6.843-15.621-18.024-15.621-30.666v-26.313c0-2.471,0.242-4.886,0.693-7.224
	c4.568-31.246,31.468-55.24,63.981-55.24H91.083c-32.513,0-59.413,23.994-63.981,55.24c-0.45,2.339-0.693,4.753-0.693,7.224v26.313
	c0,12.641,6.167,23.823,15.621,30.666v165.004c0,3.747,0.376,7.404,1.085,10.941H19.104C8.554,442.168,0,450.78,0,461.408
	c0,10.626,8.554,19.241,19.104,19.241h43.655C52.208,480.649,43.655,472.034,43.655,461.408z"/>
<g>
</g>
<g>
</g>
<g>
</g>
<g>
</g>
<g>
</g>
<g>
</g>
<g>
</g>
<g>
</g>
<g>
</g>
<g>
</g>
<g>
</g>
<g>
</g>
<g>
</g>
<g>
</g>
<g>
</g>
</svg>
