<?xml version="1.0" encoding="iso-8859-1"?>
<!-- Generator: Adobe Illustrator 19.0.0, SVG Export Plug-In . SVG Version: 6.00 Build 0)  -->
<svg version="1.1" id="Layer_1" xmlns="http://www.w3.org/2000/svg" xmlns:xlink="http://www.w3.org/1999/xlink" x="0px" y="0px"
	 viewBox="0 0 512 512" style="enable-background:new 0 0 512 512;" xml:space="preserve">
<path style="fill:#F1F2F2;" d="M73.927,501.358c-14.262-14.19-14.262-37.195,0-51.384l285.807-284.327
	c21.362-21.25,21.362-55.827,0-77.077c-21.36-21.25-56.116-21.25-77.477,0l-57.678,57.38c-14.262,14.19-37.387,14.19-51.651,0
	s-14.263-37.195,0-51.384l57.678-57.378c49.841-49.584,130.94-49.584,180.782,0s49.842,130.261,0,179.845L125.58,501.358
	C111.316,515.547,88.19,515.547,73.927,501.358z"/>
<g>
	<polygon style="fill:#ED5D51;" points="101.574,422.471 183.047,444.189 208.168,419.198 126.694,397.481 	"/>
	<polygon style="fill:#ED5D51;" points="204.877,319.703 286.351,341.42 311.471,316.429 229.999,294.711 	"/>
	<polygon style="fill:#ED5D51;" points="153.226,371.087 234.699,392.804 259.819,367.814 178.346,346.097 	"/>
	<path style="fill:#ED5D51;" d="M73.927,449.974c-14.262,14.189-14.262,37.195,0,51.384c14.263,14.189,37.389,14.189,51.652,0
		l30.935-30.775l-81.473-21.717L73.927,449.974z"/>
	<path style="fill:#ED5D51;" d="M308.181,216.933l81.474,21.718l21.733-21.62c1.12-1.116,2.208-2.252,3.28-3.399l-81.366-21.689
		L308.181,216.933z"/>
	<polygon style="fill:#ED5D51;" points="256.53,268.318 338.002,290.035 363.124,265.044 281.652,243.327 	"/>
	<path style="fill:#ED5D51;" d="M303.622,1.177c-26.602,3.601-52.273,15.507-72.728,35.729l81.854,23.42L303.622,1.177z"/>
	<path style="fill:#ED5D51;" d="M421.337,48.323l-52.487,52.273c2.352,4.207,4.112,8.655,5.259,13.228h73.958
		C445.624,90.471,436.712,67.673,421.337,48.323z"/>
	<path style="fill:#ED5D51;" d="M398.187,25.742c-18.466-13.936-39.897-22.22-61.888-24.835l11.566,74.951L398.187,25.742z"/>
	<path style="fill:#ED5D51;" d="M177.344,90.172l81.473,21.718l23.441-23.319c0.895-0.89,1.82-1.729,2.762-2.544l-80.387-23
		L177.344,90.172z"/>
	<path style="fill:#ED5D51;" d="M372.306,146.161c-2.64,7.071-6.792,13.704-12.476,19.388l74.745,19.924
		c6.455-12.451,10.708-25.746,12.757-39.312H372.306z"/>
	<path style="fill:#ED5D51;" d="M172.927,145.95c14.263,14.19,37.389,14.19,51.651,0l7.706-7.666l-70.038-18.67
		C162.077,129.126,165.632,138.692,172.927,145.95z"/>
</g>
<g style="opacity:0.1;">
	<path style="fill:#414042;" d="M107.518,472.071l285.806-284.326c21.362-21.25,21.362-55.827,0-77.077
		c-7.791-7.751-17.366-12.661-27.421-14.758c14.928,21.245,12.883,50.786-6.168,69.736L73.927,449.974
		c-14.262,14.189-14.262,37.195,0,51.384c7.128,7.092,16.471,10.638,25.813,10.641C94.08,498.763,96.667,482.867,107.518,472.071z"
		/>
	<path style="fill:#414042;" d="M198.74,156.592c-5.661-13.238-3.075-29.134,7.776-39.929l57.678-57.38
		c38.659-38.456,96.117-47.078,143.211-25.88c-50.088-45.758-128.263-44.502-176.8,3.784l-57.678,57.378
		c-14.263,14.19-14.263,37.195,0,51.384C180.055,153.042,189.398,156.589,198.74,156.592z"/>
</g>
<g>
</g>
<g>
</g>
<g>
</g>
<g>
</g>
<g>
</g>
<g>
</g>
<g>
</g>
<g>
</g>
<g>
</g>
<g>
</g>
<g>
</g>
<g>
</g>
<g>
</g>
<g>
</g>
<g>
</g>
</svg>
