<?xml version="1.0" encoding="iso-8859-1"?>
<!-- Generator: Adobe Illustrator 19.0.0, SVG Export Plug-In . SVG Version: 6.00 Build 0)  -->
<svg version="1.1" id="Layer_1" xmlns="http://www.w3.org/2000/svg" xmlns:xlink="http://www.w3.org/1999/xlink" x="0px" y="0px"
	 viewBox="0 0 512 512" style="enable-background:new 0 0 512 512;" xml:space="preserve">
<path style="fill:#00B494;" d="M512,133.104c0.038-13.995-11.443-25.312-25.638-25.275l-43.918,0.109L457.6,92.996
	c10.064-9.922,10.105-25.965,0.091-35.836c-10.014-9.871-26.286-9.831-36.349,0.089l-15.157,14.943l0.107-43.298
	c0.04-13.996-11.436-25.314-25.634-25.274c-14.196,0.033-25.731,11.406-25.767,25.401l-10.772,79.773l61.448,60.579l80.667-10.864
	C500.428,158.474,511.965,147.1,512,133.104z"/>
<path style="opacity:0.2;fill:#414042;enable-background:new    ;" d="M366.538,119.727l10.771-79.773
	c0.036-13.579,10.896-24.688,24.508-25.367C397.202,7.946,389.46,3.595,380.655,3.62c-14.196,0.033-25.731,11.406-25.767,25.401
	l-10.772,79.773L366.538,119.727z"/>
<path style="fill:#00B494;" d="M0,378.896c-0.037,13.993,11.444,25.311,25.638,25.275l43.918-0.108l-15.153,14.941
	c-10.065,9.922-10.105,25.965-0.092,35.835c10.014,9.872,26.286,9.832,36.349-0.088l15.157-14.944l-0.108,43.3
	c-0.038,13.996,11.44,25.314,25.636,25.274c14.197-0.032,25.733-11.406,25.766-25.403l10.772-79.772l-61.448-60.579l-80.667,10.864
	C11.572,353.527,0.036,364.9,0,378.896z"/>
<g style="opacity:0.2;">
	<path style="fill:#414042;" d="M22.365,402.456c0.036-13.996,11.572-25.369,25.768-25.405l80.667-10.864l-22.365-23.56
		l-80.667,10.864C11.572,353.527,0.036,364.9,0,378.896c-0.033,12.914,9.745,23.542,22.411,25.078
		C22.382,403.471,22.364,402.966,22.365,402.456z"/>
</g>
<path id="SVGCleanerId_0" style="fill:#ED5D51;" d="M394.466,149.109c26.058,25.69,26.058,67.344,0,93.033L241.943,392.51
	c-26.058,25.69-68.307,25.69-94.366,0l-30.722-30.29c-26.059-25.691-26.059-67.343-0.002-93.034l152.522-150.368
	c26.059-25.69,68.309-25.69,94.368,0L394.466,149.109z"/>
<g>
	<path id="SVGCleanerId_0_1_" style="fill:#ED5D51;" d="M394.466,149.109c26.058,25.69,26.058,67.344,0,93.033L241.943,392.51
		c-26.058,25.69-68.307,25.69-94.366,0l-30.722-30.29c-26.059-25.691-26.059-67.343-0.002-93.034l152.522-150.368
		c26.059-25.69,68.309-25.69,94.368,0L394.466,149.109z"/>
</g>
<g>
	<path style="fill:#FFFFFF;" d="M267.775,367.043l23.876-23.539V104.293c-8.108,3.21-15.707,8.049-22.276,14.525l-1.6,1.578V367.043
		z"/>
	<path style="fill:#FFFFFF;" d="M345.273,105.948c-7.569-3.556-15.673-5.621-23.871-6.205v214.431l23.871-23.532V105.948z"/>
	<path style="fill:#FFFFFF;" d="M184.745,202.253l-23.859,23.522v176.915c7.445,4.328,15.559,7.104,23.862,8.339L184.745,202.253z"
		/>
	<path style="fill:#FFFFFF;" d="M394.466,149.109l-19.442-19.17v131.37l19.442-19.168
		C420.522,216.453,420.522,174.799,394.466,149.109z"/>
	<path style="fill:#FFFFFF;" d="M238.025,395.559V149.726l-23.536,23.204c0,0.059,0.009,0.114,0.009,0.172l0.002,235.729
		c8.45-2.571,16.478-6.842,23.55-12.799C238.044,395.873,238.025,395.719,238.025,395.559z"/>
	<path style="fill:#FFFFFF;" d="M131.136,255.105l-14.283,14.082c-26.058,25.691-26.058,67.343,0.002,93.034l14.281,14.08V255.105z"
		/>
</g>
<path style="opacity:0.2;fill:#414042;enable-background:new    ;" d="M150.508,384.295c-26.059-25.691-26.059-67.342-0.002-93.034
	l152.523-150.367c17.965-17.71,43.627-23.207,66.372-16.498l-5.658-5.578c-26.059-25.69-68.308-25.69-94.368,0L116.853,269.186
	c-26.058,25.691-26.058,67.343,0.002,93.034l30.722,30.289c8.094,7.98,17.75,13.475,27.996,16.498L150.508,384.295z"/>
<g>
</g>
<g>
</g>
<g>
</g>
<g>
</g>
<g>
</g>
<g>
</g>
<g>
</g>
<g>
</g>
<g>
</g>
<g>
</g>
<g>
</g>
<g>
</g>
<g>
</g>
<g>
</g>
<g>
</g>
</svg>
