<?xml version="1.0" encoding="iso-8859-1"?>
<!-- Generator: Adobe Illustrator 19.0.0, SVG Export Plug-In . SVG Version: 6.00 Build 0)  -->
<svg version="1.1" id="Layer_1" xmlns="http://www.w3.org/2000/svg" xmlns:xlink="http://www.w3.org/1999/xlink" x="0px" y="0px"
	 viewBox="0 0 512 512" style="enable-background:new 0 0 512 512;" xml:space="preserve">
<path style="fill:#F0D355;" d="M326.45,120.854c0-46.262-29.275-85.726-70.45-101.229c-41.175,15.503-70.45,54.967-70.45,101.229
	c0,1.62,0,7.457,0,8.784c0,38.401,31.541,69.532,70.45,69.532c38.907,0,70.45-31.131,70.45-69.532
	C326.45,128.31,326.45,122.472,326.45,120.854z"/>
<ellipse style="fill:#FFEDA1;" cx="256" cy="146.913" rx="40.587" ry="40.242"/>
<path style="opacity:0.1;fill:#414042;enable-background:new    ;" d="M219.351,129.638c0-1.328,0-7.165,0-8.784
	c0-39.636,21.499-74.265,53.55-93.127c-5.358-3.154-11.003-5.882-16.9-8.102c-41.175,15.503-70.45,54.967-70.45,101.229
	c0,1.62,0,7.457,0,8.784c0,38.401,31.541,69.532,70.45,69.532c5.827,0,11.484-0.712,16.9-2.027
	C242.157,189.668,219.351,162.288,219.351,129.638z"/>
<path style="fill:#ED5D51;" d="M374.113,460.274V204.841c0-15.585-12.741-28.22-28.461-28.22H166.348
	c-15.718,0-28.461,12.635-28.461,28.22v255.434H374.113z"/>
<path style="opacity:0.1;fill:#414042;enable-background:new    ;" d="M200.217,176.621h-33.869
	c-15.718,0-28.461,12.635-28.461,28.22v255.434h33.87V204.841C171.756,189.256,184.499,176.621,200.217,176.621z"/>
<path style="fill:#D84F48;" d="M345.652,176.621H166.348c-15.718,0-28.461,12.635-28.461,28.22v76.307
	c0,23.174,19.106,41.96,42.673,41.96s42.672-18.786,42.672-41.96v-14.969c7.825,8.953,19.418,14.636,32.368,14.636
	c14.136,0,26.662-6.765,34.426-17.176c4.605,18.287,21.394,31.846,41.416,31.846c23.568,0,42.672-18.787,42.672-41.96v-48.684
	C374.113,189.256,361.372,176.621,345.652,176.621z"/>
<g style="opacity:0.1;">
	<path style="fill:#414042;" d="M214.429,300.638c-23.567,0-42.673-18.787-42.673-41.96v-76.307c0-1.972,0.206-3.894,0.592-5.75
		h-6.001c-15.718,0-28.461,12.635-28.461,28.22v76.307c0,23.174,19.106,41.96,42.673,41.96c16.487,0,30.781-9.201,37.887-22.66
		C217.122,300.568,215.784,300.638,214.429,300.638z"/>
</g>
<path style="fill:#00B494;" d="M512,424.022c0-47.091-38.641-85.404-86.137-85.404s-86.138,38.312-86.138,85.404
	c0,1.362,0.044,2.713,0.109,4.057H0c4.198,36.189,35.184,64.296,72.807,64.296h366.384c35.311,0,64.772-24.758,71.732-57.716
	c0.694-2.071,1.076-4.28,1.076-6.58V424.022z M382.229,428.079c-0.128-1.336-0.209-2.686-0.209-4.057
	c0-23.969,19.668-43.469,43.843-43.469c24.176,0,43.842,19.5,43.842,43.469v4.057H382.229z"/>
<g style="opacity:0.1;">
	<path style="fill:#414042;" d="M65.213,428.079H0c4.198,36.189,35.184,64.296,72.807,64.296h65.213
		C100.397,492.375,69.412,464.268,65.213,428.079z"/>
</g>
<g>
</g>
<g>
</g>
<g>
</g>
<g>
</g>
<g>
</g>
<g>
</g>
<g>
</g>
<g>
</g>
<g>
</g>
<g>
</g>
<g>
</g>
<g>
</g>
<g>
</g>
<g>
</g>
<g>
</g>
</svg>
