<?xml version="1.0" encoding="iso-8859-1"?>
<!-- Generator: Adobe Illustrator 19.0.0, SVG Export Plug-In . SVG Version: 6.00 Build 0)  -->
<svg version="1.1" id="Layer_1" xmlns="http://www.w3.org/2000/svg" xmlns:xlink="http://www.w3.org/1999/xlink" x="0px" y="0px"
	 viewBox="0 0 512.001 512.001" style="enable-background:new 0 0 512.001 512.001;" xml:space="preserve">
<path style="fill:#00B494;" d="M427.557,280.152c1.019-0.551-55.4-88.807-65.661-227.996H294.32
	c-10.598,133.816-66.545,227.447-65.531,227.996c-26.056,39.535-36.796,75.627-36.796,113.41v90.895
	c0,15.212,11.725,27.545,26.189,27.545h219.979c14.464,0,26.189-12.333,26.189-27.545v-90.896
	C464.352,355.778,450.617,318.198,427.557,280.152z"/>
<g>
	<path style="fill:#F0D355;" d="M372.186,126.458l-44.014,25.029l-44.61-25.368c-3.739,17.697-8.061,34.214-12.61,49.364
		l57.221,32.54l56.401-32.073C380.083,160.862,375.838,144.318,372.186,126.458z"/>
	<polygon style="fill:#F0D355;" points="429.597,470.555 429.597,470.555 226.748,470.555 226.748,470.555 226.748,388.594 
		226.748,388.594 429.597,388.594 429.597,388.594 	"/>
</g>
<ellipse style="fill:#D84F48;" cx="328.172" cy="384.46" rx="43.833" ry="43.217"/>
<path style="opacity:0.1;fill:#414042;enable-background:new    ;" d="M225.96,484.455v-90.895
	c0-37.784,10.741-73.875,36.796-113.41c-1.017-0.549,54.932-94.18,65.531-227.996H294.32
	c-10.598,133.816-66.545,227.447-65.531,227.996c-26.056,39.535-36.796,75.627-36.796,113.41v90.895
	c0,15.212,11.725,27.545,26.189,27.545h33.965C237.683,512,225.96,499.667,225.96,484.455z"/>
<path style="fill:#D84F48;" d="M367.473,52.156c0,7.407-6.092,13.411-13.605,13.411h-51.39c-7.514,0-13.605-6.004-13.605-13.411
	V13.411C288.875,6.004,294.964,0,302.478,0h51.39c7.512,0,13.605,6.004,13.605,13.411V52.156z"/>
<path style="opacity:0.1;fill:#414042;enable-background:new    ;" d="M322.971,52.156V13.411C322.971,6.004,329.06,0,336.574,0
	h-34.096c-7.514,0-13.605,6.004-13.605,13.411v38.744c0,7.407,6.09,13.411,13.605,13.411h34.096
	C329.06,65.567,322.971,59.563,322.971,52.156z"/>
<path style="fill:#007F67;" d="M384.097,59.606c0,12.345-10.151,22.354-22.671,22.354H294.92c-12.522,0-22.671-10.008-22.671-22.354
	l0,0c0-12.343,10.149-22.352,22.671-22.352h66.506C373.946,37.254,384.097,47.262,384.097,59.606L384.097,59.606z"/>
<path style="fill:#F7F7DF;" d="M165.04,223.809H58.13c-5.786,0-10.479,4.626-10.479,10.332v112.005
	c0,29.976,21.341,55.115,49.829,61.468v82.034h28.212v-82.034c28.488-6.353,49.828-31.492,49.828-61.468V234.141
	C175.52,228.435,170.825,223.809,165.04,223.809z"/>
<path style="fill:#F0D355;" d="M69.209,285.104v61.042c0,19.166,13.862,36.168,32.961,40.427c3.58,0.798,15.249,0.798,18.829,0
	c19.1-4.259,32.961-21.262,32.961-40.427v-61.042H69.209z"/>
<path style="opacity:0.1;fill:#414042;enable-background:new    ;" d="M68.988,346.145V234.141c0-5.706,4.694-10.332,10.479-10.332
	H58.13c-5.786,0-10.479,4.626-10.479,10.332v112.005c0,29.976,21.341,55.115,49.829,61.468h21.339
	C90.329,401.262,68.988,376.121,68.988,346.145z"/>
<path style="fill:#F7F7DF;" d="M162.977,495.609c0,9.053-7.445,16.391-16.626,16.391H76.82c-9.182,0-16.626-7.338-16.626-16.391l0,0
	c0-9.054,7.445-16.392,16.626-16.392h69.531C155.532,479.216,162.977,486.555,162.977,495.609L162.977,495.609z"/>
<path style="opacity:0.1;fill:#414042;enable-background:new    ;" d="M81.527,495.609c0-9.054,7.445-16.392,16.626-16.392H76.82
	c-9.182,0-16.626,7.338-16.626,16.392c0,9.053,7.445,16.391,16.626,16.391h21.335C88.972,512,81.527,504.662,81.527,495.609z"/>
<g>
	<circle style="fill:#FFFFFF;" cx="102.255" cy="311.515" r="5.929"/>
	<circle style="fill:#FFFFFF;" cx="122.745" cy="328.756" r="8.084"/>
	<circle style="fill:#FFFFFF;" cx="100.102" cy="343.845" r="5.929"/>
	<circle style="fill:#FFFFFF;" cx="122.202" cy="357.324" r="5.658"/>
</g>
<g>
</g>
<g>
</g>
<g>
</g>
<g>
</g>
<g>
</g>
<g>
</g>
<g>
</g>
<g>
</g>
<g>
</g>
<g>
</g>
<g>
</g>
<g>
</g>
<g>
</g>
<g>
</g>
<g>
</g>
</svg>
