<?xml version="1.0" encoding="iso-8859-1"?>
<!-- Generator: Adobe Illustrator 19.0.0, SVG Export Plug-In . SVG Version: 6.00 Build 0)  -->
<svg version="1.1" id="Layer_1" xmlns="http://www.w3.org/2000/svg" xmlns:xlink="http://www.w3.org/1999/xlink" x="0px" y="0px"
	 viewBox="0 0 511.999 511.999" style="enable-background:new 0 0 511.999 511.999;" xml:space="preserve">
<path style="fill:#ED5D51;" d="M103.972,510.609C46.642,510.609,0,464.211,0,407.179v-302.36C0,47.788,46.642,1.39,103.972,1.39
	h304.056c57.33,0,103.972,46.398,103.972,103.429v302.36c0,57.032-46.642,103.429-103.972,103.429H103.972z"/>
<path style="opacity:0.1;fill:#414042;enable-background:new    ;" d="M43.655,407.179v-302.36
	C43.655,47.788,90.297,1.39,147.627,1.39h-43.656C46.642,1.39,0,47.788,0,104.819v302.36c0,57.032,46.642,103.429,103.972,103.429
	h43.655C90.296,510.609,43.655,464.211,43.655,407.179z"/>
<path style="fill:#FFFFFF;" d="M36.901,167.686V407.18c0,36.836,30.028,66.697,67.071,66.697h304.056
	c37.043,0,67.071-29.861,67.071-66.697V167.686H36.901z"/>
<path style="opacity:0.1;fill:#414042;enable-background:new    ;" d="M70.602,407.179V167.686H36.901V407.18
	c0,36.836,30.028,66.697,67.071,66.697h33.701C100.631,473.876,70.602,444.015,70.602,407.179z"/>
<g>
	<path style="fill:#00B494;" d="M252.686,414.266H117.638v-27.585l62.023-61.691c7.863-8.526,13.651-16.131,17.362-22.821
		c3.709-6.686,5.566-12.497,5.566-17.429c0-7.022-1.878-12.622-5.633-16.803c-3.756-4.179-9.389-6.268-16.898-6.268
		c-6.715,0-11.993,2.696-15.836,8.087c-3.843,5.392-5.766,12.269-5.766,20.627H114.72l-0.265-0.753
		c-0.442-16.886,5.387-31.2,17.494-42.945c12.105-11.745,28.141-17.617,48.109-17.617c21.206,0,37.747,4.933,49.634,14.796
		c11.882,9.865,17.825,23.366,17.825,40.501c0,11.536-3.16,21.734-9.476,30.595c-6.317,8.86-17.958,22.027-34.922,39.497
		l-26.107,26.457l0.396,0.752h75.277v32.6H252.686z"/>
	<path style="fill:#00B494;" d="M266.892,334.018l11.132-102.318h113.18V264.3h-76.735l-4.903,38.244
		c3.356-2.424,7.554-4.389,12.59-5.894c5.035-1.505,10.557-2.338,16.567-2.507c18.905-0.333,33.441,4.871,43.604,15.61
		c10.157,10.743,15.239,25.977,15.239,45.705c0,17.137-5.787,31.66-17.361,43.573c-11.576,11.912-28.14,17.868-49.698,17.868
		c-18.378,0-34.326-4.805-47.845-14.42c-13.519-9.611-20.057-22.319-19.614-38.118l0.265-0.752l43.734-2.509
		c0,7.272,2.141,12.958,6.428,17.053c4.284,4.097,9.959,6.143,17.03,6.143c8.127,0,13.893-2.696,17.294-8.087
		c3.4-5.392,5.103-12.225,5.103-20.5c0-10.032-1.902-17.932-5.7-23.7c-3.8-5.768-9.807-8.652-18.024-8.652
		c-6.008,0-10.845,1.213-14.512,3.637c-3.667,2.424-6.208,5.475-7.619,9.153L266.892,334.018z"/>
</g>
<g>
	<circle style="fill:#FFFFFF;" cx="119.139" cy="94.312" r="29.719"/>
	<circle style="fill:#FFFFFF;" cx="392.861" cy="94.312" r="29.719"/>
</g>
<g>
</g>
<g>
</g>
<g>
</g>
<g>
</g>
<g>
</g>
<g>
</g>
<g>
</g>
<g>
</g>
<g>
</g>
<g>
</g>
<g>
</g>
<g>
</g>
<g>
</g>
<g>
</g>
<g>
</g>
</svg>
