<?xml version="1.0" encoding="iso-8859-1"?>
<!-- Generator: Adobe Illustrator 19.0.0, SVG Export Plug-In . SVG Version: 6.00 Build 0)  -->
<svg version="1.1" id="Layer_1" xmlns="http://www.w3.org/2000/svg" xmlns:xlink="http://www.w3.org/1999/xlink" x="0px" y="0px"
	 viewBox="0 0 512 512" style="enable-background:new 0 0 512 512;" xml:space="preserve">
<path style="fill:#ED5D51;" d="M400.457,299.632l-59.324-58.111V88.998H87.135v202.421c0,38.213,8.417,58.639,25.568,78.403
	l108.149,105.731C244.822,499.064,276.726,512,310.649,512c33.931,0,65.82-12.936,89.808-36.437
	c23.988-23.491,37.2-54.735,37.2-87.961C437.657,354.366,424.444,323.121,400.457,299.632z"/>
<g>
	<path style="fill:#F1F2F2;" d="M92.522,245.302c-1.822,0-3.598,0.158-5.387,0.274v45.843c0,38.213,8.417,58.639,25.568,78.403
		l24.045,23.509c22.733-14.3,37.843-39.221,37.843-67.641C174.589,281.295,137.847,245.302,92.522,245.302z"/>
	<path style="fill:#F1F2F2;" d="M292.836,380.884c-32.81,32.129-52.661,70.549-58.178,106.233
		C256.49,503.185,282.848,512,310.649,512c33.931,0,65.82-12.936,89.808-36.437c23.988-23.491,37.2-54.735,37.2-87.961
		c0-23.408-6.676-45.751-18.926-65.168C377.732,323.328,330.963,343.535,292.836,380.884z"/>
</g>
<g>
	<path style="fill:#FFFFFF;" d="M181.024,176.432l-11.841-7.573l11.832-7.573c1.775-1.127,2.272-3.462,1.107-5.192
		c-1.151-1.751-3.522-2.23-5.29-1.101l-10.817,6.924v-17.96c0-2.069-1.715-3.744-3.833-3.744c-2.116,0-3.833,1.674-3.833,3.744
		v17.977l-10.82-6.942c-1.777-1.12-4.141-0.65-5.3,1.101c-1.155,1.73-0.661,4.065,1.116,5.192l11.824,7.573l-11.843,7.573
		c-1.767,1.14-2.261,3.469-1.107,5.212c0.732,1.091,1.963,1.693,3.216,1.693c0.719,0,1.441-0.189,2.092-0.622l10.82-6.923v17.968
		c0,2.078,1.717,3.754,3.833,3.754c2.118,0,3.833-1.676,3.833-3.754V175.79l10.817,6.923c0.649,0.433,1.364,0.622,2.086,0.622
		c1.255,0,2.477-0.602,3.216-1.693C183.293,179.901,182.792,177.571,181.024,176.432z"/>
	<path style="fill:#FFFFFF;" d="M243.487,366.191l-11.841-7.573l11.832-7.574c1.777-1.127,2.272-3.461,1.112-5.192
		c-1.161-1.751-3.529-2.221-5.296-1.1l-10.82,6.933v-17.97c0-2.069-1.713-3.742-3.826-3.742c-2.118,0-3.829,1.673-3.829,3.742v17.98
		l-10.83-6.942c-1.765-1.121-4.137-0.651-5.302,1.1c-1.149,1.731-0.659,4.065,1.122,5.192l11.826,7.574l-11.839,7.573
		c-1.769,1.14-2.272,3.472-1.111,5.211c0.735,1.092,1.965,1.693,3.214,1.693c0.719,0,1.447-0.188,2.088-0.61l10.83-6.933v17.966
		c0,2.08,1.71,3.756,3.829,3.756c2.114,0,3.826-1.675,3.826-3.756v-17.966l10.82,6.933c0.657,0.422,1.37,0.61,2.092,0.61
		c1.244,0,2.473-0.601,3.214-1.693C245.761,369.663,245.257,367.331,243.487,366.191z"/>
	<path style="fill:#FFFFFF;" d="M294.52,176.432l-11.837-7.573l11.837-7.573c1.775-1.127,2.272-3.462,1.109-5.192
		c-1.151-1.751-3.527-2.23-5.302-1.101l-10.806,6.924v-17.96c0-2.069-1.717-3.744-3.831-3.744c-2.12,0-3.835,1.674-3.835,3.744
		v17.977l-10.82-6.942c-1.775-1.12-4.143-0.65-5.302,1.101c-1.154,1.73-0.659,4.065,1.118,5.192l11.826,7.573l-11.837,7.573
		c-1.775,1.14-2.27,3.469-1.116,5.212c0.741,1.091,1.968,1.693,3.216,1.693c0.719,0,1.443-0.189,2.094-0.622l10.82-6.923v17.968
		c0,2.078,1.715,3.754,3.835,3.754c2.114,0,3.831-1.676,3.831-3.754V175.79l10.806,6.923c0.666,0.433,1.373,0.622,2.102,0.622
		c1.241,0,2.471-0.602,3.216-1.693C296.791,179.901,296.296,177.571,294.52,176.432z"/>
	<path style="fill:#FFFFFF;" d="M329.033,302.942l-11.839-7.571l11.839-7.574c1.775-1.141,2.27-3.47,1.107-5.203
		c-1.153-1.74-3.524-2.219-5.3-1.09l-10.817,6.922v-17.958c0-2.077-1.706-3.754-3.826-3.754c-2.114,0-3.831,1.676-3.831,3.754
		v17.978l-10.824-6.943c-1.771-1.12-4.143-0.65-5.296,1.09c-1.161,1.732-0.666,4.063,1.111,5.203l11.828,7.574l-11.835,7.571
		c-1.773,1.139-2.278,3.47-1.113,5.204c0.741,1.099,1.968,1.701,3.21,1.701c0.724,0,1.449-0.197,2.094-0.621l10.824-6.925v17.97
		c0,2.079,1.717,3.753,3.831,3.753c2.12,0,3.826-1.674,3.826-3.753v-17.97l10.817,6.925c0.659,0.423,1.375,0.621,2.096,0.621
		c1.245,0,2.482-0.602,3.218-1.701C331.301,306.412,330.808,304.081,329.033,302.942z"/>
	<path style="fill:#FFFFFF;" d="M246.175,253.756l-11.835-7.585l11.835-7.572c1.777-1.13,2.261-3.463,1.109-5.194
		c-1.159-1.741-3.524-2.219-5.3-1.1l-10.813,6.933v-17.959c0-2.08-1.717-3.755-3.835-3.755c-2.109,0-3.826,1.674-3.826,3.755v17.968
		l-10.828-6.943c-1.769-1.119-4.139-0.641-5.291,1.1c-1.161,1.731-0.668,4.065,1.109,5.194l11.83,7.572l-11.839,7.585
		c-1.767,1.126-2.27,3.46-1.112,5.203c0.741,1.089,1.972,1.692,3.216,1.692c0.715,0,1.441-0.188,2.088-0.612l10.828-6.923v17.96
		c0,2.079,1.719,3.753,3.826,3.753c2.118,0,3.835-1.674,3.835-3.753v-17.96l10.813,6.923c0.655,0.424,1.373,0.612,2.092,0.612
		c1.249,0,2.475-0.603,3.216-1.692C248.446,257.214,247.953,254.882,246.175,253.756z"/>
</g>
<g style="opacity:0.1;">
	<path style="fill:#414042;" d="M355.569,478.285c-33.927,0-65.829-12.937-89.797-36.448L157.62,336.106
		c-17.149-19.764-25.568-40.189-25.568-78.403V88.998H87.135v202.421c0,38.213,8.417,58.639,25.568,78.403l108.149,105.731
		C244.822,499.064,276.726,512,310.649,512c33.931,0,65.82-12.936,89.808-36.437c2.775-2.718,5.4-5.544,7.884-8.46
		C391.991,474.423,374.085,478.285,355.569,478.285z"/>
</g>
<path style="fill:#D84F48;" d="M349.189,107.845c0,8.674-7.032,15.705-15.706,15.705H97.901c-8.674,0-15.706-7.031-15.706-15.705
	V92.139c0-8.674,7.032-15.705,15.706-15.705h235.582c8.674,0,15.706,7.031,15.706,15.705V107.845z"/>
<path style="fill:#F1F2F2;" d="M357.042,84.81c0,8.674-7.032,15.705-15.706,15.705H90.049c-8.674,0-15.706-7.031-15.706-15.705
	V15.705C74.342,7.031,81.375,0,90.049,0h251.288c8.674,0,15.706,7.031,15.706,15.705L357.042,84.81L357.042,84.81z"/>
<g>
</g>
<g>
</g>
<g>
</g>
<g>
</g>
<g>
</g>
<g>
</g>
<g>
</g>
<g>
</g>
<g>
</g>
<g>
</g>
<g>
</g>
<g>
</g>
<g>
</g>
<g>
</g>
<g>
</g>
</svg>
