<?xml version="1.0" encoding="iso-8859-1"?>
<!-- Generator: Adobe Illustrator 19.0.0, SVG Export Plug-In . SVG Version: 6.00 Build 0)  -->
<svg version="1.1" id="Layer_1" xmlns="http://www.w3.org/2000/svg" xmlns:xlink="http://www.w3.org/1999/xlink" x="0px" y="0px"
	 viewBox="0 0 512.001 512.001" style="enable-background:new 0 0 512.001 512.001;" xml:space="preserve">
<path style="fill:#F0D355;" d="M60.494,512c-13.497,0-24.438-10.89-24.438-24.323V242.014c0-5.98,2.213-11.751,6.217-16.211
	L237.781,8.113C242.416,2.952,249.044,0,256.001,0c6.957,0,13.585,2.952,18.221,8.115l195.505,217.691
	c4.004,4.459,6.217,10.23,6.217,16.21v245.663c0,13.433-10.941,24.323-24.438,24.323H60.494V512z"/>
<path style="opacity:0.1;fill:#414042;enable-background:new    ;" d="M81.273,487.677V242.014c0-5.98,2.214-11.751,6.218-16.211
	L278.608,13l-4.388-4.886C269.586,2.952,262.958,0,256.001,0c-6.957,0-13.585,2.952-18.22,8.113L42.273,225.805
	c-4.004,4.46-6.217,10.231-6.217,16.211v245.663c0,13.433,10.941,24.323,24.438,24.323h45.217
	C92.214,512,81.273,501.11,81.273,487.677z"/>
<path style="fill:#ED5D51;" d="M427.111,449.144c0,11.908-9.65,21.558-21.557,21.558H106.446c-11.908,0-21.557-9.651-21.557-21.558
	V149.289c0-11.907,9.65-21.558,21.557-21.558h299.108c11.908,0,21.557,9.651,21.557,21.558V449.144z"/>
<path style="fill:#008269;" d="M331.393,346.116l-34.577-59.564h-81.631l-34.573,59.564c-0.489,0.839-0.489,1.867,0,2.706
	c0.482,0.833,1.376,1.349,2.349,1.349h146.072c0.974,0,1.868-0.516,2.359-1.349C331.872,347.983,331.872,346.955,331.393,346.116z"
	/>
<path style="fill:#00997C;" d="M307.62,290.243l-28.593-49.258H232.97l-28.596,49.258c-0.48,0.84-0.48,1.867,0,2.707
	c0.493,0.831,1.387,1.351,2.36,1.351h98.529c0.973,0,1.865-0.52,2.357-1.351C308.1,292.112,308.1,291.083,307.62,290.243z"/>
<path style="fill:#00B494;" d="M223.541,248.551c-0.981,0-1.877-0.517-2.358-1.352c-0.491-0.839-0.491-1.871,0-2.704l32.458-55.928
	c0.489-0.839,1.386-1.35,2.358-1.35c0.971,0,1.864,0.511,2.357,1.35l32.456,55.928c0.491,0.833,0.491,1.865,0,2.704
	c-0.481,0.835-1.386,1.352-2.358,1.352L223.541,248.551L223.541,248.551z"/>
<path style="opacity:0.1;fill:#414042;enable-background:new    ;" d="M118.576,449.144V149.289
	c0-11.907,9.651-21.558,21.558-21.558h-33.689c-11.908,0-21.557,9.651-21.557,21.558v299.855c0,11.908,9.65,21.558,21.557,21.558
	h33.689C128.228,470.702,118.576,461.051,118.576,449.144z"/>
<path style="fill:#00B494;" d="M469.727,237.549L274.218,455.241c-4.634,5.161-11.262,8.114-18.219,8.114
	c-6.957,0-13.585-2.952-18.221-8.115L42.273,237.549c-1.589-1.772-2.885-3.755-3.885-5.872c-1.515,3.212-2.332,6.732-2.332,10.338
	v245.663c0,13.433,10.941,24.323,24.438,24.323h391.012c13.497,0,24.438-10.89,24.438-24.323V242.014
	c0-3.605-0.817-7.125-2.332-10.338C472.612,233.794,471.317,235.777,469.727,237.549z"/>
<path style="opacity:0.1;fill:#414042;enable-background:new    ;" d="M93.962,478.116c-13.497,0-24.438-10.889-24.438-24.322
	v-10.85V267.892l-27.251-30.343c-1.589-1.772-2.885-3.755-3.885-5.872c-1.515,3.212-2.332,6.732-2.332,10.338v245.663
	c0,13.433,10.941,24.323,24.438,24.323h391.012c13.497,0,24.438-10.89,24.438-24.323v-9.56H93.962V478.116z"/>
<g>
</g>
<g>
</g>
<g>
</g>
<g>
</g>
<g>
</g>
<g>
</g>
<g>
</g>
<g>
</g>
<g>
</g>
<g>
</g>
<g>
</g>
<g>
</g>
<g>
</g>
<g>
</g>
<g>
</g>
</svg>
