<?xml version="1.0" encoding="iso-8859-1"?>
<!-- Generator: Adobe Illustrator 19.0.0, SVG Export Plug-In . SVG Version: 6.00 Build 0)  -->
<svg version="1.1" id="Layer_1" xmlns="http://www.w3.org/2000/svg" xmlns:xlink="http://www.w3.org/1999/xlink" x="0px" y="0px"
	 viewBox="0 0 512 512" style="enable-background:new 0 0 512 512;" xml:space="preserve">
<path style="fill:#F1F2F2;" d="M271.83,54.424c0.032-7.074-3.29-13.915-9.242-18.233l-43.98-31.913
	C214.676,1.426,210.049,0,205.424,0c-4.628,0-9.254,1.426-13.186,4.279l-43.98,31.913c-5.95,4.318-9.274,11.159-9.242,18.233H271.83
	z"/>
<path style="opacity:0.1;fill:#414042;enable-background:new    ;" d="M182.582,36.193l40.003-29.026l-3.978-2.886
	c-3.932-2.853-8.558-4.279-13.185-4.279c-4.628,0-9.254,1.426-13.186,4.279l-43.98,31.913c-5.95,4.318-9.274,11.159-9.242,18.233
	h34.326C173.309,47.352,176.632,40.509,182.582,36.193z"/>
<path style="fill:#E4E6E5;" d="M312.636,90.269c3.144-5.638,4.941-12.129,4.941-19.042c0-21.652-17.574-39.206-39.253-39.206H132.52
	c-21.679,0-39.255,17.552-39.255,39.206c0,6.912,1.798,13.403,4.941,19.042H312.636z"/>
<path style="opacity:0.1;fill:#414042;enable-background:new    ;" d="M166.846,32.022H132.52
	c-21.679,0-39.255,17.552-39.255,39.206c0,6.912,1.798,13.403,4.941,19.042h34.326c-3.145-5.638-4.941-12.129-4.941-19.042
	C127.591,49.575,145.167,32.022,166.846,32.022z"/>
<path style="fill:#F1F2F2;" d="M369.875,123.874c2.422-5.093,3.783-10.788,3.783-16.802c0-21.652-17.576-39.205-39.256-39.205
	H76.442c-21.679,0-39.254,17.552-39.254,39.205c0,6.013,1.359,11.709,3.782,16.802C40.971,123.873,369.875,123.873,369.875,123.874z
	"/>
<path style="opacity:0.1;fill:#414042;enable-background:new    ;" d="M110.767,67.867H76.441
	c-21.679,0-39.254,17.552-39.254,39.205c0,6.013,1.359,11.709,3.782,16.802h34.326c-2.425-5.093-3.783-10.788-3.783-16.802
	C71.512,85.42,89.088,67.867,110.767,67.867z"/>
<g>
	<path style="fill:#D84F48;" d="M445.322,108.515h-73.881c-32.062,0-58.05,25.807-58.05,57.641V329.91
		c0,31.835,25.988,57.642,58.05,57.642h73.881c32.059,0,58.05-25.807,58.05-57.642V166.156
		C503.372,134.322,477.382,108.515,445.322,108.515z M450.599,329.911c0,2.889-2.365,5.24-5.276,5.24h-73.881
		c-2.911,0-5.278-2.351-5.278-5.24V166.156c0-2.889,2.367-5.24,5.278-5.24h73.881c2.911,0,5.276,2.35,5.276,5.24V329.911z"/>
	<path style="fill:#D84F48;" d="M8.628,108.515v305.234c0,54.264,44.302,98.252,98.948,98.252h193.94
		c54.65,0,98.949-43.988,98.949-98.252V108.515H8.628z"/>
</g>
<path style="opacity:0.1;fill:#414042;enable-background:new    ;" d="M65.213,413.748V108.515H8.629v305.234
	C8.629,468.012,52.93,512,107.576,512h56.585C109.513,512,65.213,468.012,65.213,413.748z"/>
<g>
	<polygon style="fill:#00B494;" points="201.938,280.331 201.938,216.949 160.158,175.158 160.158,238.539 	"/>
	<polygon style="fill:#00B494;" points="218.107,280.331 259.887,238.539 259.887,175.158 218.107,216.949 	"/>
	<polygon style="fill:#00B494;" points="271.318,249.973 229.536,291.765 293.72,291.765 334.685,249.973 	"/>
	<polygon style="fill:#00B494;" points="190.509,291.765 148.727,249.973 85.361,249.973 127.142,291.765 	"/>
	<polygon style="fill:#00B494;" points="218.107,319.37 218.107,382.75 259.887,424.54 259.887,361.16 	"/>
	<polygon style="fill:#00B494;" points="229.535,307.933 271.318,349.726 334.685,349.726 292.053,307.933 	"/>
	<polygon style="fill:#00B494;" points="201.938,319.37 160.158,361.16 160.158,424.54 201.938,382.75 	"/>
	<polygon style="fill:#00B494;" points="190.51,307.933 127.142,307.933 85.361,349.726 148.727,349.726 	"/>
</g>
<g>
</g>
<g>
</g>
<g>
</g>
<g>
</g>
<g>
</g>
<g>
</g>
<g>
</g>
<g>
</g>
<g>
</g>
<g>
</g>
<g>
</g>
<g>
</g>
<g>
</g>
<g>
</g>
<g>
</g>
</svg>
