<?xml version="1.0" encoding="iso-8859-1"?>
<!-- Generator: Adobe Illustrator 19.0.0, SVG Export Plug-In . SVG Version: 6.00 Build 0)  -->
<svg version="1.1" id="Layer_1" xmlns="http://www.w3.org/2000/svg" xmlns:xlink="http://www.w3.org/1999/xlink" x="0px" y="0px"
	 viewBox="0 0 512 512" style="enable-background:new 0 0 512 512;" xml:space="preserve">
<path style="fill:#D84F48;" d="M369.818,308.812c6.078,6.116,8.817,14.823,7.335,23.343c-1.48,8.514-6.993,15.774-14.775,19.452
	L37.615,505.073c-10.066,4.756-22.018,2.653-29.884-5.256c-7.865-7.911-9.955-19.931-5.224-30.057L155.092,143.13
	c3.657-7.825,10.874-13.371,19.343-14.859c8.47-1.489,17.127,1.263,23.206,7.379L369.818,308.812z"/>
<g>
	<polygon style="fill:#00B494;" points="316.33,255.018 102.825,255.018 88.175,286.379 347.51,286.379 	"/>
	<path style="fill:#00B494;" d="M197.643,135.651c-6.079-6.116-14.736-8.867-23.206-7.379c-8.468,1.489-15.686,7.033-19.343,14.859
		l-5.5,11.776h67.196L197.643,135.651z"/>
	<polygon style="fill:#00B494;" points="135.197,185.723 118.325,221.839 283.338,221.839 247.43,185.723 	"/>
	<polygon style="fill:#00B494;" points="293.614,384.101 42.521,384.103 27.871,415.465 227.247,415.461 	"/>
	<path style="fill:#00B494;" d="M157.03,448.644H16.614v-9.083L2.507,469.762c-1.534,3.283-2.34,6.768-2.474,10.244l90.631-0.001
		L157.03,448.644z"/>
	<path style="fill:#00B494;" d="M377.152,332.155c0.742-4.267,0.424-8.585-0.842-12.597L72.673,319.56L58.02,350.923l305.699-0.002
		C370.792,347.071,375.759,340.172,377.152,332.155z"/>
</g>
<path style="opacity:0.1;fill:#414042;enable-background:new    ;" d="M189.6,179.403c3.656-7.824,10.873-13.369,19.342-14.858
	c8.47-1.489,17.128,1.262,23.208,7.379l-34.508-36.273c-6.079-6.116-14.736-8.867-23.206-7.379
	c-8.468,1.489-15.686,7.033-19.343,14.859L2.507,469.762c-4.73,10.124-2.64,22.145,5.224,30.056
	c7.816,7.861,19.667,9.979,29.693,5.336L189.6,179.403z"/>
<g>
	<polygon style="fill:#F0D355;" points="332.799,106.077 322.439,138.093 341.851,165.232 308.464,165.495 288.627,192.69 
		278.354,160.836 246.681,150.503 273.72,130.553 273.982,96.972 300.966,116.497 	"/>
	<polygon style="fill:#F0D355;" points="500.835,61.212 488.056,100.7 512,134.174 470.821,134.497 446.356,168.038 
		433.683,128.751 394.619,116.005 427.968,91.4 428.29,49.981 461.573,74.065 	"/>
</g>
<g>
	<path style="fill:#00B494;" d="M403.923,251.423c-9.791,9.846-25.666,9.846-35.457,0c-9.792-9.847-9.792-25.815,0-35.662
		c9.79-9.846,25.666-9.846,35.457,0C413.714,225.608,413.714,241.577,403.923,251.423z"/>
	<path style="fill:#00B494;" d="M373.131,38.393c-7.729,7.773-20.263,7.773-27.993,0c-7.73-7.774-7.73-20.381,0-28.154
		c7.73-7.775,20.264-7.775,27.993,0C380.861,18.012,380.861,30.619,373.131,38.393z"/>
</g>
<g>
</g>
<g>
</g>
<g>
</g>
<g>
</g>
<g>
</g>
<g>
</g>
<g>
</g>
<g>
</g>
<g>
</g>
<g>
</g>
<g>
</g>
<g>
</g>
<g>
</g>
<g>
</g>
<g>
</g>
</svg>
