<?xml version="1.0" encoding="iso-8859-1"?>
<!-- Generator: Adobe Illustrator 19.0.0, SVG Export Plug-In . SVG Version: 6.00 Build 0)  -->
<svg version="1.1" id="Layer_1" xmlns="http://www.w3.org/2000/svg" xmlns:xlink="http://www.w3.org/1999/xlink" x="0px" y="0px"
	 viewBox="0 0 512 512" style="enable-background:new 0 0 512 512;" xml:space="preserve">
<g>
	<path style="fill:#E5C642;" d="M39.619,294.992c-3.649,0-7.027-1.919-8.891-5.051c-1.864-3.132-1.937-7.012-0.193-10.212
		l84.795-155.536c1.811-3.323,5.297-5.391,9.084-5.391c3.788,0,7.274,2.068,9.084,5.391l84.795,155.536
		c1.744,3.199,1.671,7.079-0.193,10.212c-1.864,3.132-5.243,5.051-8.892,5.051H39.619z"/>
	<path style="fill:#E5C642;" d="M302.823,294.992c-3.649,0-7.028-1.919-8.892-5.051c-1.864-3.132-1.937-7.012-0.193-10.212
		l84.793-155.536c1.811-3.323,5.297-5.391,9.085-5.391c3.788,0,7.274,2.068,9.084,5.391l84.795,155.536
		c1.744,3.199,1.672,7.079-0.193,10.212c-1.864,3.132-5.243,5.051-8.892,5.051H302.823z"/>
</g>
<path style="fill:#F0D355;" d="M38.338,452.8C17.199,452.8,0,435.496,0,414.227v-277.86c0-4.304,2.673-8.155,6.709-9.667
	c1.185-0.444,2.414-0.659,3.633-0.659c2.928,0,5.789,1.243,7.791,3.533l108.558,124.057l113.7-187.878
	c4.1-4.164,5.909-6.552,15.611-6.552c10.777,0,11.511,2.389,15.61,6.553l113.698,187.877l108.558-124.057
	c2.003-2.289,4.863-3.533,7.791-3.533c1.218,0,2.447,0.215,3.633,0.659c4.035,1.512,6.709,5.365,6.709,9.667v277.86
	c0,21.269-17.199,38.573-38.338,38.573H38.338z"/>
<g style="opacity:0.1;">
	<path style="fill:#414042;" d="M43.655,414.681V158.739l-25.522-29.166c-2.002-2.289-4.863-3.533-7.791-3.533
		c-1.218,0-2.448,0.215-3.633,0.659C2.673,128.211,0,132.063,0,136.366v277.86C0,435.496,17.199,452.8,38.338,452.8H76.11
		C57.753,449.943,43.655,433.938,43.655,414.681z"/>
</g>
<polygon style="fill:#FFFF55;" points="256,229.662 284.803,283.161 337.469,312.418 284.803,341.677 256,395.174 227.196,341.677 
	174.53,312.418 227.196,283.161 "/>
<g>
</g>
<g>
</g>
<g>
</g>
<g>
</g>
<g>
</g>
<g>
</g>
<g>
</g>
<g>
</g>
<g>
</g>
<g>
</g>
<g>
</g>
<g>
</g>
<g>
</g>
<g>
</g>
<g>
</g>
</svg>
