<?xml version="1.0" encoding="iso-8859-1"?>
<!-- Generator: Adobe Illustrator 19.0.0, SVG Export Plug-In . SVG Version: 6.00 Build 0)  -->
<svg version="1.1" id="Layer_1" xmlns="http://www.w3.org/2000/svg" xmlns:xlink="http://www.w3.org/1999/xlink" x="0px" y="0px"
	 viewBox="0 0 512 512" style="enable-background:new 0 0 512 512;" xml:space="preserve">
<path style="fill:#ED5D51;" d="M27.031,246.193v221.695c0,12.495,10.149,22.621,22.669,22.621h412.6
	c12.52,0,22.669-10.126,22.669-22.621V246.193H27.031z"/>
<polygon style="fill:#FFFFFF;" points="131.202,250.912 76.328,328.082 21.455,250.912 "/>
<polygon style="fill:#00997C;" points="220.932,250.912 166.059,328.082 111.185,250.912 "/>
<polygon style="fill:#FFFFFF;" points="310.663,250.912 255.789,328.082 200.915,250.912 "/>
<polygon style="fill:#00997C;" points="400.394,250.912 345.52,328.082 290.646,250.912 "/>
<polygon style="fill:#FFFFFF;" points="490.123,250.912 435.25,328.082 380.376,250.912 "/>
<g>
	<path style="fill:#00B494;" d="M501.973,245.062c0,12.493-10.15,22.621-22.671,22.621H32.698
		c-12.521,0-22.671-10.128-22.671-22.621V233.75c0-12.493,10.15-22.621,22.671-22.621h446.604c12.521,0,22.671,10.128,22.671,22.621
		V245.062z"/>
	<path style="fill:#00B494;" d="M501.973,489.378c0,12.494-10.15,22.622-22.671,22.622H32.698
		c-12.521,0-22.671-10.128-22.671-22.622v-11.31c0-12.494,10.15-22.622,22.671-22.622h446.604c12.521,0,22.671,10.128,22.671,22.622
		V489.378z"/>
</g>
<path style="opacity:0.2;fill:#414042;enable-background:new    ;" d="M57.99,489.378v-11.31c0-10.538,7.23-19.367,17.004-21.881
	V266.943c-9.774-2.515-17.004-11.343-17.004-21.88V233.75c0-12.493,10.149-22.621,22.67-22.621H32.698
	c-12.521,0-22.671,10.128-22.671,22.621v11.312c0,10.537,7.231,19.365,17.004,21.88v189.244
	c-9.774,2.514-17.004,11.343-17.004,21.881v11.31c0,12.494,10.15,22.622,22.671,22.622H80.66
	C68.139,512,57.99,501.872,57.99,489.378z"/>
<g>
	<polygon style="fill:#AF322F;" points="121.091,373.328 100.107,352.517 121.091,331.705 142.076,352.517 	"/>
	<polygon style="fill:#AF322F;" points="210.66,373.328 189.674,352.517 210.66,331.705 231.645,352.517 	"/>
	<polygon style="fill:#AF322F;" points="300.227,373.328 279.242,352.517 300.227,331.705 321.211,352.517 	"/>
	<polygon style="fill:#AF322F;" points="389.795,373.328 368.809,352.517 389.795,331.705 410.78,352.517 	"/>
</g>
<g>
	<path style="fill:#FFFFFF;" d="M185.257,415.454l-13.166-8.783l13.166-8.782c1.967-1.307,2.524-4.016,1.22-6.02
		c-1.27-2.034-3.908-2.589-5.882-1.276l-12.023,8.027v-20.827c0-2.399-1.906-4.341-4.265-4.341c-2.35,0-4.254,1.941-4.254,4.341
		v20.849l-12.041-8.049c-1.97-1.303-4.598-0.76-5.892,1.276c-1.289,2.004-0.735,4.712,1.236,6.02l13.156,8.782l-13.165,8.783
		c-1.962,1.32-2.517,4.025-1.233,6.041c0.817,1.266,2.187,1.963,3.574,1.963c0.809,0,1.6-0.22,2.324-0.721l12.041-8.025v20.835
		c0,2.411,1.904,4.352,4.254,4.352c2.359,0,4.265-1.941,4.265-4.352v-20.835l12.023,8.025c0.735,0.501,1.529,0.721,2.336,0.721
		c1.379,0,2.743-0.697,3.571-1.963C187.782,419.479,187.224,416.774,185.257,415.454z"/>
	<path style="fill:#FFFFFF;" d="M93.182,415.454l-13.166-8.783l13.166-8.782c1.966-1.307,2.523-4.016,1.22-6.02
		c-1.27-2.034-3.909-2.589-5.883-1.276l-12.022,8.027v-20.827c0-2.399-1.907-4.341-4.265-4.341c-2.35,0-4.254,1.941-4.254,4.341
		v20.849l-12.041-8.049c-1.972-1.303-4.598-0.76-5.892,1.276c-1.291,2.004-0.736,4.712,1.236,6.02l13.154,8.782l-13.164,8.783
		c-1.962,1.32-2.518,4.025-1.233,6.041c0.818,1.266,2.187,1.963,3.575,1.963c0.807,0,1.599-0.22,2.324-0.721l12.041-8.025v20.835
		c0,2.411,1.904,4.352,4.254,4.352c2.358,0,4.265-1.941,4.265-4.352v-20.835l12.022,8.025c0.736,0.501,1.53,0.721,2.336,0.721
		c1.378,0,2.743-0.697,3.57-1.963C95.706,419.479,95.149,416.774,93.182,415.454z"/>
	<path style="fill:#FFFFFF;" d="M368.552,415.454l-13.165-8.783l13.165-8.782c1.968-1.307,2.524-4.016,1.221-6.02
		c-1.27-2.034-3.908-2.589-5.883-1.276l-12.023,8.027v-20.827c0-2.399-1.906-4.341-4.265-4.341c-2.348,0-4.254,1.941-4.254,4.341
		v20.849l-12.04-8.049c-1.971-1.303-4.598-0.76-5.893,1.276c-1.289,2.004-0.735,4.712,1.237,6.02l13.155,8.782l-13.164,8.783
		c-1.963,1.32-2.518,4.025-1.234,6.041c0.817,1.266,2.188,1.963,3.575,1.963c0.808,0,1.6-0.22,2.324-0.721l12.04-8.025v20.835
		c0,2.411,1.906,4.352,4.254,4.352c2.359,0,4.265-1.941,4.265-4.352v-20.835l12.023,8.025c0.735,0.501,1.529,0.721,2.336,0.721
		c1.379,0,2.744-0.697,3.571-1.963C371.077,419.479,370.52,416.774,368.552,415.454z"/>
	<path style="fill:#FFFFFF;" d="M276.477,415.454l-13.165-8.783l13.165-8.782c1.968-1.307,2.523-4.016,1.22-6.02
		c-1.27-2.034-3.908-2.589-5.882-1.276l-12.023,8.027v-20.827c0-2.399-1.907-4.341-4.265-4.341c-2.349,0-4.254,1.941-4.254,4.341
		v20.849l-12.04-8.049c-1.972-1.303-4.598-0.76-5.893,1.276c-1.29,2.004-0.735,4.712,1.237,6.02l13.154,8.782l-13.164,8.783
		c-1.962,1.32-2.518,4.025-1.234,6.041c0.818,1.266,2.188,1.963,3.576,1.963c0.807,0,1.599-0.22,2.324-0.721l12.04-8.025v20.835
		c0,2.411,1.905,4.352,4.254,4.352c2.358,0,4.265-1.941,4.265-4.352v-20.835l12.023,8.025c0.735,0.501,1.529,0.721,2.335,0.721
		c1.38,0,2.744-0.697,3.571-1.963C279,419.479,278.445,416.774,276.477,415.454z"/>
	<path style="fill:#FFFFFF;" d="M459.772,415.163l-13.165-8.781l13.165-8.782c1.968-1.308,2.523-4.016,1.221-6.02
		c-1.27-2.034-3.909-2.588-5.882-1.277l-12.024,8.028v-20.828c0-2.4-1.906-4.342-4.265-4.342c-2.349,0-4.253,1.941-4.253,4.342
		v20.849l-12.041-8.049c-1.971-1.302-4.598-0.759-5.893,1.277c-1.29,2.004-0.735,4.711,1.237,6.02l13.154,8.782l-13.163,8.781
		c-1.963,1.321-2.519,4.027-1.234,6.043c0.818,1.265,2.187,1.962,3.575,1.962c0.807,0,1.599-0.219,2.324-0.72l12.041-8.026v20.836
		c0,2.411,1.904,4.351,4.253,4.351c2.359,0,4.265-1.94,4.265-4.351v-20.836l12.024,8.026c0.735,0.501,1.528,0.72,2.335,0.72
		c1.379,0,2.744-0.697,3.57-1.962C462.295,419.19,461.74,416.483,459.772,415.163z"/>
</g>
<path style="fill:#636052;" d="M485.196,173.553H262.993c-4.396,0-7.959-3.562-7.959-7.958s3.563-7.958,7.959-7.958h222.204
	c4.396,0,7.958,3.562,7.958,7.958S489.592,173.553,485.196,173.553z"/>
<ellipse style="fill:#ED5D51;" cx="261.789" cy="165.596" rx="20.694" ry="20.65"/>
<path style="fill:#636052;" d="M178.224,172.706c-2.033,0-4.068-0.775-5.622-2.326L15.479,13.592
	c-3.112-3.105-3.115-8.143-0.011-11.256c3.105-3.112,8.144-3.116,11.255-0.011l157.123,156.788
	c3.111,3.104,3.115,8.143,0.011,11.255C182.302,171.926,180.264,172.706,178.224,172.706z"/>
<path style="fill:#ED5D51;" d="M164.44,150.992c8.081-8.066,21.184-8.066,29.268,0c8.082,8.065,8.082,21.14,0,29.203
	c-8.082,8.066-21.185,8.066-29.268,0C156.357,172.133,156.357,159.057,164.44,150.992z"/>
<g>
</g>
<g>
</g>
<g>
</g>
<g>
</g>
<g>
</g>
<g>
</g>
<g>
</g>
<g>
</g>
<g>
</g>
<g>
</g>
<g>
</g>
<g>
</g>
<g>
</g>
<g>
</g>
<g>
</g>
</svg>
