<?xml version="1.0" encoding="iso-8859-1"?>
<!-- Generator: Adobe Illustrator 19.0.0, SVG Export Plug-In . SVG Version: 6.00 Build 0)  -->
<svg version="1.1" id="Layer_1" xmlns="http://www.w3.org/2000/svg" xmlns:xlink="http://www.w3.org/1999/xlink" x="0px" y="0px"
	 viewBox="0 0 512 512" style="enable-background:new 0 0 512 512;" xml:space="preserve">
<path style="fill:#F1F2F2;" d="M298.517,42.645c0,23.55-19.037,42.645-42.521,42.645c-23.478,0-42.513-19.097-42.513-42.645
	C213.482,19.091,232.518,0,255.996,0C279.48,0,298.517,19.091,298.517,42.645z"/>
<path style="opacity:0.1;fill:#414042;enable-background:new    ;" d="M247.378,42.645c0-17.51,10.523-32.546,25.568-39.115
	C267.752,1.264,262.023,0,255.996,0c-23.478,0-42.513,19.091-42.513,42.645c0,23.55,19.036,42.645,42.513,42.645
	c6.027,0,11.756-1.264,16.949-3.532C257.901,75.191,247.378,60.153,247.378,42.645z"/>
<path style="fill:#00B494;" d="M398.403,254.514c0-108.669-111.612-196.767-142.403-196.767
	c-26.943,0-142.403,88.097-142.403,196.767H398.403z"/>
<path style="opacity:0.1;fill:#414042;enable-background:new    ;" d="M279.271,65.878c-9.614-5.281-17.747-8.13-23.271-8.13
	c-26.943,0-142.403,88.097-142.403,196.767h45.151C158.749,165.339,236.488,90.033,279.271,65.878z"/>
<g>
	<path style="fill:#FCD4B1;" d="M393.273,369.054c-2.276,0-4.476-0.863-6.15-2.428c-1.82-1.703-2.853-4.083-2.853-6.576v-90.441
		c0-4.112,2.786-7.7,6.767-8.722c11.683-2.996,28.822-11.915,44.135-37.395c1.645-2.738,4.592-4.367,7.717-4.367
		c0.48,0,0.963,0.039,1.448,0.117c3.635,0.591,6.544,3.339,7.342,6.936c0.717,3.227,17.195,79.487-12.641,119.312
		c-10.746,14.342-25.942,22.264-45.168,23.543C393.672,369.047,393.471,369.054,393.273,369.054z"/>
	<path style="fill:#FCD4B1;" d="M118.728,369.054c-0.2,0-0.399-0.006-0.598-0.02c-19.225-1.279-34.422-9.2-45.168-23.543
		C43.126,305.666,59.607,229.406,60.321,226.18c0.799-3.597,3.708-6.345,7.344-6.936c0.485-0.078,0.969-0.117,1.449-0.117
		c3.123,0,6.07,1.629,7.716,4.367c15.313,25.48,32.453,34.399,44.133,37.395c3.983,1.022,6.768,4.61,6.768,8.722v90.441
		c0,2.491-1.032,4.871-2.852,6.576C123.205,368.191,121.004,369.054,118.728,369.054z"/>
</g>
<path style="opacity:0.1;fill:#414042;enable-background:new    ;" d="M94.93,345.492c-26.133-34.883-16.734-97.716-13.517-114.943
	c-1.542-2.203-3.073-4.54-4.585-7.056c-1.646-2.738-4.592-4.367-7.716-4.367c-0.481,0-0.964,0.039-1.449,0.117
	c-3.635,0.591-6.545,3.339-7.344,6.936c-0.716,3.227-17.195,79.486,12.641,119.312c10.745,14.342,25.942,22.264,45.168,23.543
	c0.199,0.014,0.399,0.02,0.598,0.02c2.276,0,4.477-0.863,6.151-2.428c0.067-0.063,0.121-0.135,0.186-0.199
	C112.804,362.853,102.699,355.86,94.93,345.492z"/>
<path style="fill:#FFE2C5;" d="M104.062,237.547v126.897c0,81.493,66.043,147.556,147.512,147.556h8.849
	c81.471,0,147.516-66.064,147.516-147.556V237.547H104.062z"/>
<g>
	<path style="opacity:0.1;fill:#414042;enable-background:new    ;" d="M318.3,500.2c0.066-0.027,0.131-0.053,0.195-0.08
		c-0.197,0.017-0.396,0.029-0.592,0.046C318.035,500.175,318.168,500.188,318.3,500.2z"/>
	<path style="opacity:0.1;fill:#414042;enable-background:new    ;" d="M137.499,364.444V237.547h-33.438v126.897
		c0,81.493,66.043,147.556,147.512,147.556h8.849c4.141,0,8.241-0.179,12.296-0.514
		C197.002,505.235,137.499,441.794,137.499,364.444z"/>
</g>
<path style="fill:#F4AE69;" d="M291.442,237.547h-47.16h-140.22v56.99c16.899,6.744,35.332,10.458,54.637,10.458h8.848
	c41.185,0,78.414-16.897,105.175-44.124c22.74,14.335,49.666,22.631,78.531,22.631h8.848c16.743,0,32.836-2.796,47.838-7.938
	v-38.018H291.442z"/>
<g>
	<path style="fill:#636052;" d="M207.239,341.731c0,9.932-8.026,17.983-17.927,17.983l0,0c-9.901,0-17.926-8.052-17.926-17.983l0,0
		c0-9.93,8.026-17.982,17.926-17.982l0,0C199.213,323.749,207.239,331.801,207.239,341.731L207.239,341.731z"/>
	<path style="fill:#636052;" d="M337.449,340.87c0,9.932-8.026,17.983-17.926,17.983l0,0c-9.899,0-17.928-8.052-17.928-17.983l0,0
		c0-9.93,8.029-17.982,17.928-17.982l0,0C329.423,322.888,337.449,330.94,337.449,340.87L337.449,340.87z"/>
	<path style="fill:#636052;" d="M256,451.257c-24.679,0-44.757-20.046-44.757-44.685c0-4.328,3.509-7.837,7.837-7.837
		c4.328,0,7.837,3.509,7.837,7.837c0,15.996,13.047,29.012,29.084,29.012c16.038,0,29.085-13.015,29.085-29.012
		c0-4.328,3.508-7.837,7.837-7.837c4.328,0,7.837,3.509,7.837,7.837C300.759,431.212,280.68,451.257,256,451.257z"/>
</g>
<path style="fill:#F1F2F2;" d="M114.127,254.514c-5.559,0-10.066-4.459-10.066-9.958V165.47c0-3.787,2.17-7.245,5.601-8.924
	c1.415-0.693,2.941-1.032,4.463-1.032c2.166,0,4.32,0.692,6.107,2.041l104.774,79.086c3.431,2.59,4.812,7.058,3.429,11.104
	c-1.381,4.045-5.218,6.769-9.535,6.769H114.127V254.514z"/>
<path style="opacity:0.1;fill:#414042;enable-background:new    ;" d="M137.563,244.799v-74.163l-17.332-13.082
	c-1.788-1.35-3.94-2.041-6.107-2.041c-1.52,0-3.048,0.34-4.463,1.032c-3.43,1.679-5.601,5.138-5.601,8.924v79.086
	c0,5.499,4.507,9.958,10.066,9.958h31.317C140.936,253.527,137.563,249.555,137.563,244.799z"/>
<g>
	<path style="fill:#F1F2F2;" d="M293.1,254.514c-4.316,0-8.154-2.724-9.536-6.769c-1.382-4.047-0.002-8.514,3.43-11.104
		l104.774-79.086c1.787-1.35,3.939-2.041,6.105-2.041c1.521,0,3.049,0.34,4.464,1.032c3.429,1.679,5.6,5.138,5.6,8.924v79.086
		c0,5.499-4.507,9.958-10.065,9.958H293.1V254.514z"/>
	<path style="fill:#F1F2F2;" d="M194.123,254.514c-3.86,0-7.381-2.184-9.06-5.62c-1.681-3.438-1.228-7.523,1.168-10.517
		l63.284-79.086c1.909-2.386,4.816-3.776,7.891-3.776s5.984,1.391,7.892,3.776l63.284,79.086c2.395,2.994,2.849,7.079,1.167,10.517
		c-1.679,3.437-5.2,5.62-9.059,5.62H194.123z"/>
</g>
<g>
	<ellipse style="fill:#FFC197;" cx="160.215" cy="392.485" rx="22.387" ry="22.344"/>
	<ellipse style="fill:#FFC197;" cx="351.786" cy="392.485" rx="22.387" ry="22.344"/>
</g>
<g>
</g>
<g>
</g>
<g>
</g>
<g>
</g>
<g>
</g>
<g>
</g>
<g>
</g>
<g>
</g>
<g>
</g>
<g>
</g>
<g>
</g>
<g>
</g>
<g>
</g>
<g>
</g>
<g>
</g>
</svg>
