<?xml version="1.0" encoding="iso-8859-1"?>
<!-- Generator: Adobe Illustrator 19.0.0, SVG Export Plug-In . SVG Version: 6.00 Build 0)  -->
<svg version="1.1" id="Layer_1" xmlns="http://www.w3.org/2000/svg" xmlns:xlink="http://www.w3.org/1999/xlink" x="0px" y="0px"
	 viewBox="0 0 512 512" style="enable-background:new 0 0 512 512;" xml:space="preserve">
<path style="fill:#ED5D51;" d="M27.519,96.6v374.525c0,14.228,11.461,25.762,25.6,25.762h405.76c14.139,0,25.6-11.534,25.6-25.762
	V96.6H27.519z"/>
<path style="opacity:0.5;fill:#AF322F;enable-background:new    ;" d="M413.607,462.929V427.16h70.873v-16.766h-70.873v-35.769
	h70.873v-16.766h-70.873v-35.769h70.873v-16.766h-70.873v-35.769h70.873v-16.766h-70.873V217.02h70.873v-16.766h-70.873v-35.769
	h70.873v-16.768h-70.873v-49.67c0-0.494-0.051-0.975-0.133-1.445h-16.501c-0.082,0.47-0.133,0.952-0.133,1.445v49.67h-83.835v-49.67
	c0-0.494-0.051-0.975-0.133-1.445h-16.5c-0.083,0.47-0.134,0.952-0.134,1.445v49.67h-83.834v-49.67c0-0.494-0.051-0.975-0.133-1.445
	h-16.5c-0.083,0.47-0.134,0.952-0.134,1.445v49.67h-83.833v-49.67c0-0.494-0.051-0.975-0.134-1.445h-16.5
	c-0.083,0.47-0.133,0.952-0.133,1.445v49.67H27.519v16.766h67.518v35.769H27.519v16.766h67.518v35.768H27.519v16.766h67.518v35.769
	H27.519v16.766h67.518v35.768H27.519v16.766h67.518v35.769H27.519v16.766h67.518v35.769H27.519v8.196
	c0,3.005,0.517,5.889,1.458,8.571h66.062v17.191h16.766v-17.191h83.833v17.191h16.766v-17.191h83.834v17.191h16.766v-17.191h83.835
	v17.191h16.766v-17.191h69.416c0.94-2.682,1.458-5.565,1.458-8.571v-8.196h-70.873V462.929z M195.638,462.929h-83.833V427.16h83.833
	V462.929z M195.638,410.394h-83.833v-35.769h83.833V410.394z M195.638,357.858h-83.833v-35.769h83.833V357.858z M195.638,305.323
	h-83.833v-35.769h83.833V305.323z M195.638,252.787h-83.833V217.02h83.833V252.787z M195.638,200.252h-83.833v-35.769h83.833
	V200.252z M296.24,462.929h-83.834V427.16h83.834V462.929z M296.24,410.394h-83.834v-35.769h83.834V410.394z M296.24,357.858
	h-83.834v-35.769h83.834V357.858z M296.24,305.323h-83.834v-35.769h83.834V305.323z M296.24,252.787h-83.834V217.02h83.834V252.787z
	 M296.24,200.252h-83.834v-35.769h83.834V200.252z M396.841,462.929h-83.835V427.16h83.835V462.929z M396.841,410.394h-83.835
	v-35.769h83.835V410.394z M396.841,357.858h-83.835v-35.769h83.835V357.858z M396.841,305.323h-83.835v-35.769h83.835V305.323z
	 M396.841,252.787h-83.835V217.02h83.835V252.787z M396.841,200.252h-83.835v-35.769h83.835V200.252z"/>
<path style="opacity:0.1;fill:#414042;enable-background:new    ;" d="M60.969,471.125V96.6H27.519v374.525
	c0,14.228,11.461,25.762,25.6,25.762h33.448C72.429,496.887,60.969,485.353,60.969,471.125z"/>
<path style="fill:#00997C;" d="M256,188.495c-83.953,0-152.255,68.656-152.255,153.045v155.346h304.509V341.54
	C408.254,257.151,339.953,188.495,256,188.495z"/>
<path style="fill:#007F67;" d="M256,215.443c-69.206,0-125.308,56.456-125.308,126.097v155.346h250.616V341.54
	C381.307,271.899,325.206,215.443,256,215.443z"/>
<path style="opacity:0.1;fill:#414042;enable-background:new    ;" d="M272.844,216.58c-5.51-0.745-11.13-1.137-16.844-1.137
	c-69.206,0-125.308,56.456-125.308,126.097v155.346h33.688V341.54C164.379,277.647,211.603,224.86,272.844,216.58z"/>
<path style="fill:#FFBE55;" d="M317.784,429.235c-4.422,0-12.066,8.17-18.379,18.263c-7.407-25.645-29.554-57.995-43.304-57.995
	c-10.851,0-33.936,30.978-42.511,56.336c-5.846-9.312-12.914-16.603-18.093-16.603c-8.489,0-28.861,30.086-28.861,46.125
	c0,8.538,3.66,16.213,9.487,21.526h161.034c5.826-5.313,9.488-12.988,9.488-21.526C346.644,459.321,328.31,429.235,317.784,429.235z
	"/>
<path style="fill:#FFFF55;" d="M225.363,496.887h62.182c-7.709-18.267-21.956-37.035-31.336-37.035
	C248.643,459.851,233.668,478.619,225.363,496.887z"/>
<path style="fill:#F1F2F2;" d="M512,98.309c0,11.488-9.356,20.799-20.898,20.799H20.898C9.356,119.107,0,109.796,0,98.309V35.912
	c0-11.488,9.356-20.799,20.898-20.799h470.204c11.542,0,20.898,9.312,20.898,20.799V98.309z"/>
<path style="opacity:0.1;fill:#414042;enable-background:new    ;" d="M43.655,98.309V35.912c0-11.488,9.357-20.799,20.898-20.799
	H20.898C9.356,15.113,0,24.425,0,35.912v62.397c0,11.488,9.356,20.799,20.898,20.799h43.655
	C53.011,119.106,43.655,109.795,43.655,98.309z"/>
<g>
	<polygon style="fill:#FFFF55;" points="219.432,350.957 225.729,362.472 237.245,368.77 225.729,375.069 219.432,386.585 
		213.134,375.069 201.618,368.77 213.134,362.472 	"/>
	<polygon style="fill:#FFFF55;" points="299.035,354.031 303.048,361.366 310.382,365.377 303.048,369.389 299.035,376.724 
		295.024,369.389 287.69,365.377 295.024,361.366 	"/>
</g>
<polygon style="fill:#FFFFFF;" points="275.322,285.103 281.62,296.619 293.136,302.916 281.62,309.214 275.322,320.73 
	269.024,309.214 257.508,302.916 269.024,296.619 "/>
<g>
</g>
<g>
</g>
<g>
</g>
<g>
</g>
<g>
</g>
<g>
</g>
<g>
</g>
<g>
</g>
<g>
</g>
<g>
</g>
<g>
</g>
<g>
</g>
<g>
</g>
<g>
</g>
<g>
</g>
</svg>
