<?xml version="1.0" encoding="iso-8859-1"?>
<!-- Generator: Adobe Illustrator 19.0.0, SVG Export Plug-In . SVG Version: 6.00 Build 0)  -->
<svg version="1.1" id="Layer_1" xmlns="http://www.w3.org/2000/svg" xmlns:xlink="http://www.w3.org/1999/xlink" x="0px" y="0px"
	 viewBox="0 0 512 512" style="enable-background:new 0 0 512 512;" xml:space="preserve">
<rect x="23.04" y="165.06" style="fill:#00B494;" width="465.93" height="344.325"/>
<g style="opacity:0.1;">
	<polygon style="fill:#414042;" points="68.963,465.529 68.963,165.057 23.035,165.057 23.035,509.38 488.965,509.38 
		488.965,465.529 	"/>
</g>
<g>
	<path style="fill:#00997C;" d="M129.278,237.884c-2.826-6.281-5.124-8.583-11.406-11.409c6.282-2.831,8.58-5.126,11.411-11.42
		c2.83,6.292,5.127,8.589,11.409,11.414C134.41,229.301,132.112,231.603,129.278,237.884z"/>
	<path style="fill:#00997C;" d="M93.336,289.288c-2.834-6.287-5.127-8.584-11.413-11.412c6.286-2.834,8.58-5.127,11.413-11.408
		c2.832,6.281,5.125,8.574,11.411,11.408C98.461,280.705,96.167,283.002,93.336,289.288z"/>
	<path style="fill:#00997C;" d="M59.056,237.884c-2.837-6.285-5.133-8.583-11.416-11.409c6.283-2.837,8.579-5.129,11.416-11.42
		c2.825,6.292,5.124,8.583,11.406,11.414C64.18,229.301,61.881,231.603,59.056,237.884z"/>
	<path style="fill:#00997C;" d="M168.079,266.46c2.829,6.28,5.125,8.583,11.406,11.409c-6.281,2.83-8.578,5.126-11.41,11.42
		c-2.83-6.293-5.128-8.59-11.408-11.414C162.947,275.043,165.245,272.739,168.079,266.46z"/>
	<path style="fill:#00997C;" d="M204.023,215.055c2.834,6.287,5.127,8.583,11.414,11.412c-6.287,2.834-8.581,5.127-11.414,11.408
		c-2.831-6.281-5.125-8.574-11.412-11.408C198.897,223.638,201.192,221.342,204.023,215.055z"/>
	<path style="fill:#00997C;" d="M238.301,266.46c2.838,6.285,5.133,8.583,11.417,11.409c-6.284,2.836-8.579,5.129-11.417,11.42
		c-2.824-6.293-5.122-8.584-11.406-11.414C233.179,275.043,235.477,272.739,238.301,266.46z"/>
	<path style="fill:#00997C;" d="M343.921,237.884c-2.827-6.281-5.124-8.583-11.406-11.409c6.282-2.831,8.579-5.126,11.411-11.42
		c2.83,6.292,5.127,8.589,11.409,11.414C349.053,229.301,346.755,231.603,343.921,237.884z"/>
	<path style="fill:#00997C;" d="M307.978,289.288c-2.835-6.287-5.127-8.584-11.414-11.412c6.287-2.834,8.58-5.127,11.414-11.408
		c2.832,6.281,5.124,8.574,11.411,11.408C313.103,280.705,310.81,283.002,307.978,289.288z"/>
	<path style="fill:#00997C;" d="M273.697,237.884c-2.837-6.285-5.133-8.583-11.416-11.409c6.283-2.837,8.579-5.129,11.416-11.42
		c2.825,6.292,5.124,8.583,11.406,11.414C278.823,229.301,276.524,231.603,273.697,237.884z"/>
	<path style="fill:#00997C;" d="M382.722,266.46c2.827,6.28,5.125,8.583,11.406,11.409c-6.281,2.83-8.579,5.126-11.411,11.42
		c-2.829-6.293-5.127-8.59-11.408-11.414C377.59,275.043,379.888,272.739,382.722,266.46z"/>
	<path style="fill:#00997C;" d="M418.664,215.055c2.835,6.287,5.129,8.583,11.414,11.412c-6.285,2.834-8.58,5.127-11.414,11.408
		c-2.83-6.281-5.124-8.574-11.411-11.408C413.54,223.638,415.835,221.342,418.664,215.055z"/>
	<path style="fill:#00997C;" d="M452.944,266.46c2.837,6.285,5.133,8.583,11.415,11.409c-6.283,2.836-8.579,5.129-11.415,11.42
		c-2.824-6.293-5.122-8.584-11.406-11.414C447.822,275.043,450.12,272.739,452.944,266.46z"/>
	<path style="fill:#00997C;" d="M129.278,336.413c-2.826-6.281-5.124-8.583-11.406-11.409c6.282-2.831,8.58-5.126,11.411-11.42
		c2.83,6.292,5.127,8.589,11.409,11.414C134.41,327.83,132.112,330.132,129.278,336.413z"/>
	<path style="fill:#00997C;" d="M93.336,387.816c-2.834-6.287-5.127-8.584-11.413-11.412c6.286-2.834,8.58-5.127,11.413-11.408
		c2.832,6.281,5.125,8.574,11.411,11.408C98.461,379.233,96.167,381.53,93.336,387.816z"/>
	<path style="fill:#00997C;" d="M59.056,336.413c-2.837-6.285-5.133-8.583-11.416-11.409c6.283-2.837,8.579-5.129,11.416-11.42
		c2.825,6.292,5.124,8.583,11.406,11.414C64.18,327.83,61.881,330.132,59.056,336.413z"/>
	<path style="fill:#00997C;" d="M168.079,364.989c2.829,6.281,5.125,8.583,11.406,11.409c-6.281,2.83-8.578,5.126-11.41,11.42
		c-2.83-6.292-5.128-8.59-11.408-11.414C162.947,373.571,165.245,371.268,168.079,364.989z"/>
	<path style="fill:#00997C;" d="M204.023,313.584c2.834,6.287,5.127,8.583,11.414,11.412c-6.287,2.834-8.581,5.127-11.414,11.408
		c-2.831-6.281-5.125-8.574-11.412-11.408C198.897,322.167,201.192,319.871,204.023,313.584z"/>
	<path style="fill:#00997C;" d="M238.301,364.989c2.838,6.285,5.133,8.583,11.417,11.409c-6.284,2.836-8.579,5.129-11.417,11.42
		c-2.824-6.292-5.122-8.584-11.406-11.414C233.179,373.571,235.477,371.268,238.301,364.989z"/>
	<path style="fill:#00997C;" d="M343.921,336.413c-2.827-6.281-5.124-8.583-11.406-11.409c6.282-2.831,8.579-5.126,11.411-11.42
		c2.83,6.292,5.127,8.589,11.409,11.414C349.053,327.83,346.755,330.132,343.921,336.413z"/>
	<path style="fill:#00997C;" d="M307.978,387.816c-2.835-6.287-5.127-8.584-11.414-11.412c6.287-2.834,8.58-5.127,11.414-11.408
		c2.832,6.281,5.124,8.574,11.411,11.408C313.103,379.233,310.81,381.53,307.978,387.816z"/>
	<path style="fill:#00997C;" d="M273.697,336.413c-2.837-6.285-5.133-8.583-11.416-11.409c6.283-2.837,8.579-5.129,11.416-11.42
		c2.825,6.292,5.124,8.583,11.406,11.414C278.823,327.83,276.524,330.132,273.697,336.413z"/>
	<path style="fill:#00997C;" d="M382.722,364.989c2.827,6.281,5.125,8.583,11.406,11.409c-6.281,2.83-8.579,5.126-11.411,11.42
		c-2.829-6.292-5.127-8.59-11.408-11.414C377.59,373.571,379.888,371.268,382.722,364.989z"/>
	<path style="fill:#00997C;" d="M418.664,313.584c2.835,6.287,5.129,8.583,11.414,11.412c-6.285,2.834-8.58,5.127-11.414,11.408
		c-2.83-6.281-5.124-8.574-11.411-11.408C413.54,322.167,415.835,319.871,418.664,313.584z"/>
	<path style="fill:#00997C;" d="M452.944,364.989c2.837,6.285,5.133,8.583,11.415,11.409c-6.283,2.836-8.579,5.129-11.415,11.42
		c-2.824-6.292-5.122-8.584-11.406-11.414C447.822,373.571,450.12,371.268,452.944,364.989z"/>
	<path style="fill:#00997C;" d="M129.278,434.941c-2.826-6.281-5.124-8.583-11.406-11.409c6.282-2.831,8.58-5.126,11.411-11.42
		c2.83,6.292,5.127,8.589,11.409,11.414C134.41,426.359,132.112,428.66,129.278,434.941z"/>
	<path style="fill:#00997C;" d="M93.336,486.345c-2.834-6.287-5.127-8.583-11.413-11.412c6.286-2.834,8.58-5.127,11.413-11.408
		c2.832,6.281,5.125,8.574,11.411,11.408C98.461,477.762,96.167,480.059,93.336,486.345z"/>
	<path style="fill:#00997C;" d="M59.056,434.941c-2.837-6.285-5.133-8.583-11.416-11.409c6.283-2.837,8.579-5.129,11.416-11.42
		c2.825,6.292,5.124,8.583,11.406,11.414C64.18,426.359,61.881,428.66,59.056,434.941z"/>
	<path style="fill:#00997C;" d="M168.079,463.517c2.829,6.281,5.125,8.583,11.406,11.409c-6.281,2.831-8.578,5.126-11.41,11.42
		c-2.83-6.292-5.128-8.589-11.408-11.414C162.947,472.099,165.245,469.797,168.079,463.517z"/>
	<path style="fill:#00997C;" d="M204.023,412.112c2.834,6.287,5.127,8.583,11.414,11.412c-6.287,2.834-8.581,5.127-11.414,11.408
		c-2.831-6.281-5.125-8.574-11.412-11.408C198.897,420.695,201.192,418.4,204.023,412.112z"/>
	<path style="fill:#00997C;" d="M238.301,463.517c2.838,6.285,5.133,8.583,11.417,11.409c-6.284,2.837-8.579,5.129-11.417,11.42
		c-2.824-6.292-5.122-8.583-11.406-11.414C233.179,472.099,235.477,469.797,238.301,463.517z"/>
	<path style="fill:#00997C;" d="M343.921,434.941c-2.827-6.281-5.124-8.583-11.406-11.409c6.282-2.831,8.579-5.126,11.411-11.42
		c2.83,6.292,5.127,8.589,11.409,11.414C349.053,426.359,346.755,428.66,343.921,434.941z"/>
	<path style="fill:#00997C;" d="M307.978,486.345c-2.835-6.287-5.127-8.583-11.414-11.412c6.287-2.834,8.58-5.127,11.414-11.408
		c2.832,6.281,5.124,8.574,11.411,11.408C313.103,477.762,310.81,480.059,307.978,486.345z"/>
	<path style="fill:#00997C;" d="M273.697,434.941c-2.837-6.285-5.133-8.583-11.416-11.409c6.283-2.837,8.579-5.129,11.416-11.42
		c2.825,6.292,5.124,8.583,11.406,11.414C278.823,426.359,276.524,428.66,273.697,434.941z"/>
	<path style="fill:#00997C;" d="M382.722,463.517c2.827,6.281,5.125,8.583,11.406,11.409c-6.281,2.831-8.579,5.126-11.411,11.42
		c-2.829-6.292-5.127-8.589-11.408-11.414C377.59,472.099,379.888,469.797,382.722,463.517z"/>
	<path style="fill:#00997C;" d="M418.664,412.112c2.835,6.287,5.129,8.583,11.414,11.412c-6.285,2.834-8.58,5.127-11.414,11.408
		c-2.83-6.281-5.124-8.574-11.411-11.408C413.54,420.695,415.835,418.4,418.664,412.112z"/>
	<path style="fill:#00997C;" d="M452.944,463.517c2.837,6.285,5.133,8.583,11.415,11.409c-6.283,2.837-8.579,5.129-11.415,11.42
		c-2.824-6.292-5.122-8.583-11.406-11.414C447.822,472.099,450.12,469.797,452.944,463.517z"/>
</g>
<rect x="203.327" y="165.06" style="fill:#F0D355;" width="105.336" height="344.325"/>
<path style="fill:#ED5D51;" d="M512,182.887c0,8.656-7.018,15.673-15.673,15.673H15.673C7.018,198.56,0,191.543,0,182.887v-73.143
	c0-8.656,7.018-15.673,15.673-15.673h480.653c8.656,0,15.673,7.018,15.673,15.673V182.887z"/>
<g style="opacity:0.1;">
	<path style="fill:#414042;" d="M53.29,182.887v-73.143c0-8.656,7.018-15.673,15.673-15.673h-53.29
		C7.018,94.071,0,101.088,0,109.744v73.143c0,8.656,7.018,15.673,15.673,15.673h53.29C60.307,198.56,53.29,191.543,53.29,182.887z"
		/>
</g>
<path style="fill:#DAC04E;" d="M395.231,2.615c-27.933,0-57.471,14.484-85.419,41.887c-13.055,12.8-22.858,25.5-28.441,33.328
	c-5.073-8.747-14.531-14.634-25.37-14.634s-20.298,5.887-25.37,14.634c-5.583-7.828-15.387-20.528-28.442-33.328
	c-27.948-27.402-57.486-41.887-85.42-41.887c-30.905,0-56.047,21.307-56.047,47.494c0,19.736,14.357,36.848,34.869,43.962h96.672
	v104.49h127.478V94.071h96.669c20.513-7.115,34.872-24.227,34.872-43.962C451.28,23.921,426.137,2.615,395.231,2.615z
	 M114.823,81.898c-0.257-0.04-0.518-0.067-0.784-0.08c-21.092-1.119-37.613-15.045-37.613-31.708
	c0-17.528,18.097-31.788,40.341-31.788c29.889,0,56.84,20.208,74.188,37.162c9.768,9.547,17.688,19.18,23.155,26.414h-99.287V81.898
	z M397.96,81.817c-0.264,0.014-0.526,0.041-0.784,0.08H297.89c5.467-7.234,13.386-16.868,23.155-26.414
	c31.426-30.717,57.688-37.162,74.186-37.162c22.246,0,40.344,14.259,40.344,31.788C435.574,66.771,419.052,80.697,397.96,81.817z"/>
<g>
</g>
<g>
</g>
<g>
</g>
<g>
</g>
<g>
</g>
<g>
</g>
<g>
</g>
<g>
</g>
<g>
</g>
<g>
</g>
<g>
</g>
<g>
</g>
<g>
</g>
<g>
</g>
<g>
</g>
</svg>
