<?xml version="1.0" encoding="iso-8859-1"?>
<!-- Generator: Adobe Illustrator 19.0.0, SVG Export Plug-In . SVG Version: 6.00 Build 0)  -->
<svg version="1.1" id="Layer_1" xmlns="http://www.w3.org/2000/svg" xmlns:xlink="http://www.w3.org/1999/xlink" x="0px" y="0px"
	 viewBox="0 0 512 512" style="enable-background:new 0 0 512 512;" xml:space="preserve">
<path style="fill:#D84F48;" d="M344.305,15.094c-9.517-9.453-24.956-9.453-34.473,0L280.376,44.34V24.205
	C280.376,10.837,269.466,0,256.002,0c-13.466,0-24.377,10.837-24.377,24.206v20.137l-29.457-29.247
	c-9.52-9.456-24.953-9.456-34.473,0c-9.52,9.452-9.52,24.78,0,34.233l31.099,30.882h114.412l31.099-30.882
	C353.825,39.875,353.825,24.549,344.305,15.094z"/>
<path style="fill:#ED5D51;" d="M93.647,512c-9.231,0-17.96-4.156-23.74-11.299c-33.877-41.863-52.532-94.535-52.532-148.312
	c0-51.726,16.488-100.875,47.687-142.136c30.147-39.875,73.066-69.856,120.849-84.417c2.894-0.882,5.907-1.33,8.936-1.33h122.311
	c3.028,0,6.039,0.449,8.936,1.33c47.782,14.563,90.702,44.542,120.847,84.417c31.196,41.261,47.687,90.411,47.687,142.136
	c0,53.777-18.657,106.448-52.533,148.312C436.312,507.844,427.58,512,418.352,512H93.647z"/>
<path style="opacity:0.1;fill:#414042;enable-background:new    ;" d="M116.256,500.7c-33.877-41.863-52.532-94.535-52.532-148.312
	c0-51.726,16.488-100.875,47.686-142.136c30.147-39.875,73.064-69.856,120.849-84.417c2.894-0.882,5.907-1.33,8.936-1.33h-46.35
	c-3.028,0-6.042,0.449-8.936,1.33c-47.783,14.563-90.701,44.542-120.849,84.417c-31.198,41.261-47.687,90.411-47.687,142.136
	c0,53.777,18.656,106.448,52.532,148.312C75.687,507.844,84.417,512,93.647,512h46.35C130.766,512,122.037,507.844,116.256,500.7z"
	/>
<path style="fill:#007F67;" d="M346.023,102.976c0,14.438-11.788,26.144-26.328,26.144H192.303
	c-14.539,0-26.326-11.705-26.326-26.144l0,0c0-14.438,11.788-26.144,26.326-26.144h127.392
	C334.236,76.831,346.023,88.536,346.023,102.976L346.023,102.976z"/>
<g>
	<rect x="264.088" y="76.831" style="fill:#00B494;" width="23.669" height="52.287"/>
	<rect x="224.246" y="76.831" style="fill:#00B494;" width="23.668" height="52.287"/>
	<path style="fill:#00B494;" d="M208.079,76.831h-15.776c-14.539,0-26.326,11.705-26.326,26.144
		c0,14.438,11.788,26.144,26.326,26.144h15.776V76.831z"/>
	<path style="fill:#00B494;" d="M319.695,76.831h-15.774v52.288h15.774c14.541,0,26.328-11.705,26.328-26.144
		C346.023,88.536,334.236,76.831,319.695,76.831z"/>
</g>
<g>
	<polygon style="fill:#F1F2F2;" points="233.751,309.252 196.952,272.884 140.987,272.884 177.786,309.252 	"/>
	<polygon style="fill:#F1F2F2;" points="245.35,297.984 245.35,242.669 208.455,206.209 208.455,261.52 	"/>
	<polygon style="fill:#F1F2F2;" points="309.914,272.884 273.116,309.252 329.8,309.252 365.879,272.884 	"/>
	<polygon style="fill:#F1F2F2;" points="261.519,297.98 298.411,261.52 298.411,206.209 261.519,242.668 	"/>
	<polygon style="fill:#F1F2F2;" points="273.113,325.421 309.911,361.786 365.879,361.786 328.333,325.421 	"/>
	<polygon style="fill:#F1F2F2;" points="233.752,325.421 177.785,325.421 140.987,361.786 196.955,361.786 	"/>
	<polygon style="fill:#F1F2F2;" points="261.519,336.694 261.519,392.717 298.411,428.464 298.411,373.153 	"/>
	<polygon style="fill:#F1F2F2;" points="245.35,336.691 208.455,373.154 208.455,428.464 245.35,391.258 	"/>
</g>
<g>
</g>
<g>
</g>
<g>
</g>
<g>
</g>
<g>
</g>
<g>
</g>
<g>
</g>
<g>
</g>
<g>
</g>
<g>
</g>
<g>
</g>
<g>
</g>
<g>
</g>
<g>
</g>
<g>
</g>
</svg>
