<?xml version="1.0" encoding="iso-8859-1"?>
<!-- Generator: Adobe Illustrator 19.0.0, SVG Export Plug-In . SVG Version: 6.00 Build 0)  -->
<svg version="1.1" id="Layer_1" xmlns="http://www.w3.org/2000/svg" xmlns:xlink="http://www.w3.org/1999/xlink" x="0px" y="0px"
	 viewBox="0 0 512 512" style="enable-background:new 0 0 512 512;" xml:space="preserve">
<path style="fill:#FFFFFF;" d="M457.139,233.468v-29.765C442.397,95.967,365.277,0,251.955,0
	C138.636,0,62.956,93.101,46.772,203.703v29.764h410.367V233.468z"/>
<path style="fill:#F47973;" d="M457.139,233.468v-29.765C442.397,95.967,365.277,0,251.955,0
	C138.636,0,62.956,93.101,46.772,203.703v29.764h410.367V233.468z"/>
<path style="fill:#ED5D51;" d="M429.951,116.444l-7.936-7.887l-16.15,16.05l16.15,16.049l13.255-13.172
	C433.579,123.756,431.806,120.073,429.951,116.444z"/>
<path style="fill:#FFFFFF;" d="M379.206,49.41l-10.415,6.432l-31.87-19.683c-4.339-2.682-9.82-2.68-14.159,0l-31.872,19.683
	L259.02,36.16c-4.338-2.68-9.82-2.68-14.16,0l-31.868,19.683L181.129,36.16c-4.339-2.68-9.822-2.68-14.161,0l-31.87,19.683
	l-10.741-6.634c-6.78,6.149-13.176,12.778-19.171,19.833l22.83,14.101c4.338,2.68,9.82,2.681,14.16,0l31.87-19.683l31.863,19.683
	c4.339,2.68,9.821,2.681,14.161,0l31.869-19.683l31.869,19.683c2.17,1.342,4.625,2.011,7.079,2.011c2.456,0,4.911-0.671,7.08-2.011
	l31.871-19.683l31.87,19.683c4.338,2.68,9.82,2.68,14.16,0l22.589-13.95C392.44,62.166,386.012,55.556,379.206,49.41z"/>
<path style="fill:#FFE2C5;" d="M66.059,178.636v154.137C66.059,431.756,146.864,512,246.542,512h10.826
	c99.679,0,180.485-80.244,180.485-179.227V178.636H66.059z"/>
<g>
	<path style="fill:#636052;" d="M192.297,338.879c0,12.063-9.82,21.843-21.934,21.843l0,0c-12.115,0-21.933-9.779-21.933-21.843l0,0
		c0-12.06,9.819-21.841,21.933-21.841l0,0C182.477,317.038,192.297,326.819,192.297,338.879L192.297,338.879z"/>
	<path style="fill:#636052;" d="M351.607,337.833c0,12.063-9.819,21.841-21.932,21.841l0,0c-12.111,0-21.936-9.778-21.936-21.842
		l0,0c0-12.061,9.824-21.839,21.936-21.839l0,0C341.788,315.994,351.607,325.772,351.607,337.833L351.607,337.833z"/>
	<path style="fill:#636052;" d="M251.955,443.347c-24.043,0-43.604-19.414-43.604-43.278c0-4.465,3.62-8.083,8.084-8.083
		s8.084,3.618,8.084,8.083c0,14.949,12.308,27.11,27.436,27.11s27.436-12.162,27.436-27.11c0-4.465,3.62-8.083,8.084-8.083
		c4.464,0,8.084,3.618,8.084,8.083C295.56,423.933,275.999,443.347,251.955,443.347z"/>
</g>
<g>
	<ellipse style="fill:#FFC197;" cx="134.771" cy="395.954" rx="27.387" ry="27.14"/>
	<ellipse style="fill:#FFC197;" cx="369.142" cy="395.954" rx="27.387" ry="27.14"/>
</g>
<path style="opacity:0.1;fill:#414042;enable-background:new    ;" d="M99.705,332.773V178.636H66.059v154.137
	C66.059,431.756,146.864,512,246.542,512h10.826c3.834,0,7.636-0.133,11.41-0.367C174.417,505.786,99.705,427.948,99.705,332.773z"
	/>
<path style="fill:#C69C6D;" d="M49.548,228.833c-20.452,23.863-32.83,54.951-32.83,88.959c0,59.299,37.611,109.736,90.098,128.422
	c-25.47-30.899-40.757-70.396-40.757-113.441v-58.458c29.258,11.282,63.427,17.767,99.937,17.767
	c55.748,0,106.047-15.11,141.71-39.352c29.461,27.258,73.257,44.542,122.167,44.542c2.676,0,5.335-0.055,7.979-0.157v35.658
	c0,44.632-16.434,85.45-43.614,116.824c58.126-15.218,101.043-68.46,101.043-131.806c0-34.01-12.383-65.096-32.837-88.959H49.548z"
	/>
<g>
	<path style="fill:#ED5D51;" d="M60.901,245.222c-30.973,0-34.24-13.283-34.24-44.032c0-13.389,10.934-24.245,24.423-24.245h401.743
		c13.49,0,24.423,10.855,24.423,24.245c0,30.749-2.723,44.032-33.697,44.032H60.901z"/>
	<polygon style="fill:#ED5D51;" points="152.503,140.657 136.354,124.608 152.503,108.559 168.652,124.608 	"/>
</g>
<circle style="fill:#00B494;" cx="219.366" cy="124.604" r="21.558"/>
<polygon style="fill:#ED5D51;" points="287.26,140.657 271.11,124.608 287.26,108.559 303.408,124.608 "/>
<g>
	<circle style="fill:#00B494;" cx="354.126" cy="124.604" r="21.558"/>
	<circle style="fill:#00B494;" cx="84.615" cy="124.604" r="21.558"/>
</g>
<path style="opacity:0.1;fill:#414042;enable-background:new    ;" d="M60.872,201.19c0-13.389,10.934-24.245,24.423-24.245h0.852
	C108.484,84.021,174.154,8.896,268.939,0.747C263.372,0.262,257.714,0,251.955,0C147.909,0,75.603,78.49,51.937,176.945h-0.852
	c-13.49,0-24.423,10.855-24.423,24.245c0,30.749,3.267,44.032,34.24,44.032h34.211C64.139,245.222,60.872,231.939,60.872,201.19z"/>
<g>
</g>
<g>
</g>
<g>
</g>
<g>
</g>
<g>
</g>
<g>
</g>
<g>
</g>
<g>
</g>
<g>
</g>
<g>
</g>
<g>
</g>
<g>
</g>
<g>
</g>
<g>
</g>
<g>
</g>
</svg>
