<?xml version="1.0" encoding="iso-8859-1"?>
<!-- Generator: Adobe Illustrator 19.0.0, SVG Export Plug-In . SVG Version: 6.00 Build 0)  -->
<svg version="1.1" id="Layer_1" xmlns="http://www.w3.org/2000/svg" xmlns:xlink="http://www.w3.org/1999/xlink" x="0px" y="0px"
	 viewBox="0 0 512 512" style="enable-background:new 0 0 512 512;" xml:space="preserve">
<path style="fill:#D84F48;" d="M28.739,365.121h393.443c1.805-7.059,2.768-14.438,2.768-22.031
	c0-50.568-42.464-80.508-94.689-80.567c0,0-43.773-1.045-43.849-1.045c-17.315,0-45.644-25.384-50.264-44.168L199.576,51.735
	c-1.862-8.394-9.143-14.372-17.763-14.372H44.348c-10.149,0-18.377,8.207-18.377,18.331v279.487c0,1.229,0.055,2.375,0.127,3.413
	c-0.086,1.604-0.127,3.088-0.127,4.496C25.97,350.681,26.934,358.061,28.739,365.121z"/>
<path style="fill:#F1F2F2;" d="M492.117,341.155c-10.982,0-19.883,8.877-19.883,19.831c0,40.798-34.88,73.988-77.755,73.988h-48.83
	v-41.783c0-10.953-8.903-19.83-19.882-19.83c-10.983,0-19.883,8.877-19.883,19.83v41.783H156.821v-41.783
	c0-10.953-8.901-19.83-19.883-19.83s-19.883,8.877-19.883,19.83v41.783H19.883C8.901,434.973,0,443.851,0,454.804
	c0,10.953,8.901,19.832,19.883,19.832h374.594C459.28,474.637,512,423.653,512,360.985C512,350.032,503.097,341.155,492.117,341.155
	z"/>
<g style="opacity:0.1;">
	<path style="fill:#414042;" d="M32.392,454.804c0-10.953,8.901-19.83,19.883-19.83H19.883C8.901,434.973,0,443.851,0,454.804
		c0,10.953,8.901,19.832,19.883,19.832h32.392C41.293,474.637,32.392,465.757,32.392,454.804z"/>
</g>
<path style="fill:#F1F2F2;" d="M330.26,251.319c0,0-43.773-0.535-43.849-0.535c-17.315,0-34.447-14.69-39.067-33.473L210.633,51.735
	c-1.862-8.394-9.323-14.372-17.944-14.372h-21.461v166.559c0,1.227,0.054,2.375,0.127,3.411c-0.086,1.606-0.127,3.088-0.127,4.498
	c0,50.604,42.53,91.773,94.808,91.773h149.681C400.456,272.741,367.894,251.362,330.26,251.319z"/>
<g>
	<path style="fill:#00B494;" d="M316.901,271.267c9.823,0,17.784-7.963,17.784-17.785c0-0.696-0.05-1.379-0.128-2.055
		c-1.425-0.064-2.857-0.107-4.298-0.109c0,0-18.007-0.22-30.941-0.377c-0.119,0.833-0.203,1.676-0.203,2.541
		C299.116,263.304,307.078,271.267,316.901,271.267z"/>
	<path style="fill:#00B494;" d="M276.395,249.18c-10.607-3.37-20.174-11.781-25.595-22.566c-4.967,3.156-8.273,8.689-8.273,15.01
		c0,9.822,7.962,17.785,17.785,17.785C267.429,259.411,273.553,255.218,276.395,249.18z"/>
	<path style="fill:#00B494;" d="M233.364,199.047c3.43,0,6.622-0.985,9.339-2.67l-7.266-32.769
		c-0.681-0.079-1.371-0.131-2.073-0.131c-9.822,0-17.785,7.963-17.785,17.785C215.579,191.084,223.541,199.047,233.364,199.047z"/>
	<path style="fill:#00B494;" d="M201.566,115.51c0,9.822,7.963,17.785,17.785,17.785c3.221,0,6.234-0.869,8.84-2.366l-7.346-33.128
		c-0.494-0.041-0.991-0.075-1.495-0.075C209.529,97.726,201.566,105.687,201.566,115.51z"/>
</g>
<path style="fill:#F1F2F2;" d="M28.739,365.121h131.276c-14.008-45.606-56.46-78.763-106.659-78.763
	c-9.45,0-18.622,1.18-27.386,3.392v45.432c0,1.229,0.055,2.375,0.127,3.413c-0.086,1.604-0.127,3.088-0.127,4.496
	C25.97,350.681,26.934,358.061,28.739,365.121z"/>
<path style="fill:#00B494;" d="M438.533,383.54c0,10.021-8.124,18.14-18.14,18.14H34.48c-10.02,0-18.142-8.121-18.142-18.14l0,0
	c0-10.018,8.122-18.14,18.142-18.14h385.912C430.408,365.4,438.533,373.523,438.533,383.54L438.533,383.54z"/>
<g>
	<path style="opacity:0.1;fill:#414042;enable-background:new    ;" d="M49.055,383.54c0-10.018,8.122-18.14,18.142-18.14H34.48
		c-10.02,0-18.142,8.122-18.142,18.14c0,10.021,8.122,18.14,18.142,18.14h32.717C57.177,401.682,49.055,393.561,49.055,383.54z"/>
	<path style="opacity:0.1;fill:#414042;enable-background:new    ;" d="M59.793,338.594c-0.073-1.037-0.127-2.184-0.127-3.413
		V55.694c0-7.479,4.497-13.902,10.937-16.753v-1.578H44.348c-10.149,0-18.377,8.207-18.377,18.331v279.487
		c0,1.229,0.055,2.375,0.127,3.413c-0.086,1.604-0.127,3.088-0.127,4.496c0,7.592,0.964,14.971,2.768,22.031h33.695
		c-1.805-7.059-2.768-14.438-2.768-22.031C59.666,341.682,59.708,340.198,59.793,338.594z"/>
</g>
<g>
</g>
<g>
</g>
<g>
</g>
<g>
</g>
<g>
</g>
<g>
</g>
<g>
</g>
<g>
</g>
<g>
</g>
<g>
</g>
<g>
</g>
<g>
</g>
<g>
</g>
<g>
</g>
<g>
</g>
</svg>
