<?xml version="1.0" encoding="iso-8859-1"?>
<!-- Generator: Adobe Illustrator 19.0.0, SVG Export Plug-In . SVG Version: 6.00 Build 0)  -->
<svg version="1.1" id="Layer_1" xmlns="http://www.w3.org/2000/svg" xmlns:xlink="http://www.w3.org/1999/xlink" x="0px" y="0px"
	 viewBox="0 0 512 512" style="enable-background:new 0 0 512 512;" xml:space="preserve">
<path style="fill:#E0594D;" d="M305.316,53.978C292.143,40.806,274.628,33.551,256,33.551s-36.143,7.254-49.316,20.427
	c-27.191,27.192-27.19,71.44,0.001,98.632c13.172,13.173,30.687,20.428,49.315,20.428c18.629,0,36.143-7.254,49.316-20.428
	C332.508,125.415,332.508,81.171,305.316,53.978z"/>
<path style="fill:#00B494;" d="M9.381,379.84c10.598,28.297,11.955,56.981,5.684,80.253c22.355-5.792,49.6-4.116,76.425,6.406
	c8.494,3.327,16.348,7.402,23.647,11.948l0.657-0.32c12.957-15.227,31.138-28.436,53.059-37.022
	c13.165-5.172,26.416-8.17,39.165-9.24c1.043-13.035,3.974-26.604,9.024-40.077c8.532-22.802,21.721-41.643,36.906-54.942
	c-16.358-19.574-26.794-49.169-26.794-82.303c0.01-3.048,0.153-6.03,0.321-9.019c-2.91,0.175-5.835,0.318-8.82,0.327
	c-32.243-0.009-61.061-10.602-80.198-27.236c-12.768,14.079-30.099,26.211-50.714,34.29c-13.154,5.176-26.415,8.168-39.162,9.245
	c-1.044,13.027-3.975,26.602-9.024,40.068C30.525,326.353,16.311,346.155,0,359.517C3.524,365.875,6.694,372.653,9.381,379.84z"/>
<path style="fill:#00997C;" d="M101.775,382.417c-2.039,0-4.077-0.765-5.65-2.303c-3.193-3.12-3.253-8.239-0.132-11.432
	l133.431-136.541c3.119-3.192,8.238-3.252,11.431-0.132c3.194,3.121,3.253,8.24,0.133,11.432L107.558,379.984
	C105.974,381.603,103.875,382.417,101.775,382.417z"/>
<path style="fill:#ED5D51;" d="M239.883,168.235c-13.171-13.172-30.687-20.428-49.315-20.428s-36.143,7.255-49.316,20.428
	c-27.191,27.192-27.19,71.439,0.001,98.632c13.173,13.172,30.687,20.428,49.315,20.428c18.629,0,36.144-7.255,49.316-20.428
	C267.078,239.673,267.078,195.428,239.883,168.235z"/>
<g style="opacity:0.1;">
	<path style="fill:#414042;" d="M277.56,151.146c-18.629,0-36.143-7.254-49.315-20.428c-23.339-23.339-26.627-59.233-9.902-86.134
		c-4.161,2.681-8.076,5.81-11.659,9.393c-27.191,27.192-27.19,71.44,0.001,98.632c13.172,13.173,30.687,20.428,49.315,20.428
		c18.63,0,36.143-7.254,49.316-20.428c3.854-3.854,7.139-8.056,9.9-12.497C304.082,147.286,291.121,151.146,277.56,151.146z"/>
</g>
<g style="opacity:0.1;">
	<path style="fill:#414042;" d="M212.129,265.404c-18.629,0-36.142-7.255-49.315-20.428c-23.339-23.34-26.626-59.233-9.901-86.134
		c-4.162,2.68-8.076,5.81-11.66,9.393c-27.191,27.192-27.19,71.439,0.001,98.632c13.173,13.172,30.687,20.428,49.315,20.428
		c18.629,0,36.144-7.255,49.316-20.428c3.853-3.854,7.14-8.057,9.901-12.498C238.65,261.543,225.69,265.404,212.129,265.404z"/>
</g>
<g style="opacity:0.1;">
	<path style="fill:#414042;" d="M89.901,425.161C48.83,384.089,50.285,313.257,88.689,252.52c-0.318,0.126-0.629,0.261-0.948,0.387
		c-13.154,5.176-26.415,8.168-39.162,9.245c-1.044,13.027-3.975,26.602-9.024,40.068C30.525,326.353,16.311,346.155,0,359.517
		c3.524,6.357,6.694,13.134,9.381,20.321c10.598,28.297,11.955,56.981,5.684,80.253c22.355-5.792,49.6-4.116,76.425,6.406
		c8.494,3.327,16.348,7.402,23.647,11.948l0.657-0.32c7.813-9.181,17.535-17.618,28.82-24.761
		C123.718,449.411,104.84,440.1,89.901,425.161z"/>
</g>
<path style="fill:#00B494;" d="M502.618,379.84c-10.598,28.297-11.954,56.981-5.683,80.253c-22.356-5.794-49.6-4.116-76.426,6.404
	c-8.493,3.329-16.35,7.404-23.646,11.952l-0.657-0.32c-12.957-15.229-31.139-28.436-53.059-37.022
	c-13.166-5.172-26.416-8.17-39.165-9.24c-1.043-13.035-3.974-26.606-9.024-40.077c-8.533-22.802-21.721-41.644-36.905-54.944
	c16.357-19.573,26.794-49.167,26.794-82.301c-0.01-3.048-0.154-6.03-0.321-9.021c2.91,0.175,5.835,0.32,8.82,0.328
	c32.242-0.009,61.06-10.602,80.198-27.236c12.769,14.077,30.099,26.211,50.714,34.29c13.154,5.176,26.415,8.167,39.161,9.242
	c1.045,13.028,3.976,26.605,9.025,40.071c9.03,24.133,23.244,43.937,39.556,57.299C508.477,365.875,505.306,372.653,502.618,379.84z
	"/>
<g style="opacity:0.1;">
	<path style="fill:#414042;" d="M500.686,385.318c-2.353,2.978-4.88,5.842-7.606,8.568c-50.096,50.094-144.47,36.939-210.791-29.384
		c-0.843-0.843-1.672-1.693-2.496-2.543c5.925,8.926,11.083,18.918,15.167,29.831c5.05,13.472,7.981,27.042,9.024,40.077
		c12.749,1.07,26,4.068,39.165,9.24c21.921,8.586,40.102,21.791,53.059,37.022l0.657,0.32c7.297-4.547,15.153-8.623,23.646-11.952
		c26.826-10.52,54.07-12.198,76.426-6.404C491.07,438.322,491.882,411.814,500.686,385.318z"/>
</g>
<path style="fill:#00AB8C;" d="M258.435,336.376c-0.129,0.155-0.253,0.316-0.381,0.469c0.698,0.611,1.387,1.247,2.075,1.882
	C259.555,337.947,258.995,337.161,258.435,336.376z"/>
<path style="fill:#00997C;" d="M412.236,384.43c-2.1,0-4.197-0.814-5.782-2.434L273.022,245.452
	c-3.12-3.194-3.062-8.311,0.133-11.432c3.192-3.119,8.31-3.061,11.431,0.132l133.431,136.543c3.12,3.194,3.062,8.312-0.132,11.432
	C416.314,383.665,414.276,384.43,412.236,384.43z"/>
<path style="fill:#D84F48;" d="M370.747,168.235c-13.173-13.172-30.688-20.428-49.316-20.428c-18.628,0-36.143,7.255-49.315,20.428
	c-27.192,27.192-27.192,71.438,0,98.632c13.172,13.172,30.687,20.428,49.315,20.428c18.63,0,36.144-7.255,49.316-20.428
	c13.173-13.173,20.428-30.688,20.428-49.316C391.174,198.922,383.92,181.406,370.747,168.235z"/>
<g style="opacity:0.1;">
	<path style="fill:#414042;" d="M342.992,265.404c-18.631,0-36.144-7.255-49.316-20.428c-23.34-23.341-26.626-59.234-9.9-86.134
		c-4.161,2.68-8.076,5.81-11.659,9.393c-27.192,27.192-27.192,71.438,0,98.632c13.172,13.172,30.687,20.428,49.315,20.428
		c18.631,0,36.144-7.255,49.316-20.428c3.831-3.831,7.144-8.037,9.941-12.522C369.545,261.533,356.569,265.404,342.992,265.404z"/>
</g>
<g>
	<path style="fill:#FFFFFF;" d="M287.808,51.517c-3.488-0.768-6.469-0.133-8.392,1.791c-1.925,1.924-2.559,4.904-1.792,8.393
		c1.588,7.202,8.736,14.352,15.939,15.939c3.49,0.768,6.469,0.133,8.394-1.791c1.923-1.924,2.559-4.904,1.79-8.393
		C302.16,60.252,295.01,53.103,287.808,51.517z"/>
	<path style="fill:#FFFFFF;" d="M354.681,167.91c-3.488-0.768-6.469-0.133-8.392,1.791c-1.925,1.924-2.559,4.904-1.792,8.393
		c1.588,7.202,8.736,14.352,15.939,15.939c3.49,0.768,6.469,0.133,8.394-1.791c1.923-1.924,2.559-4.904,1.79-8.393
		C369.034,176.647,361.884,169.498,354.681,167.91z"/>
	<path style="fill:#FFFFFF;" d="M224.069,167.91c-3.488-0.768-6.469-0.133-8.393,1.791s-2.559,4.904-1.791,8.393
		c1.587,7.202,8.736,14.352,15.938,15.939c3.49,0.768,6.469,0.133,8.394-1.791c1.923-1.924,2.559-4.904,1.79-8.393
		C238.422,176.647,231.271,169.498,224.069,167.91z"/>
</g>
<g>
</g>
<g>
</g>
<g>
</g>
<g>
</g>
<g>
</g>
<g>
</g>
<g>
</g>
<g>
</g>
<g>
</g>
<g>
</g>
<g>
</g>
<g>
</g>
<g>
</g>
<g>
</g>
<g>
</g>
</svg>
