<?xml version="1.0" encoding="iso-8859-1"?>
<!-- Generator: Adobe Illustrator 19.0.0, SVG Export Plug-In . SVG Version: 6.00 Build 0)  -->
<svg version="1.1" id="Layer_1" xmlns="http://www.w3.org/2000/svg" xmlns:xlink="http://www.w3.org/1999/xlink" x="0px" y="0px"
	 viewBox="0 0 512.001 512.001" style="enable-background:new 0 0 512.001 512.001;" xml:space="preserve">
<path style="fill:#ED5D51;" d="M470,52.201c-56-56.496-146.794-56.497-202.794-0.001l-72.714,73.357
	c-6.048-22.758-26.626-39.518-51.093-39.518c-29.218,0-52.905,23.895-52.905,53.374l-0.001,91.064l-30.91,31.184l30.909,31.183
	v11.661l6.735-4.866l165.15,166.611L470,256.79C526.001,200.295,526.001,108.697,470,52.201z"/>
<g>
	<path style="fill:#FFFFFF;" d="M483.931,240.49c-0.678-0.304-1.407-0.526-2.181-0.634l-38.868-5.485l-6.281-45.306l-44.905-6.333
		l-6.277-45.301l-44.905-6.333l-6.276-45.303l-44.9-6.329l-5.436-39.253c-0.1-0.722-0.301-1.404-0.572-2.045
		c-4.976,3.723-9.765,7.815-14.335,12.269l6.001,43.336l44.901,6.329l6.276,45.302l44.905,6.333l6.277,45.301l44.907,6.333
		l6.281,45.305l43.382,6.121C476.282,250.234,480.286,245.453,483.931,240.49z"/>
	<path style="fill:#FFFFFF;" d="M429.605,292.465l-38.869-5.485l-6.281-45.307l-44.904-6.333l-6.276-45.302l-44.906-6.333
		l-6.277-45.303l-44.9-6.328l-5.437-39.253c-0.179-1.297-0.665-2.474-1.361-3.484l-13.55,13.669l6.007,43.376l44.9,6.328
		l6.277,45.302l44.906,6.333l6.276,45.301l44.906,6.333l6.281,45.306l43.425,6.126l13.38-13.498
		C432.171,293.169,430.952,292.654,429.605,292.465z"/>
	<rect x="314.828" y="40.501" style="fill:#FFFFFF;" width="17.083" height="17.234"/>
	<rect x="364.335" y="90.447" style="fill:#FFFFFF;" width="17.083" height="17.233"/>
	<rect x="413.843" y="140.393" style="fill:#FFFFFF;" width="17.083" height="17.232"/>
	<rect x="463.35" y="190.339" style="fill:#FFFFFF;" width="17.084" height="17.233"/>
</g>
<path style="fill:#F1F2F2;" d="M266.807,494.1c-10.668,10.761-27.96,10.761-38.628,0L8,271.975
	c-10.666-10.76-10.667-28.208,0-38.969l40.56-40.917c10.667-10.762,27.96-10.761,38.627,0l220.178,222.125
	c10.667,10.76,10.667,28.208,0,38.969L266.807,494.1z"/>
<g>
	<path style="opacity:0.1;fill:#414042;enable-background:new    ;" d="M31.175,294.376c-10.666-10.761-10.667-28.208,0-38.969
		l40.559-40.918c9.191-9.271,23.295-10.547,33.847-3.844l-18.394-18.556c-10.666-10.761-27.959-10.762-38.627,0L8,233.005
		c-10.667,10.761-10.666,28.209,0,38.969l45.191,45.037c-1.201-1.211-2.259-2.512-3.19-3.875L31.175,294.376z"/>
	<path style="opacity:0.1;fill:#414042;enable-background:new    ;" d="M143.398,119.866c24.468,0,45.046,16.76,51.093,39.518
		l72.714-73.357c56-56.496,146.794-56.494,202.794,0.001c23.737,23.946,37.393,54.2,41.004,85.413
		c4.936-42.447-8.723-86.673-41.004-119.24c-56-56.496-146.794-56.497-202.794-0.001l-72.714,73.357
		c-6.048-22.758-26.626-39.518-51.093-39.518c-29.218,0-52.905,23.895-52.905,53.374v33.825
		C90.493,143.761,114.178,119.866,143.398,119.866z"/>
</g>
<g>
</g>
<g>
</g>
<g>
</g>
<g>
</g>
<g>
</g>
<g>
</g>
<g>
</g>
<g>
</g>
<g>
</g>
<g>
</g>
<g>
</g>
<g>
</g>
<g>
</g>
<g>
</g>
<g>
</g>
</svg>
