<?xml version="1.0" encoding="iso-8859-1"?>
<!-- Generator: Adobe Illustrator 19.0.0, SVG Export Plug-In . SVG Version: 6.00 Build 0)  -->
<svg version="1.1" id="Layer_1" xmlns="http://www.w3.org/2000/svg" xmlns:xlink="http://www.w3.org/1999/xlink" x="0px" y="0px"
	 viewBox="0 0 512 512" style="enable-background:new 0 0 512 512;" xml:space="preserve">
<g>
	<path style="fill:#FCD4B1;" d="M114.962,292.354c-2.266-0.393-4.593-0.605-6.972-0.599c-22.228,0.056-40.202,18.194-40.145,40.511
		c0.059,22.318,18.123,40.364,40.351,40.308c2.307-0.007,4.567-0.218,6.767-0.598v-79.622H114.962z"/>
	<path style="fill:#FCD4B1;" d="M403.805,290.999c-1.925,0.004-3.814,0.154-5.665,0.42V371.4c1.917,0.277,3.877,0.423,5.871,0.418
		c22.228-0.056,40.201-18.194,40.144-40.514C444.097,308.988,426.033,290.941,403.805,290.999z"/>
</g>
<path style="fill:#FFFF55;" d="M299.52,43.61c0,24.082-19.485,43.61-43.524,43.61c-24.031,0-43.516-19.528-43.516-43.61
	C212.48,19.522,231.965,0,255.996,0C280.035,0,299.52,19.522,299.52,43.61z"/>
<path style="opacity:0.1;fill:#414042;enable-background:new    ;" d="M246.299,43.61c0-18.077,10.975-33.582,26.608-40.195
	C267.708,1.216,261.995,0,255.996,0c-24.031,0-43.516,19.522-43.516,43.61c0,24.082,19.485,43.61,43.516,43.61
	c5.999,0,11.712-1.217,16.912-3.416C257.274,77.19,246.299,61.682,246.299,43.61z"/>
<path style="fill:#ED5D51;" d="M403.806,245.258V80.896c0-16.311-13.235-29.533-29.561-29.533H137.754
	c-16.327,0-29.561,13.222-29.561,29.533v164.362H403.806z"/>
<path style="fill:#00B494;" d="M374.246,51.363h-17.525L256,109.459L155.279,51.363h-17.525c-16.327,0-29.561,13.222-29.561,29.533
	v19.032L256,185.181l147.806-85.253V80.896C403.806,64.585,390.571,51.363,374.246,51.363z"/>
<path style="opacity:0.1;fill:#414042;enable-background:new    ;" d="M171.304,51.363h-33.55
	c-16.327,0-29.561,13.222-29.561,29.533v164.362h33.55V80.896C141.744,64.585,154.978,51.363,171.304,51.363z"/>
<path style="fill:#FFE2C5;" d="M100.474,231.34v129.766C100.474,444.443,168.077,512,251.47,512h9.058
	c83.393,0,150.998-67.557,150.998-150.893V231.34H100.474z"/>
<path style="opacity:0.1;fill:#414042;enable-background:new    ;" d="M134.198,361.107V231.34h-33.724v129.766
	C100.474,444.443,168.077,512,251.47,512h9.058c4.153,0,8.265-0.174,12.333-0.503C195.237,505.226,134.198,440.294,134.198,361.107z
	"/>
<g>
	<path style="fill:#636052;" d="M206.087,338.745c0,10.156-8.215,18.39-18.352,18.39l0,0c-10.134,0-18.349-8.234-18.349-18.39l0,0
		c0-10.153,8.215-18.389,18.349-18.389l0,0C197.872,320.356,206.087,328.592,206.087,338.745L206.087,338.745z"/>
	<path style="fill:#636052;" d="M339.371,337.866c0,10.155-8.215,18.389-18.35,18.389l0,0c-10.132,0-18.352-8.234-18.352-18.389l0,0
		c0-10.154,8.219-18.389,18.352-18.389l0,0C331.156,319.476,339.371,327.71,339.371,337.866L339.371,337.866z"/>
</g>
<path style="fill:#D84F48;" d="M429.224,257.932c0,12.174-9.879,22.045-22.067,22.045H104.842c-12.188,0-22.067-9.871-22.067-22.045
	v-12.125c0-12.175,9.88-22.045,22.067-22.045h302.315c12.188,0,22.067,9.869,22.067,22.045V257.932z"/>
<path style="opacity:0.1;fill:#414042;enable-background:new    ;" d="M127.73,257.932v-12.125c0-12.175,9.88-22.045,22.067-22.045
	h-44.955c-12.188,0-22.067,9.869-22.067,22.045v12.125c0,12.174,9.88,22.045,22.067,22.045h44.955
	C137.61,279.977,127.73,270.106,127.73,257.932z"/>
<path style="fill:#C68C89;" d="M327.954,486.941c0,13.234-10.738,23.962-23.986,23.962h-95.937
	c-13.246,0-23.986-10.728-23.986-23.962v-47.923c0-13.234,10.738-23.962,23.986-23.962h95.937c13.246,0,23.986,10.728,23.986,23.962
	V486.941z"/>
<g>
	<rect x="223.88" y="415.054" style="fill:#FFFFFF;" width="29.508" height="40.897"/>
	<rect x="258.612" y="415.054" style="fill:#FFFFFF;" width="29.508" height="40.897"/>
	<path style="fill:#FFFFFF;" d="M303.969,415.056h-10.621v40.899h34.606v-16.938C327.954,425.784,317.215,415.056,303.969,415.056z"
		/>
	<path style="fill:#FFFFFF;" d="M218.652,415.056h-10.621c-13.246,0-23.986,10.728-23.986,23.962v16.938h34.606v-40.899H218.652z"/>
</g>
<g>
	<ellipse style="fill:#FFC197;" cx="146.516" cy="378.378" rx="22.917" ry="22.85"/>
	<ellipse style="fill:#FFC197;" cx="365.484" cy="378.378" rx="22.916" ry="22.85"/>
</g>
<path style="fill:#826F62;" d="M277.473,378.966c-9.18,0-17.177,4.991-21.473,12.395c-4.296-7.403-12.293-12.395-21.473-12.395
	c-13.709,0-98.494,11.103-98.494,24.8c0,13.695,84.785,24.8,98.494,24.8c9.18,0,17.177-4.994,21.473-12.396
	c4.296,7.402,12.293,12.396,21.473,12.396c13.709,0,98.494-11.104,98.494-24.8C375.968,390.069,291.182,378.966,277.473,378.966z"/>
<path style="fill:#FFE2C5;" d="M284.727,364.93v5.104c0,15.854-12.863,28.71-28.727,28.71l0,0c-15.866,0-28.727-12.855-28.727-28.71
	v-5.104"/>
<path style="opacity:0.1;fill:#414042;enable-background:new    ;" d="M256,388.034c-13.945,0-25.567-9.934-28.176-23.105h-0.552
	v5.104c0,15.854,12.863,28.71,28.727,28.71s28.727-12.855,28.727-28.71v-5.104h-0.552C281.567,378.1,269.945,388.034,256,388.034z"
	/>
<g>
</g>
<g>
</g>
<g>
</g>
<g>
</g>
<g>
</g>
<g>
</g>
<g>
</g>
<g>
</g>
<g>
</g>
<g>
</g>
<g>
</g>
<g>
</g>
<g>
</g>
<g>
</g>
<g>
</g>
</svg>
