<?xml version="1.0" encoding="iso-8859-1"?>
<!-- Generator: Adobe Illustrator 19.0.0, SVG Export Plug-In . SVG Version: 6.00 Build 0)  -->
<svg version="1.1" id="Layer_1" xmlns="http://www.w3.org/2000/svg" xmlns:xlink="http://www.w3.org/1999/xlink" x="0px" y="0px"
	 viewBox="0 0 512.001 512.001" style="enable-background:new 0 0 512.001 512.001;" xml:space="preserve">
<g>
	<path style="fill:#FFE2C5;" d="M118.031,276.192c-2.217-0.383-4.493-0.591-6.82-0.585c-21.745,0.055-39.328,17.791-39.272,39.615
		c0.057,21.825,17.729,39.471,39.473,39.417c2.257-0.006,4.466-0.212,6.619-0.584V276.192z"/>
	<path style="fill:#FFE2C5;" d="M400.591,274.868c-1.883,0.004-3.73,0.152-5.542,0.412v78.213c1.877,0.271,3.792,0.414,5.744,0.409
		c21.745-0.055,39.327-17.792,39.271-39.617C440.008,292.46,422.336,274.811,400.591,274.868z"/>
</g>
<g>
	<path style="fill:#F1D6BC;" d="M73.434,304.336c-0.976,3.462-1.506,7.109-1.497,10.886c0.057,21.825,17.729,39.471,39.473,39.417
		c2.257-0.006,4.466-0.212,6.619-0.584v-21.569c-2.154,0.371-4.362,0.578-6.619,0.584C93.358,333.115,78.124,320.955,73.434,304.336
		z"/>
	<path style="fill:#F1D6BC;" d="M400.793,332.331c-1.952,0.005-3.867-0.138-5.744-0.409v21.569c1.877,0.271,3.792,0.414,5.744,0.409
		c21.745-0.055,39.327-17.791,39.271-39.617c-0.01-3.705-0.538-7.284-1.497-10.682C433.9,320.142,418.775,332.286,400.793,332.331z"
		/>
</g>
<path style="fill:#F1F2F2;" d="M111.31,250.474v120.921c0,77.654,62.892,140.607,140.476,140.607h8.426
	c77.584,0,140.478-62.952,140.478-140.607V250.474H111.31z"/>
<g style="opacity:0.05;">
	<path style="fill:#414042;" d="M260.213,478.184h-8.426c-77.584,0-140.476-62.952-140.476-140.607v33.817
		c0,77.654,62.892,140.607,140.476,140.607h8.426c77.584,0,140.478-62.952,140.478-140.607v-33.817
		C400.692,415.232,337.797,478.184,260.213,478.184z"/>
</g>
<path style="fill:#FFE2C5;" d="M138.617,250.071c-0.038,0.899-0.069,1.801-0.069,2.709v44.956c0,35.135,28.269,63.618,63.145,63.618
	c23.104,0,43.298-12.506,54.308-31.158c11.007,18.652,31.203,31.158,54.305,31.158c34.876,0,63.146-28.483,63.146-63.618v-44.956
	c0-0.908-0.03-1.81-0.067-2.709L138.617,250.071L138.617,250.071z"/>
<path style="fill:#F1D6BC;" d="M310.306,350.317c-23.102,0-43.298-12.506-54.305-31.158c-11.009,18.652-31.203,31.158-54.308,31.158
	c-34.877,0-63.145-28.483-63.145-63.618v11.037c0,35.135,28.269,63.618,63.145,63.618c23.104,0,43.298-12.506,54.308-31.158
	c11.007,18.652,31.203,31.158,54.305,31.158c34.876,0,63.146-28.483,63.146-63.618v-11.037
	C373.452,321.834,345.182,350.317,310.306,350.317z"/>
<g>
	<path style="fill:#636052;" d="M205.824,312.443c0,9.464-7.643,17.135-17.074,17.135l0,0c-9.428,0-17.072-7.673-17.072-17.135l0,0
		c0-9.463,7.642-17.134,17.072-17.134l0,0C198.179,295.308,205.824,302.981,205.824,312.443L205.824,312.443z"/>
	<path style="fill:#636052;" d="M329.821,312.443c0,9.464-7.641,17.135-17.072,17.135l0,0c-9.426,0-17.073-7.673-17.073-17.135l0,0
		c0-9.463,7.646-17.134,17.073-17.134l0,0C322.18,295.308,329.821,302.981,329.821,312.443L329.821,312.443z"/>
</g>
<g>
	<path style="fill:#ED5D51;" d="M285.531,350.855c0,16.367-13.221,29.636-29.529,29.636l0,0c-16.309,0-29.531-13.269-29.531-29.636
		l0,0c0-16.369,13.221-29.639,29.531-29.639l0,0C272.309,321.216,285.531,334.485,285.531,350.855L285.531,350.855z"/>
	<path style="fill:#ED5D51;" d="M406.977,240.64c0-103.551-118.333-187.499-150.976-187.499
		c-28.564,0-150.976,83.948-150.976,187.499H406.977z"/>
</g>
<g style="opacity:0.1;">
	<path style="fill:#414042;" d="M279.321,60.222c-9.607-4.611-17.724-7.08-23.32-7.08c-28.564,0-150.976,83.948-150.976,187.499
		h45.2C150.225,154.842,234.258,82.505,279.321,60.222z"/>
</g>
<path style="fill:#F1F2F2;" d="M425.791,226.002c0,17.733-14.322,32.108-31.99,32.108H118.199c-17.667,0-31.99-14.375-31.99-32.108
	l0,0c0-17.733,14.322-32.107,31.99-32.107h275.602C411.468,193.895,425.791,208.269,425.791,226.002L425.791,226.002z"/>
<g style="opacity:0.1;">
	<path style="fill:#414042;" d="M130.965,226.002c0-17.733,14.321-32.107,31.989-32.107h-44.755
		c-17.667,0-31.99,14.375-31.99,32.107s14.322,32.108,31.99,32.108h44.755C145.287,258.11,130.965,243.735,130.965,226.002z"/>
</g>
<path style="fill:#F1F2F2;" d="M297.34,40.637c0,22.441-18.129,40.638-40.493,40.638c-22.359,0-40.486-18.197-40.486-40.638
	C216.362,18.192,234.489,0,256.847,0C279.211,0,297.34,18.192,297.34,40.637z"/>
<g style="opacity:0.1;">
	<path style="fill:#414042;" d="M238.754,40.637c0-18.544,12.381-34.173,29.291-39.05C264.487,0.561,260.733,0,256.847,0
		c-22.359,0-40.486,18.192-40.486,40.637c0,22.441,18.128,40.638,40.486,40.638c3.887,0,7.639-0.561,11.198-1.586
		C251.135,74.811,238.754,59.178,238.754,40.637z"/>
</g>
<g>
</g>
<g>
</g>
<g>
</g>
<g>
</g>
<g>
</g>
<g>
</g>
<g>
</g>
<g>
</g>
<g>
</g>
<g>
</g>
<g>
</g>
<g>
</g>
<g>
</g>
<g>
</g>
<g>
</g>
</svg>
