<?xml version="1.0" encoding="iso-8859-1"?>
<!-- Generator: Adobe Illustrator 19.0.0, SVG Export Plug-In . SVG Version: 6.00 Build 0)  -->
<svg version="1.1" id="Layer_1" xmlns="http://www.w3.org/2000/svg" xmlns:xlink="http://www.w3.org/1999/xlink" x="0px" y="0px"
	 viewBox="0 0 512 512" style="enable-background:new 0 0 512 512;" xml:space="preserve">
<path style="fill:#D84F48;" d="M85.433,143.504v335.282c0,18.344,15.273,33.214,34.114,33.214h272.907
	c18.84,0,34.113-14.87,34.113-33.214V143.504H85.433z"/>
<path style="fill:#636052;" d="M341.41,195.844c-4.396,0-7.958-3.563-7.958-7.958V91.118c0-41.466-34.745-75.201-77.452-75.201
	s-77.452,33.736-77.452,75.201v96.767c0,4.395-3.563,7.958-7.958,7.958s-7.958-3.563-7.958-7.958V91.118
	C162.632,40.875,204.516,0,256,0s93.369,40.875,93.369,91.118v96.767C349.369,192.281,345.806,195.844,341.41,195.844z"/>
<g>
	<ellipse style="fill:#00B494;" cx="169.639" cy="197.851" rx="21.182" ry="21.16"/>
	<ellipse style="fill:#00B494;" cx="340.187" cy="197.851" rx="21.181" ry="21.16"/>
</g>
<g>
	<polygon style="fill:#FFFFFF;" points="248.042,330.062 248.042,282.06 215.534,250.404 215.534,298.405 	"/>
	<polygon style="fill:#FFFFFF;" points="236.42,340.962 204.127,309.513 154.838,309.513 187.132,340.962 	"/>
	<polygon style="fill:#FFFFFF;" points="307.871,309.513 275.579,340.962 325.5,340.962 357.162,309.513 	"/>
	<polygon style="fill:#FFFFFF;" points="263.958,330.06 296.465,298.404 296.465,250.404 263.958,282.06 	"/>
	<polygon style="fill:#FFFFFF;" points="263.958,367.781 263.958,416.4 296.465,447.435 296.465,399.437 	"/>
	<polygon style="fill:#FFFFFF;" points="236.422,356.879 187.132,356.879 154.838,388.327 204.129,388.327 	"/>
	<polygon style="fill:#FFFFFF;" points="275.577,356.879 307.87,388.327 357.162,388.327 324.21,356.879 	"/>
	<polygon style="fill:#FFFFFF;" points="248.042,367.78 215.534,399.438 215.534,447.435 248.042,415.134 	"/>
</g>
<path style="opacity:0.1;fill:#414042;enable-background:new    ;" d="M118.603,478.786V143.504h-33.17v335.282
	c0,18.344,15.273,33.214,34.114,33.214h33.17C133.876,512,118.603,497.13,118.603,478.786z"/>
<g>
</g>
<g>
</g>
<g>
</g>
<g>
</g>
<g>
</g>
<g>
</g>
<g>
</g>
<g>
</g>
<g>
</g>
<g>
</g>
<g>
</g>
<g>
</g>
<g>
</g>
<g>
</g>
<g>
</g>
</svg>
