<?xml version="1.0" encoding="iso-8859-1"?>
<!-- Generator: Adobe Illustrator 19.0.0, SVG Export Plug-In . SVG Version: 6.00 Build 0)  -->
<svg version="1.1" id="Layer_1" xmlns="http://www.w3.org/2000/svg" xmlns:xlink="http://www.w3.org/1999/xlink" x="0px" y="0px"
	 viewBox="0 0 512 512" style="enable-background:new 0 0 512 512;" xml:space="preserve">
<g>
	<path style="fill:#00B494;" d="M364.584,21.813c-6.954-6.99-18.23-6.99-25.185,0l-21.518,21.624V28.551
		c0-9.885-7.973-17.898-17.808-17.898c-9.837,0-17.809,8.013-17.809,17.898v14.891l-21.52-21.627c-6.954-6.991-18.23-6.991-25.184,0
		c-6.956,6.989-6.956,18.322,0,25.312l22.718,22.834h83.587l22.719-22.834C371.539,40.136,371.539,28.803,364.584,21.813z"/>
	<path style="fill:#00B494;" d="M182.283,389.221c-6.743,0-13.121-3.072-17.343-8.354c-24.749-30.954-38.378-69.898-38.378-109.661
		c0-38.244,12.046-74.586,34.838-105.094c22.024-29.483,53.379-51.65,88.288-62.417c2.114-0.652,4.315-0.983,6.529-0.983h89.354
		c2.213,0,4.414,0.332,6.529,0.983c34.908,10.768,66.263,32.934,88.287,62.417c22.791,30.508,34.837,66.849,34.837,105.094
		c0,39.763-13.628,78.708-38.378,109.661c-4.221,5.282-10.602,8.354-17.342,8.354H182.283z"/>
</g>
<path style="fill:#FFFFFF;" d="M451.78,217.221l12.427-7.534c-4.153-11.126-9.455-21.837-15.868-32.004l-26.754-16.218
	l-30.187,18.302l-30.193-18.303l-30.189,18.303l-30.187-18.303l-30.186,18.303l-30.183-18.303l-30.192,18.303l-30.188-18.303
	l-26.563,16.107c-6.455,10.216-11.788,20.983-15.96,32.168l12.338,7.48l30.186-18.302l30.188,18.302l30.19-18.302l30.185,18.303
	l30.186-18.303l30.187,18.302l30.189-18.302L391.4,217.22l30.189-18.303L451.78,217.221z"/>
<path style="opacity:0.1;fill:#414042;enable-background:new    ;" d="M198.446,380.866
	c-24.749-30.954-38.378-69.898-38.378-109.661c0-38.244,12.046-74.586,34.838-105.094c22.024-29.483,53.379-51.65,88.288-62.417
	c2.114-0.652,4.315-0.983,6.527-0.983h-33.505c-2.213,0-4.415,0.332-6.529,0.983c-34.909,10.768-66.263,32.934-88.288,62.417
	c-22.792,30.508-34.838,66.849-34.838,105.094c0,39.763,13.63,78.708,38.378,109.661c4.222,5.282,10.6,8.354,17.343,8.354h33.506
	C209.046,389.221,202.668,386.149,198.446,380.866z"/>
<path style="fill:#E4E6E5;" d="M476.667,463.935h-73.214v-56.397c0-10.332-8.333-18.707-18.613-18.707s-18.613,8.375-18.613,18.707
	v56.397H222.281v-56.397c0-10.332-8.334-18.707-18.613-18.707c-10.279,0-18.614,8.375-18.614,18.707v56.397h-34.668
	c-62.396,0-113.16-51.018-113.16-113.728c0-10.331-8.334-18.707-18.614-18.707S0,339.876,0,350.207
	c0,83.339,67.463,151.14,150.388,151.14h326.28c10.28,0,18.613-8.376,18.613-18.707C495.28,472.311,486.946,463.935,476.667,463.935
	z"/>
<path style="opacity:0.1;fill:#414042;enable-background:new    ;" d="M22.602,350.207c0-6.054,2.873-11.421,7.311-14.84
	c-3.131-2.42-7.043-3.867-11.3-3.867C8.334,331.5,0,339.876,0,350.207c0,83.339,67.463,151.14,150.388,151.14h22.602
	C90.065,501.348,22.602,433.546,22.602,350.207z"/>
<path style="fill:#D84F48;" d="M512,197.683c-3.191-0.186-6.402-0.29-9.639-0.29c-89.794,0-162.704,72.593-163.831,162.568H201.533
	c-14.035-61.351-51.44-79.111-113.388-79.111c-2.241,0-4.463-0.129-6.673,0l17.725,81.221c4.767,39.866,33.681,65.698,67.417,65.698
	H412.4c36.56,0,62.651-27.447,67.419-65.698L512,197.683z"/>
<path style="fill:#F0D355;" d="M366.661,86.791c0,10.677-8.612,19.331-19.234,19.331h-93.067c-10.622,0-19.233-8.654-19.233-19.331
	l0,0c0-10.676,8.611-19.33,19.233-19.33h93.067C358.049,67.462,366.661,76.116,366.661,86.791L366.661,86.791z"/>
<g>
	<path style="fill:#D8BD4C;" d="M254.359,67.462c-10.622,0-19.233,8.654-19.233,19.33c0,10.677,8.611,19.331,19.233,19.331h7.569
		v-38.66H254.359z"/>
	<rect x="307.2" y="67.459" style="fill:#D8BD4C;" width="12.935" height="38.66"/>
	<path style="fill:#D8BD4C;" d="M347.426,67.462h-11.123v38.66h11.123c10.622,0,19.234-8.654,19.234-19.331
		C366.661,76.116,358.049,67.462,347.426,67.462z"/>
	<rect x="278.1" y="67.459" style="fill:#D8BD4C;" width="12.935" height="38.66"/>
</g>
<g style="opacity:0.1;">
	<path style="fill:#414042;" d="M508.467,199.206l0.299-1.528c-3.131-0.183-6.283-0.285-9.459-0.285
		c-88.121,0-159.672,82.403-160.776,170.701h33.321C372.853,288.022,431.783,210.819,508.467,199.206z"/>
</g>
<path style="opacity:0.1;fill:#414042;enable-background:new    ;" d="M133.151,362.07l-17.41-79.78
	c-8.586-0.994-17.782-1.442-27.596-1.442c-2.241,0-4.463-0.129-6.673,0l17.725,81.221c4.767,39.866,33.681,65.698,67.417,65.698
	h33.954C166.833,427.769,137.916,401.936,133.151,362.07z"/>
<g>
</g>
<g>
</g>
<g>
</g>
<g>
</g>
<g>
</g>
<g>
</g>
<g>
</g>
<g>
</g>
<g>
</g>
<g>
</g>
<g>
</g>
<g>
</g>
<g>
</g>
<g>
</g>
<g>
</g>
</svg>
