<?xml version="1.0" encoding="iso-8859-1"?>
<!-- Generator: Adobe Illustrator 19.0.0, SVG Export Plug-In . SVG Version: 6.00 Build 0)  -->
<svg version="1.1" id="Layer_1" xmlns="http://www.w3.org/2000/svg" xmlns:xlink="http://www.w3.org/1999/xlink" x="0px" y="0px"
	 viewBox="0 0 512 512" style="enable-background:new 0 0 512 512;" xml:space="preserve">
<path style="fill:#F1F2F2;" d="M50.993,179.722C32.614,212.068,22.112,249.44,22.112,289.26C22.112,412.275,122.235,512,245.745,512
	c123.508,0,223.632-99.725,223.632-222.74c0-39.819-10.502-77.191-28.881-109.538H50.993z"/>
<path style="opacity:0.1;fill:#414042;enable-background:new    ;" d="M56.09,289.26c0-39.819,10.501-77.191,28.88-109.538H50.993
	C32.614,212.068,22.112,249.44,22.112,289.26C22.112,412.275,122.235,512,245.745,512c5.716,0,11.38-0.216,16.987-0.635
	C147.16,502.716,56.09,406.581,56.09,289.26z"/>
<g>
	<path style="fill:#636052;" d="M188.166,300.648c0,11.734-9.795,21.252-21.882,21.252l0,0c-12.083,0-21.879-9.518-21.879-21.252
		l0,0c0-11.734,9.795-21.251,21.879-21.251l0,0C178.371,279.397,188.166,288.914,188.166,300.648L188.166,300.648z"/>
	<path style="fill:#636052;" d="M347.084,300.648c0,11.734-9.789,21.252-21.874,21.252l0,0c-12.085,0-21.881-9.518-21.881-21.252
		l0,0c0-11.734,9.796-21.251,21.881-21.251l0,0C337.295,279.397,347.084,288.914,347.084,300.648L347.084,300.648z"/>
</g>
<path style="fill:#EF6B3A;" d="M281.364,348.441c0,17.613-14.701,31.891-32.83,31.891l0,0c-18.138,0-32.84-14.279-32.84-31.891l0,0
	c0-17.616,14.701-31.893,32.84-31.893l0,0C266.663,316.548,281.364,330.824,281.364,348.441L281.364,348.441z"/>
<g>
	<path style="fill:#636052;" d="M371.939,403.645c-2.888,0-5.805-0.817-8.393-2.524c-7.007-4.624-8.926-14.032-4.281-21.011
		c1.213-1.826,2.393-3.692,3.498-5.543c4.304-7.195,13.644-9.551,20.867-5.269c7.223,4.284,9.591,13.589,5.291,20.782
		c-1.356,2.267-2.795,4.547-4.28,6.776C381.712,401.26,376.873,403.645,371.939,403.645z"/>
	<path style="fill:#636052;" d="M268.564,469.48c-7.401,0-13.891-5.384-15.031-12.895c-1.257-8.28,4.463-16.005,12.774-17.257
		c4.3-0.648,8.619-1.513,12.834-2.573c8.149-2.047,16.425,2.875,18.481,10.992c2.055,8.119-2.886,16.36-11.037,18.408
		c-5.165,1.298-10.457,2.358-15.727,3.151C270.087,469.422,269.322,469.48,268.564,469.48z M220.213,469.047
		c-0.846,0-1.705-0.07-2.568-0.217c-5.257-0.89-10.532-2.048-15.675-3.44c-8.113-2.196-12.901-10.526-10.697-18.607
		c2.206-8.08,10.568-12.848,18.683-10.653c4.195,1.136,8.499,2.081,12.791,2.807c8.287,1.403,13.864,9.233,12.455,17.486
		C233.94,463.82,227.5,469.047,220.213,469.047z M327.274,447.47c-5.014,0-9.922-2.465-12.829-6.982
		c-4.536-7.049-2.475-16.426,4.602-20.944c3.668-2.342,7.261-4.887,10.687-7.565c6.611-5.173,16.18-4.026,21.371,2.557
		c5.193,6.585,4.043,16.115-2.568,21.287c-4.186,3.276-8.582,6.387-13.064,9.248C332.931,446.695,330.083,447.47,327.274,447.47z
		 M161.91,445.97c-2.902,0-5.834-0.825-8.428-2.548c-4.43-2.942-8.771-6.134-12.899-9.486c-6.515-5.291-7.49-14.841-2.177-21.331
		c5.312-6.49,14.899-7.461,21.414-2.17c3.375,2.742,6.924,5.352,10.547,7.757c6.995,4.644,8.886,14.057,4.222,21.023
		C171.657,443.598,166.828,445.97,161.91,445.97z"/>
	<path style="fill:#636052;" d="M118.012,401.289c-5.032,0-9.955-2.483-12.857-7.025c-1.437-2.252-2.835-4.558-4.15-6.857
		c-4.165-7.272-1.624-16.531,5.678-20.68c7.303-4.148,16.599-1.617,20.763,5.656c1.076,1.878,2.217,3.763,3.394,5.605
		c4.511,7.065,2.421,16.435-4.673,20.929C123.635,400.523,120.806,401.289,118.012,401.289z"/>
</g>
<path style="fill:#E0594D;" d="M414.337,157.555v-51.136C414.337,47.645,366.5,0,307.493,0H183.998
	C124.99,0,77.153,47.645,77.153,106.419v51.136H414.337z"/>
<path style="fill:#F1F2F2;" d="M461.274,128.56c0,10.718-8.724,19.405-19.483,19.405H49.699c-10.76,0-19.483-8.687-19.483-19.405
	l0,0c0-10.716,8.724-19.406,19.483-19.406h392.094C452.551,109.154,461.274,117.843,461.274,128.56L461.274,128.56z"/>
<path style="fill:#E0594D;" d="M489.428,181.868c0,21.11-17.18,38.222-38.376,38.222H40.435c-21.193,0-38.375-17.112-38.375-38.222
	l0,0c0-21.11,17.181-38.222,38.375-38.222h410.618C472.248,143.645,489.428,160.758,489.428,181.868L489.428,181.868z"/>
<path style="opacity:0.1;fill:#414042;enable-background:new    ;" d="M58.585,181.868c0-20.161,15.677-36.664,35.546-38.108
	c-4.498-3.555-7.393-9.036-7.393-15.199c0-10.716,8.724-19.406,19.483-19.406h27.455v-2.736C133.679,47.645,181.514,0,240.523,0
	h-56.525C124.99,0,77.153,47.645,77.153,106.419v2.736H49.699c-10.76,0-19.483,8.688-19.483,19.406
	c0,6.163,2.895,11.645,7.393,15.199c-19.871,1.443-35.546,17.946-35.546,38.108c0,21.11,17.181,38.222,38.375,38.222h56.526
	C75.769,220.089,58.585,202.977,58.585,181.868z"/>
<path style="fill:#00B494;" d="M313.559,238.214c-13.869-5.183-27.928-5.845-39.333-2.78c2.839-10.93,2.018-24.25-3.14-37.366
	c-1.633-4.153-3.627-7.993-5.858-11.562l0.158-0.321c7.466-6.335,13.937-15.223,18.144-25.943
	c2.537-6.436,4.004-12.915,4.532-19.147c6.385-0.512,13.038-1.944,19.643-4.414c11.172-4.17,20.409-10.619,26.928-18.043
	c9.594,7.998,24.097,13.1,40.337,13.1c1.494-0.004,2.957-0.074,4.423-0.156c-0.088,1.422-0.158,2.852-0.162,4.313
	c0.004,15.763,5.196,29.853,13.349,39.21c-6.899,6.243-12.847,14.715-16.806,24.794c-2.538,6.431-4.004,12.916-4.531,19.148
	c-6.383,0.51-13.04,1.942-19.64,4.413c-11.827,4.415-21.532,11.364-28.082,19.339C320.402,241.077,317.082,239.527,313.559,238.214z
	"/>
<path style="opacity:0.1;fill:#414042;enable-background:new    ;" d="M310.874,237.269c-1.46-1.151-2.863-2.387-4.201-3.721
	c-24.553-24.492-18.103-70.634,14.402-103.06c0.415-0.412,0.83-0.817,1.247-1.22c-4.375,2.896-9.271,5.419-14.618,7.415
	c-6.605,2.47-13.258,3.902-19.643,4.414c-0.528,6.232-1.995,12.711-4.532,19.147c-4.207,10.72-10.679,19.608-18.144,25.943
	l-0.158,0.321c2.232,3.568,4.226,7.409,5.858,11.562c5.157,13.116,5.979,26.436,3.14,37.366
	C284.896,232.567,297.888,232.963,310.874,237.269z"/>
<path style="fill:#00997C;" d="M323.442,196.839c-2.074,0-4.148-0.793-5.727-2.379c-3.151-3.163-3.141-8.282,0.023-11.432
	L374.994,126c3.164-3.151,8.283-3.141,11.432,0.023c3.151,3.163,3.141,8.282-0.022,11.432l-57.256,57.027
	C327.569,196.053,325.506,196.839,323.442,196.839z"/>
<path style="fill:#00B494;" d="M505.335,199.278c-5.204,13.815-5.869,27.817-2.793,39.178c-10.974-2.829-24.346-2.009-37.514,3.125
	c-4.172,1.627-8.026,3.615-11.609,5.836l-0.321-0.156c-6.362-7.434-15.287-13.883-26.047-18.074
	c-6.462-2.524-12.967-3.987-19.224-4.509c-0.513-6.364-1.952-12.989-4.429-19.566c-4.189-11.131-10.663-20.331-18.117-26.821
	c8.031-9.555,13.153-24.001,13.153-40.176c-0.004-1.489-0.074-2.945-0.158-4.405c1.429,0.087,2.864,0.157,4.33,0.161
	c15.827-0.003,29.974-5.175,39.371-13.296c6.265,6.871,14.774,12.797,24.89,16.74c6.46,2.526,12.969,3.987,19.227,4.513
	c0.511,6.358,1.949,12.988,4.427,19.56c4.432,11.78,11.41,21.448,19.418,27.97C508.208,192.462,506.653,195.769,505.335,199.278z"/>
<path style="opacity:0.1;fill:#414042;enable-background:new    ;" d="M504.386,201.953c-1.156,1.453-2.398,2.852-3.737,4.182
	c-24.59,24.456-70.916,18.033-103.472-14.344c-0.414-0.412-0.819-0.825-1.226-1.241c2.908,4.357,5.442,9.236,7.446,14.562
	c2.477,6.577,3.916,13.201,4.429,19.566c6.257,0.521,12.763,1.985,19.224,4.509c10.76,4.191,19.685,10.639,26.047,18.074
	l0.321,0.156c3.584-2.22,7.437-4.209,11.609-5.836c13.169-5.135,26.54-5.954,37.514-3.125
	C499.665,227.828,500.062,214.886,504.386,201.953z"/>
<path style="fill:#00997C;" d="M457.525,199.359c-2.065,0-4.127-0.786-5.705-2.356l-58.991-58.755
	c-3.163-3.151-3.174-8.269-0.022-11.432c3.15-3.165,8.268-3.173,11.432-0.023l58.991,58.755c3.163,3.151,3.173,8.269,0.022,11.432
	C461.674,198.565,459.599,199.359,457.525,199.359z"/>
<path style="fill:#D84F48;" d="M432.542,110.518c-0.009-13.303-5.219-25.813-14.671-35.228
	c-9.454-9.413-22.015-14.606-35.372-14.616c-27.572-0.02-49.986,22.306-49.963,49.767c0.009,13.303,5.219,25.813,14.671,35.228
	c9.452,9.413,22.013,14.605,35.37,14.614C410.151,160.305,432.565,137.98,432.542,110.518z"/>
<path style="opacity:0.1;fill:#414042;enable-background:new    ;" d="M369.236,145.519c-9.45-9.413-14.662-21.925-14.672-35.229
	c-0.019-23.57,16.498-43.342,38.611-48.462c-3.469-0.751-7.039-1.15-10.676-1.154c-27.572-0.02-49.986,22.306-49.963,49.767
	c0.009,13.303,5.219,25.813,14.671,35.228c9.452,9.413,22.013,14.605,35.37,14.614c3.907,0.003,7.704-0.457,11.354-1.302
	C384.648,156.974,376.118,152.373,369.236,145.519z"/>
<path style="fill:#FFFFFF;" d="M422.798,100.429c-1.379-2.151-3.214-3.336-5.166-3.339c-1.95-0.001-3.78,1.182-5.161,3.33
	c-2.842,4.437-2.837,11.657,0.013,16.098c1.381,2.149,3.215,3.335,5.165,3.337c1.952,0.001,3.785-1.181,5.162-3.33
	C425.653,112.088,425.646,104.869,422.798,100.429z"/>
<g>
</g>
<g>
</g>
<g>
</g>
<g>
</g>
<g>
</g>
<g>
</g>
<g>
</g>
<g>
</g>
<g>
</g>
<g>
</g>
<g>
</g>
<g>
</g>
<g>
</g>
<g>
</g>
<g>
</g>
</svg>
