<?xml version="1.0" encoding="iso-8859-1"?>
<!-- Generator: Adobe Illustrator 19.0.0, SVG Export Plug-In . SVG Version: 6.00 Build 0)  -->
<svg version="1.1" id="Layer_1" xmlns="http://www.w3.org/2000/svg" xmlns:xlink="http://www.w3.org/1999/xlink" x="0px" y="0px"
	 viewBox="0 0 512 512" style="enable-background:new 0 0 512 512;" xml:space="preserve">
<path style="fill:#C9E9F4;" d="M485.417,229.287c0,126.636-102.709,229.287-229.417,229.287
	c-126.708,0-229.417-102.651-229.417-229.287C26.583,102.651,129.292,0,256,0C382.707,0,485.417,102.651,485.417,229.287z"/>
<g>
	<circle style="fill:#FFFFFF;" cx="104.02" cy="185.396" r="12.935"/>
	<circle style="fill:#FFFFFF;" cx="364.868" cy="260.848" r="12.935"/>
	<circle style="fill:#FFFFFF;" cx="136.359" cy="256.543" r="12.935"/>
	<circle style="fill:#FFFFFF;" cx="420.916" cy="224.204" r="12.935"/>
	<circle style="fill:#FFFFFF;" cx="390.74" cy="316.897" r="12.935"/>
	<circle style="fill:#FFFFFF;" cx="95.399" cy="309.352" r="12.935"/>
</g>
<g style="opacity:0.1;">
	<path style="fill:#414042;" d="M70.008,229.287c0-119.315,91.183-217.324,207.704-228.258C270.564,0.358,263.325,0,256,0
		C129.292,0,26.583,102.651,26.583,229.287S129.292,458.574,256,458.574c7.325,0,14.563-0.358,21.712-1.028
		C161.191,446.612,70.008,348.603,70.008,229.287z"/>
</g>
<rect id="SVGCleanerId_0" x="238.425" y="347.24" style="fill:#EAC86A;" width="35.147" height="106.015"/>
<g>
	<rect id="SVGCleanerId_0_1_" x="238.425" y="347.24" style="fill:#EAC86A;" width="35.147" height="106.015"/>
</g>
<g style="opacity:0.2;">
	<rect x="238.425" y="347.24" style="fill:#414042;" width="18.429" height="106.015"/>
</g>
<path style="fill:#00997C;" d="M367.951,372.634l-51.34-88.768H195.396l-51.335,88.768c-0.728,1.25-0.728,2.783,0,4.033
	c0.714,1.24,2.04,2.01,3.486,2.01H364.45c1.444,0,2.772-0.77,3.501-2.01C368.665,375.416,368.665,373.883,367.951,372.634z"/>
<g style="opacity:0.2;">
	<path style="fill:#414042;" d="M176.816,376.667c-0.728-1.251-0.728-2.784,0-4.033l51.335-88.768h-32.754l-51.335,88.768
		c-0.728,1.25-0.728,2.783,0,4.033c0.714,1.24,2.04,2.01,3.486,2.01h32.755C178.855,378.677,177.528,377.907,176.816,376.667z"/>
</g>
<path style="fill:#00B494;" d="M332.654,289.367l-42.458-73.408h-68.392l-42.462,73.408c-0.714,1.25-0.714,2.783,0,4.033
	c0.732,1.241,2.059,2.015,3.504,2.015h146.307c1.445,0,2.77-0.772,3.501-2.015C333.365,292.149,333.365,290.616,332.654,289.367z"/>
<g style="opacity:0.2;">
	<path style="fill:#414042;" d="M212.098,293.4c-0.715-1.251-0.715-2.784,0-4.033l42.46-73.408h-32.754l-42.462,73.408
		c-0.714,1.25-0.714,2.783,0,4.033c0.732,1.241,2.059,2.015,3.504,2.015h32.755C214.156,295.415,212.831,294.641,212.098,293.4z"/>
</g>
<path style="fill:#00997C;" d="M207.806,227.23c-1.462,0-2.788-0.77-3.501-2.014c-0.732-1.25-0.732-2.789,0-4.032l48.193-83.349
	c0.728-1.251,2.057-2.014,3.503-2.014c1.442,0,2.769,0.762,3.5,2.014l48.194,83.349c0.728,1.243,0.728,2.783,0,4.032
	c-0.714,1.242-2.06,2.014-3.504,2.014L207.806,227.23L207.806,227.23z"/>
<g style="opacity:0.2;">
	<path style="fill:#414042;" d="M237.059,225.216c-0.732-1.25-0.732-2.789,0-4.032l35.318-61.08l-12.876-22.27
		c-0.73-1.251-2.058-2.014-3.5-2.014c-1.445,0-2.773,0.762-3.503,2.014l-48.193,83.349c-0.732,1.243-0.732,2.783,0,4.032
		c0.714,1.242,2.04,2.014,3.501,2.014h32.754C239.1,227.23,237.774,226.46,237.059,225.216z"/>
</g>
<path style="fill:#F0D355;" d="M418.504,438.846c0,15.813-12.836,28.626-28.674,28.626H122.172
	c-15.839,0-28.674-12.813-28.674-28.626l0,0c0-15.811,12.836-28.623,28.674-28.623h267.657
	C405.667,410.224,418.504,423.034,418.504,438.846L418.504,438.846z"/>
<g style="opacity:0.1;">
	<path style="fill:#414042;" d="M136.882,438.846c0-15.811,12.836-28.623,28.674-28.623h-43.384
		c-15.839,0-28.674,12.811-28.674,28.623c0,15.813,12.836,28.626,28.674,28.626h43.384
		C149.717,467.472,136.882,454.659,136.882,438.846z"/>
</g>
<path style="fill:#ED5D51;" d="M447.182,503.519c0,4.687-3.8,8.481-8.498,8.481H73.316c-4.697,0-8.498-3.794-8.498-8.481v-48.77
	c0-4.685,3.801-8.479,8.498-8.479h365.367c4.698,0,8.498,3.794,8.498,8.479L447.182,503.519L447.182,503.519z"/>
<g style="opacity:0.1;">
	<path style="fill:#414042;" d="M108.669,503.519v-48.77c0-4.685,3.801-8.479,8.498-8.479H73.316c-4.697,0-8.498,3.794-8.498,8.479
		v48.77c0,4.687,3.801,8.481,8.498,8.481h43.851C112.471,512,108.669,508.206,108.669,503.519z"/>
</g>
<path style="fill:#FFFFFF;" d="M429.461,155.17c-4.905,0-9.606-2.776-11.83-7.511c-17.733-37.749-48.399-68.072-86.349-85.383
	c-6.563-2.994-9.457-10.741-6.464-17.305c2.994-6.563,10.739-9.457,17.305-6.464c43.577,19.877,78.789,54.697,99.154,98.044
	c3.067,6.529,0.259,14.308-6.269,17.375C433.213,154.771,431.322,155.17,429.461,155.17z"/>
<g>
</g>
<g>
</g>
<g>
</g>
<g>
</g>
<g>
</g>
<g>
</g>
<g>
</g>
<g>
</g>
<g>
</g>
<g>
</g>
<g>
</g>
<g>
</g>
<g>
</g>
<g>
</g>
<g>
</g>
</svg>
