<?xml version="1.0" encoding="iso-8859-1"?>
<!-- Generator: Adobe Illustrator 19.0.0, SVG Export Plug-In . SVG Version: 6.00 Build 0)  -->
<svg version="1.1" id="Layer_1" xmlns="http://www.w3.org/2000/svg" xmlns:xlink="http://www.w3.org/1999/xlink" x="0px" y="0px"
	 viewBox="0 0 512 512" style="enable-background:new 0 0 512 512;" xml:space="preserve">
<path style="fill:#C9E9F4;" d="M485.417,229.286c0,126.637-102.709,229.288-229.417,229.288
	c-126.708,0-229.417-102.651-229.417-229.288C26.583,102.651,129.292,0,256,0C382.707,0,485.417,102.651,485.417,229.286z"/>
<g>
	<circle style="fill:#FFFFFF;" cx="104.02" cy="185.396" r="12.935"/>
	<circle style="fill:#FFFFFF;" cx="364.868" cy="260.848" r="12.935"/>
	<circle style="fill:#FFFFFF;" cx="136.359" cy="256.543" r="12.935"/>
	<circle style="fill:#FFFFFF;" cx="420.916" cy="224.204" r="12.935"/>
	<circle style="fill:#FFFFFF;" cx="390.74" cy="316.897" r="12.935"/>
	<circle style="fill:#FFFFFF;" cx="95.399" cy="309.352" r="12.935"/>
	<path style="fill:#FFFFFF;" d="M153.135,369.316c0,21.995,6.916,42.374,18.688,59.092h168.355
		c11.772-16.718,18.688-37.097,18.688-59.092c0-38.02-20.704-71.141-51.411-88.935c17.448-14.668,28.555-36.621,28.555-61.194
		c0-44.165-35.818-79.964-80.008-79.964c-44.193,0-80.011,35.8-80.011,79.964c0,24.575,11.107,46.526,28.559,61.194
		C173.838,298.175,153.135,331.296,153.135,369.316z"/>
</g>
<path style="opacity:0.1;fill:#414042;enable-background:new    ;" d="M153.135,369.316c0,21.995,6.916,42.374,18.688,59.092h33.895
	c-11.776-16.718-18.703-37.093-18.703-59.092c0-38.02,20.704-71.141,51.413-88.935c-17.451-14.668-28.559-36.621-28.559-61.194
	c0-38.354,27.019-70.383,63.071-78.152c-5.463-1.177-11.126-1.812-16.94-1.812c-44.193,0-80.011,35.8-80.011,79.964
	c0,24.575,11.107,46.526,28.559,61.194C173.838,298.175,153.135,331.296,153.135,369.316z"/>
<g style="opacity:0.1;">
	<path style="fill:#414042;" d="M73.107,229.286c0-118.787,90.373-216.467,206.155-228.119C271.612,0.397,263.853,0,256,0
		C129.292,0,26.583,102.651,26.583,229.286c0,126.637,102.708,229.288,229.417,229.288c7.853,0,15.612-0.397,23.263-1.166
		C163.481,445.757,73.107,348.074,73.107,229.286z"/>
</g>
<g>
	<path style="fill:#636052;" d="M233.814,216.466c0,4.673-3.774,8.463-8.431,8.463l0,0c-4.656,0-8.43-3.79-8.43-8.463l0,0
		c0-4.673,3.774-8.463,8.43-8.463l0,0C230.038,208.004,233.814,211.793,233.814,216.466L233.814,216.466z"/>
	<path style="fill:#636052;" d="M295.049,216.466c0,4.673-3.774,8.463-8.429,8.463l0,0c-4.656,0-8.431-3.79-8.431-8.463l0,0
		c0-4.673,3.775-8.463,8.431-8.463l0,0C291.275,208.004,295.049,211.793,295.049,216.466L295.049,216.466z"/>
</g>
<path style="fill:#EF6B3A;" d="M272.041,235.435c0,8.082-6.53,14.636-14.582,14.636l0,0c-8.055,0-14.584-6.553-14.584-14.636l0,0
	c0-8.084,6.529-14.637,14.584-14.637l0,0C265.511,220.798,272.041,227.351,272.041,235.435L272.041,235.435z"/>
<path style="fill:#F0D355;" d="M418.504,438.846c0,15.813-12.836,28.626-28.674,28.626H122.172
	c-15.839,0-28.674-12.813-28.674-28.626l0,0c0-15.811,12.836-28.623,28.674-28.623h267.657
	C405.667,410.224,418.504,423.034,418.504,438.846L418.504,438.846z"/>
<g style="opacity:0.1;">
	<path style="fill:#414042;" d="M140.022,438.846c0-15.811,12.836-28.623,28.674-28.623h-46.524
		c-15.839,0-28.674,12.811-28.674,28.623c0,15.813,12.836,28.626,28.674,28.626h46.524
		C152.857,467.472,140.022,454.659,140.022,438.846z"/>
</g>
<path style="fill:#ED5D51;" d="M447.182,503.519c0,4.687-3.8,8.481-8.498,8.481H73.316c-4.697,0-8.498-3.794-8.498-8.481v-48.77
	c0-4.685,3.801-8.479,8.498-8.479h365.367c4.698,0,8.498,3.794,8.498,8.479L447.182,503.519L447.182,503.519z"/>
<g style="opacity:0.1;">
	<path style="fill:#414042;" d="M111.343,503.519v-48.77c0-4.685,3.801-8.479,8.498-8.479H73.316c-4.697,0-8.498,3.794-8.498,8.479
		v48.77c0,4.687,3.801,8.481,8.498,8.481h46.524C115.144,512,111.343,508.206,111.343,503.519z"/>
</g>
<path style="fill:#FFFFFF;" d="M432.533,159.66c-4.906,0-9.607-2.776-11.83-7.512c-18.336-39.03-50.042-70.381-89.279-88.278
	c-6.563-2.994-9.456-10.741-6.464-17.305c2.994-6.564,10.743-9.454,17.305-6.463c44.864,20.464,81.117,56.313,102.081,100.94
	c3.068,6.529,0.261,14.308-6.268,17.375C436.283,159.261,434.393,159.66,432.533,159.66z"/>
<g>
</g>
<g>
</g>
<g>
</g>
<g>
</g>
<g>
</g>
<g>
</g>
<g>
</g>
<g>
</g>
<g>
</g>
<g>
</g>
<g>
</g>
<g>
</g>
<g>
</g>
<g>
</g>
<g>
</g>
</svg>
