<?xml version="1.0" encoding="iso-8859-1"?>
<!-- Generator: Adobe Illustrator 19.0.0, SVG Export Plug-In . SVG Version: 6.00 Build 0)  -->
<svg version="1.1" id="Layer_1" xmlns="http://www.w3.org/2000/svg" xmlns:xlink="http://www.w3.org/1999/xlink" x="0px" y="0px"
	 viewBox="0 0 512 512" style="enable-background:new 0 0 512 512;" xml:space="preserve">
<path style="fill:#F1F2F2;" d="M107.731,512c-7.928,0-15.299-4.056-19.526-10.745c-19.058-30.153-29.13-64.882-29.13-100.432
	c0-34.323,9.449-68.004,27.327-97.402c12.148-19.974,27.958-37.654,46.498-52.138C110.272,224.049,97.7,189.979,97.7,154.314
	C97.701,69.224,168.714,0,256,0c87.283,0,158.297,69.224,158.297,154.314c0,35.66-12.572,69.732-35.197,96.968
	c18.541,14.486,34.349,32.164,46.498,52.139c17.877,29.398,27.327,63.079,27.327,97.402c0,35.552-10.074,70.281-29.131,100.434
	C419.566,507.944,412.196,512,404.269,512L107.731,512L107.731,512z"/>
<g>
	<path style="fill:#636052;" d="M218.505,149.849c0,7.672-6.378,13.895-14.25,13.895l0,0c-7.869,0-14.248-6.223-14.248-13.895l0,0
		c0-7.673,6.378-13.895,14.248-13.895l0,0C212.127,135.954,218.505,142.176,218.505,149.849L218.505,149.849z"/>
	<path style="fill:#636052;" d="M321.993,149.849c0,7.672-6.377,13.895-14.245,13.895l0,0c-7.87,0-14.249-6.223-14.249-13.895l0,0
		c0-7.673,6.378-13.895,14.249-13.895l0,0C315.617,135.954,321.993,142.176,321.993,149.849L321.993,149.849z"/>
</g>
<path style="fill:#EF6B3A;" d="M283.109,180.996c0,13.272-11.035,24.032-24.641,24.032l0,0c-13.613,0-24.648-10.759-24.648-24.032
	l0,0c0-13.274,11.035-24.033,24.648-24.033l0,0C272.075,156.964,283.109,167.721,283.109,180.996L283.109,180.996z"/>
<g>
	<circle style="fill:#636052;" cx="257.62" cy="294.264" r="23.176"/>
	<circle style="fill:#636052;" cx="257.62" cy="379.423" r="23.176"/>
</g>
<path style="opacity:0.1;fill:#414042;enable-background:new    ;" d="M133.146,501.255c-19.057-30.153-29.13-64.882-29.13-100.432
	c0-34.323,9.449-68.004,27.327-97.402c12.148-19.974,27.958-37.654,46.498-52.138c-22.628-27.233-35.201-61.303-35.201-96.969
	c0-77.644,59.135-142.067,135.802-152.748C271.109,0.543,263.618,0,256,0C168.714,0,97.701,69.224,97.701,154.314
	c0,35.664,12.571,69.734,35.201,96.969c-18.54,14.485-34.35,32.165-46.498,52.138c-17.878,29.397-27.327,63.079-27.327,97.402
	c0,35.551,10.072,70.28,29.13,100.432C92.432,507.944,99.803,512,107.731,512h44.941C144.743,512,137.373,507.944,133.146,501.255z"
	/>
<g>
</g>
<g>
</g>
<g>
</g>
<g>
</g>
<g>
</g>
<g>
</g>
<g>
</g>
<g>
</g>
<g>
</g>
<g>
</g>
<g>
</g>
<g>
</g>
<g>
</g>
<g>
</g>
<g>
</g>
</svg>
