<?xml version="1.0" encoding="iso-8859-1"?>
<!-- Generator: Adobe Illustrator 19.0.0, SVG Export Plug-In . SVG Version: 6.00 Build 0)  -->
<svg version="1.1" id="Layer_1" xmlns="http://www.w3.org/2000/svg" xmlns:xlink="http://www.w3.org/1999/xlink" x="0px" y="0px"
	 viewBox="0 0 511.999 511.999" style="enable-background:new 0 0 511.999 511.999;" xml:space="preserve">
<polygon style="fill:#E4E6E5;" points="244.093,329.846 218.51,344.667 192.929,329.846 192.929,300.201 218.51,285.379 
	244.093,300.201 "/>
<path style="fill:#F1F2F2;" d="M441.749,175.743h-9.525v-32.261c0-64.013-51.711-115.904-115.498-115.904
	c-47.257,0-87.875,28.483-105.76,69.271c-13.928-12.605-32.37-20.281-52.602-20.281c-43.403,0-78.587,35.308-78.587,78.863v20.313
	h-9.525C31.454,175.743,0,207.305,0,246.241c0,38.935,31.454,70.498,70.251,70.498h371.498c38.798,0,70.251-31.563,70.251-70.498
	C512,207.305,480.546,175.743,441.749,175.743z"/>
<g>
	<polygon style="fill:#E4E6E5;" points="365.628,380.365 344.748,392.463 323.869,380.365 323.869,356.172 344.748,344.074 
		365.628,356.172 	"/>
	<polygon style="fill:#E4E6E5;" points="216.31,442.566 200.433,451.763 184.558,442.566 184.558,424.168 200.433,414.971 
		216.31,424.168 	"/>
	<polygon style="fill:#E4E6E5;" points="315.931,475.223 300.056,484.421 284.18,475.223 284.18,456.827 300.056,447.631 
		315.931,456.827 	"/>
	<polygon style="fill:#E4E6E5;" points="122.642,381.597 106.767,390.794 90.89,381.597 90.89,363.2 106.767,354.003 122.642,363.2 
			"/>
</g>
<g style="opacity:0.1;">
	<path style="fill:#414042;" d="M32.876,268.786c0-38.936,31.454-70.499,70.251-70.499h9.526v-20.313
		c0-43.554,35.183-83.659,78.586-83.659c20.232,0-12.643-17.748-32.876-17.748c-43.403,0-78.587,35.308-78.587,78.863v20.313h-9.525
		C31.454,175.743,0,207.305,0,246.241c0,31.387,20.444,57.97,48.695,67.102C38.811,301.199,32.876,285.689,32.876,268.786z"/>
</g>
<g>
</g>
<g>
</g>
<g>
</g>
<g>
</g>
<g>
</g>
<g>
</g>
<g>
</g>
<g>
</g>
<g>
</g>
<g>
</g>
<g>
</g>
<g>
</g>
<g>
</g>
<g>
</g>
<g>
</g>
</svg>
