<?xml version="1.0" encoding="iso-8859-1"?>
<!-- Generator: Adobe Illustrator 19.0.0, SVG Export Plug-In . SVG Version: 6.00 Build 0)  -->
<svg version="1.1" id="Layer_1" xmlns="http://www.w3.org/2000/svg" xmlns:xlink="http://www.w3.org/1999/xlink" x="0px" y="0px"
	 viewBox="0 0 512.001 512.001" style="enable-background:new 0 0 512.001 512.001;" xml:space="preserve">
<g>
	<path style="fill:#F0D355;" d="M255.999,512c-6.802,0-13.129-3.495-16.764-9.259L17.417,150.921
		c-3.862-6.125-4.095-13.872-0.608-20.219c3.488-6.347,10.144-10.29,17.37-10.29h443.644c7.229,0,13.884,3.942,17.371,10.29
		c3.487,6.346,3.255,14.093-0.608,20.219l-221.823,351.82C269.128,508.505,262.8,512,255.999,512z"/>
	<path style="fill:#F0D355;" d="M34.178,391.587c-7.228,0-13.883-3.942-17.37-10.29c-3.487-6.346-3.255-14.093,0.607-20.219
		L239.238,9.259C242.872,3.495,249.199,0,256.001,0c6.801,0,13.128,3.495,16.763,9.259l221.82,351.819
		c3.862,6.125,4.094,13.872,0.607,20.219c-3.488,6.347-10.143,10.29-17.37,10.29H34.178z"/>
	<path style="fill:#F0D355;" d="M428.333,256.001l66.253-105.08c3.862-6.125,4.095-13.872,0.608-20.219
		c-3.488-6.347-10.143-10.29-17.371-10.29H342.847L272.765,9.259C269.129,3.495,262.803,0,256.001,0
		c-6.802,0-13.13,3.495-16.763,9.259l-70.083,111.154H34.179c-7.228,0-13.884,3.942-17.37,10.29
		c-3.487,6.346-3.255,14.093,0.608,20.219L83.667,256L17.415,361.079c-3.862,6.125-4.095,13.872-0.607,20.219
		c3.489,6.347,10.143,10.29,17.37,10.29h134.976l70.081,111.154c3.635,5.765,9.962,9.259,16.764,9.259
		c6.801,0,13.128-3.495,16.763-9.259l70.083-111.154h134.975c7.229,0,13.884-3.942,17.37-10.29
		c3.487-6.346,3.256-14.093-0.607-20.219L428.333,256.001z"/>
</g>
<g style="opacity:0.1;">
	<path style="fill:#414042;" d="M274.429,11.899l-1.665-2.639C269.129,3.495,262.803,0,256.001,0c-6.802,0-13.13,3.495-16.763,9.259
		l-70.083,111.154h36.855L274.429,11.899z"/>
	<path style="fill:#414042;" d="M53.662,381.297c-3.487-6.346-3.255-14.093,0.608-20.219L120.522,256L54.271,150.921
		c-3.862-6.125-4.095-13.872-0.608-20.219c3.488-6.347,10.144-10.29,17.371-10.29H34.179c-7.228,0-13.884,3.942-17.37,10.29
		c-3.487,6.346-3.255,14.093,0.608,20.219L83.667,256L17.415,361.079c-3.862,6.125-4.095,13.872-0.607,20.219
		c3.489,6.347,10.143,10.29,17.37,10.29h36.855C63.805,391.587,57.15,387.644,53.662,381.297z"/>
	<path style="fill:#414042;" d="M206.008,391.587h-36.855l70.081,111.154c3.635,5.765,9.962,9.259,16.764,9.259
		c6.801,0,13.128-3.495,16.763-9.259l1.664-2.638L206.008,391.587z"/>
</g>
<polygon style="fill:#FCE275;" points="83.667,256 169.153,391.587 342.846,391.587 428.333,256.001 342.847,120.413 
	169.155,120.413 "/>
<g>
</g>
<g>
</g>
<g>
</g>
<g>
</g>
<g>
</g>
<g>
</g>
<g>
</g>
<g>
</g>
<g>
</g>
<g>
</g>
<g>
</g>
<g>
</g>
<g>
</g>
<g>
</g>
<g>
</g>
</svg>
