<?xml version="1.0" encoding="iso-8859-1"?>
<!-- Generator: Adobe Illustrator 19.0.0, SVG Export Plug-In . SVG Version: 6.00 Build 0)  -->
<svg version="1.1" id="Layer_1" xmlns="http://www.w3.org/2000/svg" xmlns:xlink="http://www.w3.org/1999/xlink" x="0px" y="0px"
	 viewBox="0 0 512 512" style="enable-background:new 0 0 512 512;" xml:space="preserve">
<path style="fill:#D84F48;" d="M503.955,92.652L419.952,7.972c-6.327-6.376-15.377-9.179-24.163-7.488L243.531,29.833
	c-5.311,1.025-10.197,3.632-14.019,7.488L8.045,260.571c-10.545,10.63-10.545,27.86,0,38.492l203.327,204.965
	c10.545,10.63,27.64,10.63,38.185,0l215.737-217.475c3.458-3.485,5.908-7.848,7.098-12.626l38.66-155.408
	C513.36,109.238,510.665,99.417,503.955,92.652z M427.414,133.738c-14.354,14.472-37.632,14.472-51.988,0
	c-14.357-14.472-14.357-37.936-0.001-52.406c14.357-14.473,37.633-14.472,51.989,0C441.769,95.804,441.771,119.266,427.414,133.738z
	"/>
<path style="opacity:0.1;fill:#414042;enable-background:new    ;" d="M64.499,299.063c-10.546-10.632-10.546-27.862,0-38.492
	l221.465-223.25c3.822-3.855,8.708-6.463,14.019-7.488L418.843,6.922c-6.249-5.628-14.769-8.034-23.055-6.438L243.531,29.833
	c-5.311,1.025-10.197,3.632-14.019,7.488L8.045,260.571c-10.545,10.63-10.545,27.86,0,38.492l203.327,204.965
	c10.545,10.63,27.64,10.63,38.185,0l9.134-9.209L64.499,299.063z"/>
<g>
	<polygon style="fill:#00B494;" points="230.016,252.624 195.456,217.784 150.063,217.789 184.625,252.629 	"/>
	<polygon style="fill:#00B494;" points="241.339,241.079 241.345,195.319 206.849,160.546 206.843,206.305 	"/>
	<polygon style="fill:#00B494;" points="257.508,241.075 292.012,206.293 292.017,160.536 257.514,195.319 	"/>
	<polygon style="fill:#00B494;" points="303.399,217.773 268.832,252.62 314.224,252.614 348.792,217.768 	"/>
	<polygon style="fill:#00B494;" points="268.827,268.789 303.831,304.075 348.783,303.624 314.218,268.782 	"/>
	<polygon style="fill:#00B494;" points="257.503,280.333 257.498,326.091 291.997,360.866 291.539,314.643 	"/>
	<polygon style="fill:#00B494;" points="230.012,268.793 184.622,268.797 150.053,303.644 195.905,303.174 	"/>
	<polygon style="fill:#00B494;" points="241.335,280.337 206.387,315.567 206.828,360.876 241.329,326.095 	"/>
</g>
<path style="fill:#F0D355;" d="M390.864,118.177c-6.439-6.492-6.44-17.017-0.001-23.507l77.732-78.358
	c6.44-6.491,16.88-6.491,23.32,0c6.439,6.492,6.439,17.017,0,23.507l-77.732,78.358
	C407.744,124.669,397.302,124.669,390.864,118.177z"/>
<g>
</g>
<g>
</g>
<g>
</g>
<g>
</g>
<g>
</g>
<g>
</g>
<g>
</g>
<g>
</g>
<g>
</g>
<g>
</g>
<g>
</g>
<g>
</g>
<g>
</g>
<g>
</g>
<g>
</g>
</svg>
