<?xml version="1.0" encoding="iso-8859-1"?>
<!-- Generator: Adobe Illustrator 19.0.0, SVG Export Plug-In . SVG Version: 6.00 Build 0)  -->
<svg version="1.1" id="Layer_1" xmlns="http://www.w3.org/2000/svg" xmlns:xlink="http://www.w3.org/1999/xlink" x="0px" y="0px"
	 viewBox="0 0 512 512" style="enable-background:new 0 0 512 512;" xml:space="preserve">
<rect x="75.791" y="371.78" transform="matrix(-0.7109 -0.7033 0.7033 -0.7109 4.6364 761.5862)" style="fill:#C1AA46;" width="166.119" height="16.12"/>
<path style="fill:#DAC04E;" d="M109.036,296.016c6.239,6.171,6.239,16.178,0,22.351l-12.321,12.191
	c-6.239,6.172-16.352,6.172-22.59,0l0,0c-6.237-6.172-6.237-16.178,0-22.35l12.321-12.192
	C92.683,289.845,102.797,289.845,109.036,296.016L109.036,296.016z"/>
<rect x="127.137" y="320.981" transform="matrix(-0.7109 -0.7033 0.7033 -0.7109 128.2008 710.7822)" style="fill:#C1AA46;" width="166.108" height="16.121"/>
<path style="fill:#DAC04E;" d="M160.376,245.22c6.239,6.172,6.239,16.178,0,22.351l-12.321,12.19c-6.238,6.172-16.351,6.172-22.59,0
	l0,0c-6.239-6.171-6.239-16.177,0-22.35l12.321-12.191C144.026,239.047,154.139,239.049,160.376,245.22L160.376,245.22z"/>
<rect x="178.466" y="270.174" transform="matrix(-0.7109 -0.7033 0.7033 -0.7109 251.7525 659.9569)" style="fill:#C1AA46;" width="166.108" height="16.121"/>
<g>
	<path style="fill:#DAC04E;" d="M211.716,194.423c6.24,6.173,6.24,16.178,0.002,22.351l-12.322,12.192
		c-6.238,6.171-16.351,6.171-22.59,0l0,0c-6.239-6.172-6.239-16.179,0-22.351l12.321-12.192
		C195.367,188.254,205.479,188.254,211.716,194.423L211.716,194.423z"/>
	<path style="fill:#DAC04E;" d="M256.798,228.867L102.776,381.255c-30.056,29.739-30.056,77.951,0,107.689
		c30.056,29.738,78.786,29.738,108.843,0l154.019-152.389c30.056-29.738,30.056-77.95,0-107.688
		C335.584,199.129,286.854,199.129,256.798,228.867z M339.969,311.158L185.948,463.544c-15.852,15.685-41.648,15.685-57.502,0
		c-15.852-15.684-15.852-41.207,0-56.893l154.021-152.386c15.854-15.686,41.647-15.686,57.502,0
		C355.822,269.95,355.822,295.47,339.969,311.158z"/>
</g>
<path style="fill:#F0D355;" d="M341.924,1.672c-1.975,0.735-3.72,1.867-5.157,3.288c-2.441,2.415-3.984,5.664-4.222,9.208
	l-10.068,149.716L16.757,466.361L41.4,490.744l305.72-302.477l151.324-9.962c3.578-0.235,6.861-1.762,9.304-4.176
	c1.435-1.422,2.58-3.149,3.324-5.105c2.003-5.278,0.703-11.226-3.328-15.213L357.303,4.962
	C353.274,0.975,347.261-0.313,341.924,1.672z"/>
<path style="fill:#FFFFFF;" d="M379.585,179.056c-4.223,0-7.772-3.287-8.036-7.56c-0.277-4.443,3.102-8.268,7.545-8.544
	l119.538-7.424c4.437-0.281,8.267,3.102,8.544,7.545c0.277,4.443-3.103,8.268-7.546,8.544l-119.538,7.424
	C379.923,179.051,379.752,179.056,379.585,179.056z"/>
<path style="opacity:0.1;fill:#414042;enable-background:new    ;" d="M354.897,48.022c0.239-3.543,1.782-6.793,4.222-9.209
	c1.437-1.42,3.183-2.553,5.157-3.287c5.336-1.984,11.348-0.697,15.379,3.289L357.303,4.962c-4.029-3.986-10.041-5.275-15.379-3.289
	c-1.975,0.735-3.72,1.867-5.157,3.288c-2.441,2.415-3.984,5.664-4.222,9.208l-10.068,149.716L354.897,48.022z"/>
<path style="fill:#DAC04E;" d="M59.137,474.212c7.655,7.573,7.655,19.855,0,27.431l0,0c-7.657,7.573-20.067,7.573-27.724,0
	l-25.67-25.398c-7.657-7.576-7.657-19.856,0-27.431l0,0c7.655-7.574,20.067-7.574,27.722,0L59.137,474.212z"/>
<g>
</g>
<g>
</g>
<g>
</g>
<g>
</g>
<g>
</g>
<g>
</g>
<g>
</g>
<g>
</g>
<g>
</g>
<g>
</g>
<g>
</g>
<g>
</g>
<g>
</g>
<g>
</g>
<g>
</g>
</svg>
