<?xml version="1.0" encoding="iso-8859-1"?>
<!-- Generator: Adobe Illustrator 19.0.0, SVG Export Plug-In . SVG Version: 6.00 Build 0)  -->
<svg version="1.1" id="Layer_1" xmlns="http://www.w3.org/2000/svg" xmlns:xlink="http://www.w3.org/1999/xlink" x="0px" y="0px"
	 viewBox="0 0 512 512" style="enable-background:new 0 0 512 512;" xml:space="preserve">
<path style="fill:#F1F2F2;" d="M441.152,20.447C434.291,7.849,421.019,0,406.591,0H105.412C90.981,0,77.711,7.849,70.85,20.447
	c-19.11,35.077-29.211,75.189-29.211,116c0,60.747,21.84,118.032,61.498,161.303c35.671,38.921,81.901,62.474,131.908,67.627
	v120.634h41.91V365.377c50.006-5.153,96.237-28.705,131.908-67.627c39.659-43.272,61.499-100.558,61.499-161.303
	C470.363,95.636,460.262,55.524,441.152,20.447z"/>
<path style="fill:#FFFFFF;" d="M111.764,104.146c-0.915,0-1.845-0.097-2.776-0.299c-7.05-1.526-11.527-8.479-10.001-15.53
	c4.478-20.679,11.786-40.412,21.722-58.649c3.451-6.334,11.385-8.671,17.718-5.222c6.334,3.451,8.672,11.384,5.221,17.717
	c-8.743,16.049-15.179,33.437-19.131,51.682C123.191,99.966,117.78,104.146,111.764,104.146z"/>
<path style="fill:#D85149;" d="M81.425,122.153c-0.322,4.721-0.497,9.484-0.497,14.295c0,105.5,78.382,191.025,175.072,191.025
	s175.073-85.525,175.073-191.025c0-4.81-0.176-9.574-0.498-14.295L81.425,122.153L81.425,122.153z"/>
<path style="fill:#FFFFFF;" d="M256,305.584c-38.023,0-74.504-15.534-102.724-43.743c-27.742-27.73-45.317-65.478-49.491-106.29
	c-0.587-5.741,3.592-10.87,9.332-11.457c5.749-0.589,10.87,3.592,11.458,9.332c3.684,36.042,19.125,69.296,43.475,93.635
	c24.272,24.263,55.507,37.625,87.949,37.625c5.771,0,10.449,4.678,10.449,10.449C266.449,300.907,261.771,305.584,256,305.584z"/>
<path style="fill:#F1F2F2;" d="M373.868,486.01c0,14.354-11.728,25.99-26.193,25.99h-183.35c-14.466,0-26.193-11.636-26.193-25.99
	l0,0c0-14.354,11.728-25.99,26.193-25.99h183.351C362.142,460.02,373.868,471.656,373.868,486.01L373.868,486.01z"/>
<g>
	<path style="opacity:0.1;fill:#414142;enable-background:new    ;" d="M183.027,486.01c0-14.354,11.728-25.99,26.193-25.99h-44.894
		c-14.466,0-26.193,11.636-26.193,25.99c0,14.354,11.728,25.99,26.193,25.99h44.894C194.754,512,183.027,500.365,183.027,486.01z"/>
	<path style="opacity:0.1;fill:#414142;enable-background:new    ;" d="M135.688,297.751
		C96.029,254.478,74.19,197.193,74.19,136.447c0-40.812,10.101-80.923,29.211-116C110.262,7.849,123.533,0,137.963,0h-32.551
		C90.981,0,77.711,7.849,70.85,20.447C51.74,55.523,41.639,95.635,41.639,136.446c0,60.747,21.84,118.032,61.498,161.303
		c35.671,38.921,81.901,62.474,131.908,67.627h32.55C217.588,360.224,171.358,336.672,135.688,297.751z"/>
</g>
<g>
</g>
<g>
</g>
<g>
</g>
<g>
</g>
<g>
</g>
<g>
</g>
<g>
</g>
<g>
</g>
<g>
</g>
<g>
</g>
<g>
</g>
<g>
</g>
<g>
</g>
<g>
</g>
<g>
</g>
</svg>
