<?xml version="1.0" encoding="iso-8859-1"?>
<!-- Generator: Adobe Illustrator 19.0.0, SVG Export Plug-In . SVG Version: 6.00 Build 0)  -->
<svg version="1.1" id="Layer_1" xmlns="http://www.w3.org/2000/svg" xmlns:xlink="http://www.w3.org/1999/xlink" x="0px" y="0px"
	 viewBox="0 0 512 512" style="enable-background:new 0 0 512 512;" xml:space="preserve">
<path style="fill:#00B494;" d="M484.779,417.171c0-183.808-179.312-332.817-228.778-332.817
	c-43.286,0-228.78,149.008-228.78,332.817H484.779z"/>
<g>
	<path style="fill:#FFFFFF;" d="M132.87,260.59l38.823-29.232l39.087,29.575l38.828-29.232l39.088,29.574l38.831-29.231
		l39.094,29.574l48.583-36.569c1.476-1.111,2.692-2.433,3.67-3.881c-5.78-8.497-11.774-16.688-17.91-24.546
		c-1.828,0.531-3.595,1.378-5.207,2.59l-29.087,21.895l-39.096-29.574l-38.828,29.231l-39.088-29.574l-38.828,29.23l-39.089-29.576
		l-38.822,29.231l-23.94-18.115c-6.488,8.406-12.81,17.171-18.882,26.264L132.87,260.59z"/>
	<path style="fill:#FFFFFF;" d="M99.982,353.576l49.76-37.465l50.098,37.906l49.767-37.465l50.098,37.906l49.77-37.466
		l50.107,37.903l59.523-44.803c1.746-1.314,3.146-2.917,4.193-4.688c-3.1-8.13-6.479-16.115-10.099-23.94
		c-4.54-1.1-9.518-0.236-13.54,2.793l-40.029,30.129l-50.108-37.905l-49.767,37.465l-50.098-37.906l-49.767,37.465l-50.099-37.906
		l-49.759,37.464l-40.36-30.539c-0.104-0.079-0.216-0.143-0.321-0.219c-4.726,10.007-9.051,20.274-12.89,30.771L99.982,353.576z"/>
</g>
<path style="fill:#ED5D51;" d="M512,463.357c0,14.209-11.461,25.725-25.6,25.725H25.599C11.461,489.083,0,477.565,0,463.357V411.91
	c0-14.209,11.461-25.723,25.599-25.723H486.4c14.139,0,25.6,11.516,25.6,25.723V463.357z"/>
<path style="opacity:0.1;fill:#414042;enable-background:new    ;" d="M43.655,463.357V411.91c0-14.209,11.461-25.723,25.6-25.723
	h3.366C89.125,238.285,218.931,118.427,278.685,90.51c-9.053-4.034-16.792-6.155-22.684-6.155
	c-40.825,0-208.146,132.551-227.035,301.831H25.6C11.461,386.187,0,397.702,0,411.91v51.447c0,14.209,11.461,25.725,25.599,25.725
	h43.655C55.116,489.083,43.655,477.565,43.655,463.357z"/>
<ellipse style="fill:#ED5D51;" cx="256" cy="79.698" rx="56.498" ry="56.78"/>
<path style="opacity:0.1;fill:#414042;enable-background:new    ;" d="M233.364,79.7c0-25.43,16.637-46.95,39.568-54.18
	c-5.347-1.685-11.033-2.597-16.933-2.597c-31.205,0-56.501,25.418-56.501,56.777c0,31.356,25.296,56.775,56.501,56.775
	c5.9,0,11.586-0.911,16.933-2.597C250.001,126.648,233.364,105.127,233.364,79.7z"/>
<g>
</g>
<g>
</g>
<g>
</g>
<g>
</g>
<g>
</g>
<g>
</g>
<g>
</g>
<g>
</g>
<g>
</g>
<g>
</g>
<g>
</g>
<g>
</g>
<g>
</g>
<g>
</g>
<g>
</g>
</svg>
