<?xml version="1.0" encoding="iso-8859-1"?>
<!-- Generator: Adobe Illustrator 19.0.0, SVG Export Plug-In . SVG Version: 6.00 Build 0)  -->
<svg version="1.1" id="Layer_1" xmlns="http://www.w3.org/2000/svg" xmlns:xlink="http://www.w3.org/1999/xlink" x="0px" y="0px"
	 viewBox="0 0 512.001 512.001" style="enable-background:new 0 0 512.001 512.001;" xml:space="preserve">
<path style="fill:#F0D355;" d="M330.325,258.676v-62.701c0-41.562-33.284-75.25-74.327-75.25c-41.051,0-74.325,33.688-74.325,75.25
	v62.701H330.325z"/>
<path style="fill:#E4C951;" d="M265.034,121.281c-2.963-0.364-5.974-0.556-9.034-0.556c-41.051,0-74.325,33.688-74.325,75.25v62.701
	h18.074v-62.701C199.748,157.509,228.248,125.795,265.034,121.281z"/>
<path style="fill:#F0D355;" d="M278.46,289.332c0,12.654-10.055,22.918-22.459,22.918l0,0c-12.402,0-22.459-10.263-22.459-22.918
	l0,0c0-12.652,10.057-22.911,22.459-22.911l0,0C268.405,266.421,278.46,276.681,278.46,289.332L278.46,289.332z"/>
<path style="fill:#E4C951;" d="M251.673,289.332c0-9.361,5.507-17.405,13.394-20.962c-2.773-1.251-5.839-1.95-9.066-1.95
	c-12.402,0-22.459,10.259-22.459,22.911c0,12.654,10.057,22.918,22.459,22.918c3.227,0,6.291-0.701,9.066-1.949
	C257.178,306.742,251.673,298.696,251.673,289.332z"/>
<path style="fill:#DAC04E;" d="M150.217,294.793h211.568v-20.267c-8.323-12.485-22.472-20.708-38.537-20.708H188.752
	c-16.065,0-30.214,8.222-38.535,20.708L150.217,294.793L150.217,294.793z"/>
<path style="fill:#CEB649;" d="M206.456,253.817h-17.704c-16.065,0-30.214,8.222-38.535,20.708v20.267h17.704v-20.267
	C176.239,262.039,190.388,253.817,206.456,253.817z"/>
<path style="fill:#00B494;" d="M495.674,256.001c25.232,0,19.445-54.823-5.235-49.604c24.679-5.218,7.565-57.646-15.483-47.432
	c23.049-10.214-4.642-57.96-25.057-43.196c20.414-14.764-16.643-55.73-33.52-37.067c16.877-18.663-27.927-51.065-40.537-29.319
	c12.61-21.745-37.984-44.168-45.776-20.286c7.792-23.883-46.374-35.342-49.012-10.364c2.638-24.977-52.745-24.977-50.104,0
	c-2.64-24.977-56.806-13.519-49.014,10.364c-7.792-23.883-58.384-1.461-45.772,20.287C123.553,27.638,78.748,60.04,95.628,78.703
	c-16.879-18.663-53.937,22.302-33.522,37.066c-20.414-14.764-48.104,32.982-25.056,43.196C14,148.751-3.119,201.177,21.564,206.397
	c-24.684-5.218-30.467,49.604-5.241,49.604c-25.227,0-19.442,54.825,5.241,49.604c-24.684,5.22-7.563,57.648,15.485,47.433
	C14,363.252,41.69,410.995,62.105,396.232c-20.414,14.763,16.643,55.729,33.522,37.067c-16.879,18.662,27.925,51.064,40.537,29.318
	c-12.612,21.747,37.98,44.171,45.772,20.287c-7.792,23.883,46.374,35.343,49.014,10.366c-2.64,24.976,52.743,24.976,50.104,0
	c2.638,24.976,56.804,13.518,49.012-10.366c7.792,23.883,58.386,1.46,45.776-20.287c12.61,21.747,57.414-10.655,40.537-29.318
	c16.877,18.662,53.934-22.303,33.52-37.067c20.414,14.763,48.106-32.978,25.057-43.193c23.049,10.214,40.164-42.213,15.483-47.433
	C515.12,310.825,520.907,256.001,495.674,256.001z M256.001,390.956c-74.877,0-135.578-60.42-135.578-134.955
	c0-74.539,60.7-134.955,135.578-134.955c74.882,0,135.578,60.416,135.578,134.955C391.578,330.536,330.882,390.956,256.001,390.956z
	"/>
<g>
	<circle style="fill:#FFFFFF;" cx="256.001" cy="63.478" r="18.543"/>
	<circle style="fill:#FFFFFF;" cx="256.001" cy="448.522" r="18.543"/>
	<path style="fill:#FFFFFF;" d="M448.521,274.544c-10.241,0-18.541-8.301-18.541-18.541c0-10.244,8.3-18.545,18.541-18.545
		c10.241,0,18.545,8.301,18.545,18.545C467.066,266.242,458.762,274.544,448.521,274.544z"/>
	<path style="fill:#FFFFFF;" d="M63.476,274.544c-10.237,0-18.541-8.301-18.541-18.541c0-10.244,8.304-18.545,18.541-18.545
		c10.245,0,18.545,8.301,18.545,18.545C82.021,266.242,73.721,274.544,63.476,274.544z"/>
</g>
<g>
	<path style="fill:#F18689;" d="M405.243,132.978c-7.239,7.239-18.982,7.239-26.223,0c-7.241-7.245-7.241-18.986,0-26.224
		c7.241-7.244,18.984-7.244,26.223,0C412.489,113.992,412.489,125.734,405.243,132.978z"/>
	<path style="fill:#F18689;" d="M132.979,405.25c-7.241,7.238-18.984,7.238-26.225,0c-7.239-7.242-7.239-18.985-0.002-26.224
		c7.243-7.242,18.986-7.242,26.227,0C140.222,386.266,140.222,398.009,132.979,405.25z"/>
	<path style="fill:#F18689;" d="M379.02,405.249c-7.239-7.242-7.239-18.982,0-26.223c7.243-7.243,18.986-7.243,26.225,0
		c7.245,7.241,7.245,18.981,0,26.223C398.005,412.488,386.262,412.488,379.02,405.249z"/>
	<path style="fill:#F18689;" d="M106.752,132.974c-7.237-7.241-7.237-18.982,0-26.222c7.243-7.24,18.986-7.24,26.227-0.004
		c7.239,7.244,7.239,18.985,0,26.228C125.737,140.218,113.995,140.218,106.752,132.974z"/>
</g>
<g>
	<path style="fill:#F0D355;" d="M160.538,56.773c-4.198,1.891-5.732,3.425-7.62,7.624c-1.895-4.198-3.43-5.732-7.627-7.624
		c4.196-1.892,5.73-3.426,7.627-7.626C154.805,53.346,156.339,54.881,160.538,56.773z"/>
	<path style="fill:#F0D355;" d="M209.068,80.792c-4.202,1.892-5.732,3.426-7.625,7.625c-1.891-4.198-3.426-5.732-7.627-7.625
		c4.201-1.892,5.734-3.426,7.627-7.626C203.336,77.365,204.866,78.899,209.068,80.792z"/>
	<path style="fill:#F0D355;" d="M160.538,103.698c-4.198,1.894-5.732,3.427-7.62,7.626c-1.895-4.198-3.43-5.731-7.627-7.626
		c4.196-1.893,5.73-3.425,7.627-7.624C154.805,100.272,156.339,101.804,160.538,103.698z"/>
	<path style="fill:#F0D355;" d="M314.574,415.858c-4.2,1.89-5.736,3.424-7.627,7.625c-1.891-4.201-3.422-5.734-7.625-7.625
		c4.203-1.892,5.732-3.426,7.625-7.627C308.838,412.432,310.374,413.965,314.574,415.858z"/>
	<path style="fill:#F0D355;" d="M358.513,440.531c-4.196,1.89-5.73,3.425-7.623,7.625c-1.892-4.198-3.426-5.734-7.623-7.625
		c4.196-1.893,5.73-3.425,7.623-7.626C352.782,437.106,354.317,438.639,358.513,440.531z"/>
	<path style="fill:#F0D355;" d="M309.986,463.437c-4.2,1.892-5.73,3.424-7.627,7.627c-1.888-4.202-3.422-5.734-7.625-7.627
		c4.203-1.891,5.736-3.424,7.625-7.627C304.256,460.013,305.787,461.545,309.986,463.437z"/>
	<path style="fill:#F0D355;" d="M331.07,51.723c-4.302-1.633-6.473-1.633-10.781,0c1.633-4.307,1.633-6.477,0-10.785
		c4.308,1.634,6.479,1.634,10.781,0C329.442,45.245,329.442,47.415,331.07,51.723z"/>
	<path style="fill:#F0D355;" d="M348.405,103.022c-4.31-1.632-6.477-1.632-10.781,0c1.629-4.309,1.629-6.475,0-10.782
		c4.304,1.629,6.471,1.629,10.781,0C346.77,96.546,346.77,98.713,348.405,103.022z"/>
	<path style="fill:#F0D355;" d="M297.889,84.904c-4.306-1.633-6.471-1.633-10.779,0c1.629-4.308,1.629-6.477,0-10.785
		c4.308,1.633,6.473,1.633,10.779,0C296.263,78.427,296.263,80.596,297.889,84.904z"/>
	<path style="fill:#F0D355;" d="M186.087,414.552c-4.306-1.63-6.475-1.63-10.783,0c1.631-4.307,1.631-6.473,0-10.782
		c4.308,1.632,6.477,1.632,10.783,0C184.454,408.079,184.454,410.245,186.087,414.552z"/>
	<path style="fill:#F0D355;" d="M199.715,463.074c-4.312-1.63-6.477-1.63-10.783,0c1.627-4.309,1.627-6.477,0-10.783
		c4.306,1.63,6.471,1.63,10.783,0C198.081,456.596,198.081,458.765,199.715,463.074z"/>
	<path style="fill:#F0D355;" d="M149.197,444.955c-4.304-1.631-6.471-1.631-10.777,0c1.633-4.307,1.633-6.476,0-10.784
		c4.306,1.633,6.473,1.633,10.777,0C147.568,438.479,147.568,440.648,149.197,444.955z"/>
	<path style="fill:#F0D355;" d="M455.222,168.742c-1.888-4.195-3.422-5.734-7.62-7.623c4.198-1.891,5.732-3.425,7.625-7.63
		c1.89,4.204,3.426,5.739,7.623,7.627C458.652,163.007,457.115,164.546,455.222,168.742z"/>
	<path style="fill:#F0D355;" d="M431.207,217.272c-1.894-4.201-3.426-5.734-7.627-7.625c4.201-1.893,5.732-3.426,7.627-7.623
		c1.892,4.196,3.424,5.729,7.625,7.623C434.631,211.537,433.099,213.072,431.207,217.272z"/>
	<path style="fill:#F0D355;" d="M408.303,168.742c-1.895-4.198-3.428-5.734-7.627-7.623c4.198-1.895,5.73-3.427,7.627-7.63
		c1.888,4.204,3.424,5.734,7.62,7.627C411.728,163.007,410.191,164.546,408.303,168.742z"/>
	<path style="fill:#F0D355;" d="M96.15,322.777c-1.894-4.198-3.426-5.729-7.625-7.624c4.198-1.892,5.73-3.426,7.625-7.625
		c1.892,4.197,3.426,5.731,7.625,7.625C99.576,317.047,98.041,318.579,96.15,322.777z"/>
	<path style="fill:#F0D355;" d="M71.477,366.723c-1.896-4.2-3.424-5.73-7.625-7.626c4.2-1.892,5.734-3.426,7.625-7.623
		c1.891,4.196,3.424,5.729,7.627,7.623C74.905,360.99,73.368,362.523,71.477,366.723z"/>
	<path style="fill:#F0D355;" d="M48.566,318.192c-1.888-4.196-3.42-5.732-7.623-7.621c4.202-1.894,5.734-3.427,7.627-7.63
		c1.892,4.203,3.424,5.735,7.627,7.626C51.995,312.46,50.462,313.996,48.566,318.192z"/>
	<path style="fill:#F0D355;" d="M460.272,339.277c1.633-4.302,1.635-6.47,0-10.779c4.306,1.634,6.475,1.634,10.785,0
		c-1.636,4.309-1.636,6.477,0,10.782C466.754,337.65,464.579,337.65,460.272,339.277z"/>
	<path style="fill:#F0D355;" d="M408.973,356.613c1.636-4.305,1.636-6.475,0-10.784c4.31,1.634,6.482,1.634,10.783,0.005
		c-1.627,4.304-1.627,6.474,0.006,10.779C415.448,354.977,413.283,354.981,408.973,356.613z"/>
	<path style="fill:#F0D355;" d="M427.096,306.1c1.625-4.308,1.625-6.476-0.008-10.782c4.314,1.629,6.479,1.629,10.79,0
		c-1.635,4.309-1.633,6.474,0,10.782C433.569,304.468,431.397,304.47,427.096,306.1z"/>
	<path style="fill:#F0D355;" d="M97.454,194.291c1.627-4.309,1.627-6.474,0-10.783c4.304,1.63,6.471,1.63,10.781,0
		c-1.633,4.306-1.633,6.474,0,10.783C103.925,192.661,101.758,192.661,97.454,194.291z"/>
	<path style="fill:#F0D355;" d="M48.935,207.917c1.627-4.312,1.627-6.474,0-10.782c4.304,1.63,6.475,1.63,10.777,0
		c-1.627,4.306-1.627,6.476,0.006,10.782C55.412,206.287,53.24,206.285,48.935,207.917z"/>
	<path style="fill:#F0D355;" d="M67.045,157.4c1.633-4.303,1.638-6.471,0-10.776c4.308,1.63,6.479,1.63,10.785-0.004
		c-1.633,4.309-1.633,6.477,0,10.782C73.528,155.774,71.354,155.774,67.045,157.4z"/>
</g>
<polygon style="fill:#D84F48;" points="277.705,122.354 234.297,122.354 170.848,185.805 196.097,190.337 200.629,215.589 
	256.001,160.218 311.373,215.589 315.903,190.337 341.154,185.805 "/>
<g style="opacity:0.1;">
	<path style="fill:#414042;" d="M294.805,475.351c-146.445,0-265.162-118.716-265.162-265.162c0-17.812,1.769-35.21,5.119-52.038
		c-21.859-5.947-37.055,43.2-13.198,48.244C-3.119,201.177-8.903,256,16.323,256c-25.227,0-19.442,54.825,5.241,49.604
		c-24.684,5.22-7.563,57.648,15.485,47.433C14,363.251,41.69,410.994,62.105,396.23c-20.414,14.763,16.643,55.729,33.522,37.067
		c-16.879,18.662,27.925,51.064,40.537,29.318c-12.612,21.747,37.98,44.171,45.772,20.287
		c-7.792,23.883,46.374,35.343,49.014,10.366c-2.64,24.976,52.743,24.976,50.104,0c2.638,24.976,56.804,13.518,49.012-10.366
		c7.781,23.85,58.241,1.522,45.824-20.196C350.33,470.906,323.088,475.351,294.805,475.351z"/>
	<path style="fill:#414042;" d="M34.835,157.765c3.006-14.981,7.274-29.503,12.688-43.454
		C32.332,120.744,20.444,148.435,34.835,157.765z"/>
	<path style="fill:#414042;" d="M431.378,437.509c5.651-1.412,11.367-5.333,15.857-10.337
		C442.08,430.8,436.795,434.248,431.378,437.509z"/>
	<path style="fill:#414042;" d="M375.896,462.704c10.472,17.804,42.729-1.13,44.179-18.764
		C406.056,451.468,391.283,457.766,375.896,462.704z"/>
</g>
<g>
	<path style="fill:#ED5D51;" d="M180.266,162.263c-3.098,0-6.16-1.107-8.7-3.237c-3.621-3.034-5.753-7.791-5.753-12.834v-33.104
		c0-5.048,2.133-9.796,5.753-12.838c2.541-2.119,5.602-3.238,8.7-3.238c1.341,0,2.679,0.208,3.985,0.631l51.896,16.548
		c6.192,1.978,10.464,8.28,10.464,15.453c0,7.161-4.272,13.469-10.464,15.447l-51.896,16.557
		C182.946,162.062,181.601,162.263,180.266,162.263z"/>
	<path style="fill:#ED5D51;" d="M331.734,162.263c3.104,0,6.163-1.107,8.7-3.237c3.623-3.034,5.755-7.791,5.755-12.834v-33.104
		c0-5.048-2.133-9.796-5.755-12.838c-2.537-2.119-5.595-3.238-8.7-3.238c-1.332,0-2.672,0.208-3.984,0.631l-51.896,16.548
		c-6.194,1.978-10.466,8.28-10.466,15.453c0,7.161,4.272,13.469,10.466,15.447l51.896,16.557
		C329.062,162.062,330.405,162.263,331.734,162.263z"/>
</g>
<path style="fill:#D84F48;" d="M274.828,107.989c10.522,10.521,10.629,27.479,0.229,37.876
	c-10.394,10.393-27.358,10.293-37.88-0.229c-10.524-10.528-10.629-27.494-0.237-37.888
	C247.337,97.352,264.299,97.462,274.828,107.989z"/>
<g>
</g>
<g>
</g>
<g>
</g>
<g>
</g>
<g>
</g>
<g>
</g>
<g>
</g>
<g>
</g>
<g>
</g>
<g>
</g>
<g>
</g>
<g>
</g>
<g>
</g>
<g>
</g>
<g>
</g>
</svg>
